<?xml version="1.0" encoding="utf-8"?><svg width="225" height="197" viewBox="0 0 225 197" xmlns="http://www.w3.org/2000/svg" xmlns:xlink="http://www.w3.org/1999/xlink"><svg width="34" height="34" fill="none" viewBox="0 0 34 34" id="add-room" x="20" y="131" xmlns="http://www.w3.org/2000/svg"><circle cx="17" cy="17" r="17" fill="#126EB9" fill-opacity=".5"/><path d="M8.1 17.252h17.802M17 26.152V8.351"/></svg><svg width="24" height="27" fill="none" viewBox="0 0 24 27" id="cart" x="30" y="167" xmlns="http://www.w3.org/2000/svg"><path d="M.905 25.168L2.837 7.073a.852.852 0 01.851-.756H7.22v-.714C7.22 3.008 9.366.9 12 .9c2.634 0 4.78 2.108 4.78 4.703v.714h3.531c.438 0 .806.325.852.756l1.932 18.095a.837.837 0 01-.215.653.863.863 0 01-.637.279H1.757a.862.862 0 01-.636-.279.836.836 0 01-.216-.653zM15.067 5.603c0-1.66-1.374-3.015-3.067-3.015S8.933 3.942 8.933 5.603v.714h6.134v-.714zM4.46 8.006L2.708 24.412h18.584L19.54 8.006h-2.76v1.54a.85.85 0 01-.856.843.85.85 0 01-.857-.844v-1.54H8.933v1.54a.85.85 0 01-.857.844.85.85 0 01-.856-.844v-1.54H4.46z" fill="#fff"/></svg><svg width="27" height="22" fill="none" viewBox="0 0 27 22" id="check" x="114" y="131" xmlns="http://www.w3.org/2000/svg"><path d="M1 12l9 7L25.5 1"/></svg><svg width="27" height="27" fill="none" viewBox="0 0 27 27" id="close-modal" x="54" y="167" xmlns="http://www.w3.org/2000/svg"><path d="M1 26L26 1m0 25L1 1"/></svg><svg width="12" height="12" fill="none" viewBox="0 0 12 12" id="close-small" x="86" y="110" xmlns="http://www.w3.org/2000/svg"><path d="M1 1l10 10M1 11L11 1"/></svg><svg width="25" height="23" fill="none" viewBox="0 0 25 23" id="complex" x="81" y="167" xmlns="http://www.w3.org/2000/svg"><path d="M24.272 3.444h-6.645V2.71A2.2 2.2 0 0015.43.514H9.57A2.2 2.2 0 007.373 2.71v.732H.733A.734.734 0 000 4.176v16.113a2.2 2.2 0 002.197 2.197h20.606A2.2 2.2 0 0025 20.29V4.188c-.028-.48-.324-.742-.728-.744zM8.838 2.71c0-.404.329-.732.732-.732h5.86c.404 0 .732.328.732.732v.732H8.838V2.71zM23.25 4.908l-2.274 6.824c-.1.3-.38.5-.695.5h-4.12V11.5a.732.732 0 00-.732-.732H9.57a.732.732 0 00-.732.732v.732h-4.12a.731.731 0 01-.695-.5L1.75 4.908h21.5zm-8.554 7.324v1.465h-4.394v-1.465h4.394zm8.838 8.057a.733.733 0 01-.732.732H2.197a.733.733 0 01-.732-.732V8.69l1.168 3.506a2.194 2.194 0 002.085 1.502h4.12v.733c0 .404.328.732.732.732h5.86a.732.732 0 00.732-.732v-.733h4.12c.947 0 1.785-.603 2.084-1.502l1.17-3.506v11.6z" fill="#fff"/></svg><svg width="25" height="25" fill="none" viewBox="0 0 25 25" id="economy" x="200" xmlns="http://www.w3.org/2000/svg"><path d="M8.057 16.21c-.39 0-.733-.364-.733-.78 0-.307.194-.584.482-.689.376-.137.814.049 1.201.51a.733.733 0 001.122-.942c-.396-.471-.857-.796-1.34-.958V12.5a.732.732 0 00-1.465 0v.858l-.02.007A2.204 2.204 0 005.86 15.43c0 .583.225 1.14.632 1.566.42.438.975.68 1.566.68a.733.733 0 01.285 1.407c-.328.14-.72.02-1.077-.325a.733.733 0 00-1.02 1.052c.331.32.699.547 1.08.675v.853a.732.732 0 001.464 0v-.858a2.193 2.193 0 001.465-2.072 2.2 2.2 0 00-2.197-2.197z" fill="#fff"/><path d="M22.607.92C21.26.327 19.49 0 17.627 0c-3.813 0-7.324 1.4-7.324 3.662v5.495a8.024 8.024 0 00-2.246-.32 7.97 7.97 0 00-5.697 2.39A8.076 8.076 0 000 16.943C0 21.386 3.614 25 8.057 25a8.056 8.056 0 004.153-1.144c1.362.73 3.303 1.144 5.417 1.144 1.863 0 3.632-.327 4.98-.92C24.15 23.4 25 22.427 25 21.338V3.662c0-1.09-.85-2.063-2.393-2.742zM8.057 23.535a6.6 6.6 0 01-6.592-6.592c0-3.661 2.957-6.64 6.592-6.64a6.648 6.648 0 016.64 6.64c0 3.635-2.979 6.592-6.64 6.592zm15.478-2.197c0 .896-2.302 2.197-5.908 2.197-1.534 0-2.984-.246-4.083-.677a8.112 8.112 0 001.815-2.423c.727.113 1.487.17 2.268.17 1.926 0 4.314-.374 5.908-1.416v2.149zm0-4.395c0 .896-2.302 2.198-5.908 2.198-.598 0-1.18-.038-1.741-.11a7.99 7.99 0 00.23-2.943c.494.049.999.074 1.511.074 1.926 0 4.314-.374 5.908-1.417v2.198zm0-4.443c0 .896-2.302 2.197-5.908 2.197-.623 0-1.233-.04-1.82-.12a8.116 8.116 0 00-1.998-3.318c1.132.33 2.448.509 3.818.509 1.926 0 4.314-.375 5.908-1.417V12.5zm0-4.395c0 .896-2.302 2.198-5.908 2.198-1.66 0-3.21-.283-4.364-.795-.922-.41-1.495-.948-1.495-1.403V5.918c1.585 1.04 3.953 1.406 5.859 1.406 1.926 0 4.314-.374 5.908-1.417v2.198zM17.627 5.86c-3.578 0-5.86-1.282-5.86-2.197 0-.918 2.289-2.197 5.86-2.197 3.607 0 5.908 1.301 5.908 2.197 0 .896-2.302 2.197-5.908 2.197z" fill="#fff"/></svg><svg width="22" height="18" fill="none" viewBox="0 0 22 18" id="email" x="200" y="175" xmlns="http://www.w3.org/2000/svg"><path d="M20.066.621H1.934A1.937 1.937 0 000 2.555v12.89c0 1.063.865 1.934 1.934 1.934h18.132A1.937 1.937 0 0022 15.445V2.555A1.937 1.937 0 0020.066.62zm-.267 1.29l-8.758 8.758L2.207 1.91h17.592zM1.29 15.177V2.815L7.497 8.97 1.29 15.178zm.912.912l6.212-6.212 2.176 2.158c.252.25.659.249.91-.002l2.12-2.123 6.18 6.18H2.201zm18.51-.912L14.533 9l6.178-6.178v12.356z" fill="#1156DE"/></svg><svg width="21" height="25" fill="none" viewBox="0 0 21 25" id="experience" x="200" y="25" xmlns="http://www.w3.org/2000/svg"><path d="M5.031 15.43H1.125a.977.977 0 00-.977.977v7.617c0 .54.438.976.977.976h3.906c.54 0 .977-.437.977-.976v-7.617a.977.977 0 00-.977-.977zm-.976 7.617H2.102v-5.664h1.953v5.664zm15.82-15.429h-3.906a.977.977 0 00-.977.976v15.43c0 .54.437.976.977.976h3.906c.54 0 .977-.437.977-.976V8.594a.977.977 0 00-.977-.976zm-.977 15.43h-1.953V9.57h1.953v13.476zm-6.445-11.524H8.547a.977.977 0 00-.977.977v11.523c0 .54.438.976.977.976h3.906c.54 0 .977-.437.977-.976V12.5a.977.977 0 00-.977-.976zm-.976 11.523H9.523v-9.57h1.954v9.57zM13.723 0h-3.711a.977.977 0 100 1.954h1.353l-8.281 8.28a.977.977 0 101.38 1.382l8.282-8.281v1.353a.977.977 0 101.953 0V.978A.98.98 0 0013.723 0z" fill="#fff"/></svg><svg width="15" height="25" fill="none" viewBox="0 0 15 25" id="fb" x="200" y="50" xmlns="http://www.w3.org/2000/svg"><path d="M9.16 24.951H5.157a1.214 1.214 0 01-1.213-1.213v-9.03H1.608a1.214 1.214 0 01-1.212-1.212v-3.87c0-.669.543-1.212 1.212-1.212h2.336V6.476c0-1.921.603-3.556 1.744-4.727C6.835.573 8.437-.049 10.321-.049l3.053.005a1.214 1.214 0 011.211 1.213v3.593c0 .668-.544 1.212-1.212 1.212l-2.056.001c-.627 0-.787.126-.82.164-.057.064-.124.245-.124.743v1.531h2.845a1.217 1.217 0 011.224 1.213l-.001 3.87c0 .668-.544 1.212-1.213 1.212h-2.855v9.03c0 .67-.544 1.213-1.213 1.213zm-3.75-1.465h3.497v-9.434a.81.81 0 01.81-.81h3.258l.001-3.363h-3.26a.81.81 0 01-.809-.81V6.882c0-.572.058-1.223.49-1.713.523-.591 1.346-.66 1.92-.66h1.802V1.42l-2.799-.004c-3.028 0-4.91 1.938-4.91 5.059v2.593a.81.81 0 01-.81.81H1.861v3.364h2.74a.81.81 0 01.809.81v9.433zm7.962-22.064z" fill="#BACFF8"/></svg><svg width="12" height="24" fill="none" viewBox="0 0 12 24" id="fb-fill" x="178" y="102" xmlns="http://www.w3.org/2000/svg"><path d="M7.5 8.25v-3A1.5 1.5 0 019 3.75h1.5V0h-3A4.5 4.5 0 003 4.5v3.75H0V12h3v12h4.5V12h3L12 8.25H7.5z" fill="#7EB5F9"/></svg><svg width="20" height="20" fill="none" viewBox="0 0 20 20" id="home" x="66" y="110" xmlns="http://www.w3.org/2000/svg"><path d="M16.64 19.375H3.36a1.8 1.8 0 01-1.798-1.797V8.124a.625.625 0 011.25 0v9.454c0 .301.246.547.547.547h13.282a.547.547 0 00.546-.547V8.124a.625.625 0 011.25 0v9.454a1.8 1.8 0 01-1.796 1.797z" fill="#fff"/><path d="M19.375 10.311a.623.623 0 01-.442-.183L11.16 2.355c-.64-.64-1.68-.64-2.32 0l-7.773 7.773a.625.625 0 11-.884-.884l7.773-7.773a2.894 2.894 0 014.088 0l7.773 7.773a.625.625 0 01-.442 1.067zM12.5 19.375h-5a.625.625 0 01-.625-.625v-5.547c0-1.077.876-1.953 1.953-1.953h2.344c1.077 0 1.953.876 1.953 1.953v5.547c0 .345-.28.625-.625.625zm-4.375-1.25h3.75v-4.922a.704.704 0 00-.703-.703H8.828a.704.704 0 00-.703.703v4.922z" fill="#fff"/></svg><svg width="25" height="25" fill="none" viewBox="0 0 25 25" id="insta" x="200" y="75" xmlns="http://www.w3.org/2000/svg"><path d="M18.233 0H6.767A6.775 6.775 0 000 6.767v11.466A6.775 6.775 0 006.767 25h11.466A6.775 6.775 0 0025 18.233V6.767A6.775 6.775 0 0018.233 0zm5.301 18.233a5.307 5.307 0 01-5.301 5.301H6.767a5.308 5.308 0 01-5.301-5.301V6.767a5.308 5.308 0 015.301-5.301h11.466a5.308 5.308 0 015.301 5.301v11.466z" fill="#BACFF8"/><path d="M12.5 5.664A6.843 6.843 0 005.664 12.5a6.843 6.843 0 006.836 6.836 6.843 6.843 0 006.836-6.836A6.843 6.843 0 0012.5 5.664zm0 12.206a5.376 5.376 0 01-5.37-5.37 5.376 5.376 0 015.37-5.37 5.376 5.376 0 015.37 5.37 5.376 5.376 0 01-5.37 5.37zm7-14.633c-1.115 0-2.02.906-2.02 2.02 0 1.113.905 2.02 2.02 2.02 1.113 0 2.02-.907 2.02-2.02 0-1.114-.907-2.02-2.02-2.02zm0 2.574a.555.555 0 110-1.11.555.555 0 010 1.11z" fill="#BACFF8"/></svg><svg width="22" height="22" fill="none" viewBox="0 0 22 22" id="insta-fill" x="141" y="131" xmlns="http://www.w3.org/2000/svg"><path d="M16.045 0H5.955A5.962 5.962 0 000 5.955v10.09A5.962 5.962 0 005.955 22h10.09A5.962 5.962 0 0022 16.045V5.955A5.962 5.962 0 0016.045 0zM11 17.015A6.022 6.022 0 014.985 11 6.022 6.022 0 0111 4.985 6.022 6.022 0 0117.015 11 6.022 6.022 0 0111 17.015zm6.16-10.612a1.78 1.78 0 01-1.778-1.777c0-.98.797-1.778 1.777-1.778.98 0 1.778.797 1.778 1.778a1.78 1.78 0 01-1.778 1.777z" fill="#7EB5F9"/><path d="M11 6.274A4.731 4.731 0 006.274 11 4.731 4.731 0 0011 15.726 4.731 4.731 0 0015.726 11 4.731 4.731 0 0011 6.274zm6.16-2.136a.488.488 0 100 .977.488.488 0 000-.977z" fill="#7EB5F9"/></svg><svg width="21" height="25" fill="none" viewBox="0 0 21 25" id="locate" x="200" y="100" xmlns="http://www.w3.org/2000/svg"><path d="M19.56 6.551c-.89-2.88-3.206-5.214-6.042-6.092-3.02-.935-6.167-.427-8.636 1.393a9.676 9.676 0 00-2.84 3.326A9.595 9.595 0 00.979 9.566c0 2.078.657 4.052 1.9 5.71L10.501 25l7.614-9.712.01-.012c1.86-2.48 2.384-5.661 1.435-8.725zm-2.603 7.84l-6.456 8.235-6.455-8.235a7.99 7.99 0 01-1.603-4.825A8.153 8.153 0 015.75 3.031c2.09-1.54 4.764-1.968 7.334-1.172 2.38.737 4.325 2.7 5.076 5.125.807 2.608.368 5.307-1.204 7.407z" fill="#1156DE"/><path d="M10.501 4.438a5.134 5.134 0 00-5.128 5.128c0 2.828 2.3 5.129 5.128 5.129a5.134 5.134 0 005.128-5.129c0-2.827-2.3-5.128-5.128-5.128zm0 8.791a3.667 3.667 0 01-3.663-3.663 3.667 3.667 0 013.663-3.663 3.667 3.667 0 013.663 3.663 3.667 3.667 0 01-3.663 3.663z" fill="#1156DE"/></svg><svg width="18" height="25" fill="none" viewBox="0 0 18 25" id="phone" x="200" y="125" xmlns="http://www.w3.org/2000/svg"><path fill-rule="evenodd" clip-rule="evenodd" d="M15 2H3a1 1 0 00-1 1v18.925a1 1 0 001 1h12a1 1 0 001-1V3a1 1 0 00-1-1zM3 0a3 3 0 00-3 3v18.925a3 3 0 003 3h12a3 3 0 003-3V3a3 3 0 00-3-3H3z" fill="#fff"/><path fill-rule="evenodd" clip-rule="evenodd" d="M13 2.114H5c0 1.062.861 1.923 1.923 1.923h4.154A1.923 1.923 0 0013 2.114z" fill="#fff"/></svg><svg viewBox="0 0 20.46 25" width="20.46" height="25" id="professionalizm" x="200" y="150" xmlns="http://www.w3.org/2000/svg"><defs><style>.aqcls-1{fill:#fff}</style></defs><g id="aqLayer_2" data-name="Layer 2"><g id="aqLayer_1-2" data-name="Layer 1"><path class="aqcls-1" d="M5.39 7.84a1.65 1.65 0 00.37.82c.37 2.52 2.59 4.68 4.42 4.68h.12c2.35-.11 4-2.65 4.4-4.67a2 2 0 00.4-.9 2.16 2.16 0 00-.1-1.54l-.14-.13c.26-1 .84-2.67-.61-4.2A6.76 6.76 0 0011.42.32 5.68 5.68 0 009.6 0a4.4 4.4 0 00-4.1 3 4.66 4.66 0 000 3.12.57.57 0 00-.14.13c-.25.35-.07 1.13.03 1.59zm1.34-2.08a3.6 3.6 0 01-.08-2.3A3.18 3.18 0 019.6 1.25a4.73 4.73 0 011.4.25 5.7 5.7 0 012.35 1.26c.83.87.66 1.76.35 2.85v.15l-.2.75.47.43a2.48 2.48 0 01-.07.54 1.6 1.6 0 01-.12.36l-.22.22-.07.37c-.27 1.48-1.55 3.57-3.24 3.65h-.05c-1.2.01-2.93-1.69-3.2-3.6v-.36l-.28-.29a1.22 1.22 0 01-.09-.29A5.27 5.27 0 016.49 7L7 6.63z"/><path class="aqcls-1" d="M20.46 22c-.09-1.77-.19-4.58-1.73-6.87a3.33 3.33 0 00-1.49-1 19.47 19.47 0 01-3.51-1.62l-.28.5.05 3.11-2.87 7.65a.43.43 0 01-.8 0L7 16.11V13c0-.07-.29-.5-.29-.5a19.16 19.16 0 01-3.51 1.62 3.33 3.33 0 00-1.48 1C.19 17.41.09 20.22 0 22c0 1.21.21 1.67.53 1.8 2 .8 5.85 1.2 9.7 1.2s7.7-.4 9.7-1.2c.33-.13.58-.59.53-1.8zm-19.18.75a3.35 3.35 0 010-.7V22c.08-1.65.19-4.13 1.48-6.09a2.45 2.45 0 01.9-.57c.16 0 1.12-.4 2.1-.84v1.87l.08.23 2.69 7.17a27.26 27.26 0 01-7.25-1.03zm17.91 0a27.34 27.34 0 01-7.21 1l2.69-7.17.08-.23v-1.87c1 .44 1.93.78 2.08.83a2.51 2.51 0 01.92.58 11.91 11.91 0 011.48 6.08V22a4.27 4.27 0 01-.04.74z"/><path class="aqcls-1" d="M10.34 14.32h-.13A3.94 3.94 0 019 14.1l1.14 1.74-1 1 1.05 6.38a.11.11 0 00.22 0l1.05-6.38-1-1 1.12-1.71a4.77 4.77 0 01-1.24.19z"/></g></g></svg><svg width="30" height="30" fill="none" viewBox="0 0 30 30" id="quote" y="167" xmlns="http://www.w3.org/2000/svg"><path d="M0 15v12.857h12.857V15H4.286c0-4.726 3.845-8.572 8.571-8.572V2.143C5.767 2.143 0 7.91 0 15zm30-8.572V2.143C22.91 2.143 17.143 7.91 17.143 15v12.857H30V15h-8.572c0-4.726 3.846-8.572 8.572-8.572z" fill="#fff" fill-opacity=".5"/></svg><svg width="66" height="65" fill="none" viewBox="0 0 66 65" id="serv-cond" x="68" xmlns="http://www.w3.org/2000/svg"><path d="M13.575 63.5c0-3.127-2.817-3.127-2.817-6.256 0-3.127 2.817-3.127 2.817-6.257 0-3.122-2.817-3.122-2.817-6.245s2.817-3.123 2.817-6.244m14.583.002c0 3.123-2.816 3.123-2.816 6.244 0 3.123 2.816 3.123 2.816 6.246 0 3.127-2.816 3.127-2.816 6.256 0 3.127 2.816 3.127 2.816 6.256M42.742 38.5c0 3.123-2.817 3.123-2.817 6.244 0 3.123 2.817 3.123 2.817 6.246 0 3.127-2.817 3.127-2.817 6.256 0 3.127 2.817 3.127 2.817 6.256M57.325 38.5c0 3.123-2.817 3.123-2.817 6.244 0 3.123 2.817 3.123 2.817 6.246 0 3.127-2.817 3.127-2.817 6.256 0 3.127 2.817 3.127 2.817 6.256M8 28.083h50m-50-6.25h50m-50-6.25h50m-8.333-6.25H58m6.25 20.834V1H1.75v29.167a4.166 4.166 0 004.167 4.166h54.166a4.166 4.166 0 004.167-4.166z"/></svg><svg width="64" height="44" fill="none" viewBox="0 0 64 44" id="serv-dry-clean" x="66" y="66" xmlns="http://www.w3.org/2000/svg"><path d="M.542 5.167c1.54 0 2.814-1.125 3.906-2.084C5.54 2.125 6.815 1 8.354 1c1.54 0 2.815 1.125 3.907 2.083 1.091.959 2.366 2.084 3.906 2.084s2.814-1.125 3.906-2.084C21.165 2.125 22.44 1 23.979 1c1.54 0 2.815 1.125 3.907 2.083 1.091.959 2.366 2.084 3.906 2.084s2.814-1.125 3.906-2.084C36.79 2.125 38.065 1 39.604 1c1.54 0 2.815 1.125 3.907 2.083 1.091.959 2.366 2.084 3.906 2.084s2.814-1.125 3.906-2.084C52.415 2.125 53.69 1 55.229 1c1.54 0 2.763 1.125 3.854 2.083 1.092.959 2.425 2.084 3.965 2.084m0 12.5c-1.54 0-2.873-1.125-3.965-2.084-1.091-.958-2.314-2.083-3.854-2.083s-2.814 1.125-3.906 2.083c-1.092.959-2.367 2.084-3.906 2.084-1.54 0-2.815-1.125-3.907-2.084-1.091-.958-2.366-2.083-3.906-2.083s-2.814 1.125-3.906 2.083c-1.092.959-2.367 2.084-3.906 2.084-1.54 0-2.815-1.125-3.907-2.084-1.091-.958-2.366-2.083-3.906-2.083s-2.814 1.125-3.906 2.083c-1.092.959-2.367 2.084-3.906 2.084-1.54 0-2.815-1.125-3.907-2.084-1.091-.958-2.366-2.083-3.906-2.083s-2.814 1.125-3.906 2.083c-1.092.959-2.367 2.084-3.906 2.084m62.506 12.5c-1.54 0-2.873-1.125-3.965-2.084C57.992 27.125 56.77 26 55.23 26s-2.814 1.125-3.906 2.083c-1.092.959-2.367 2.084-3.906 2.084-1.54 0-2.815-1.125-3.907-2.084C42.42 27.125 41.145 26 39.605 26s-2.814 1.125-3.906 2.083c-1.092.959-2.367 2.084-3.906 2.084-1.54 0-2.815-1.125-3.907-2.084C26.794 27.125 25.52 26 23.98 26s-2.814 1.125-3.906 2.083c-1.092.959-2.367 2.084-3.906 2.084-1.54 0-2.815-1.125-3.907-2.084C11.17 27.125 9.895 26 8.354 26s-2.814 1.125-3.906 2.083c-1.092.959-2.367 2.084-3.906 2.084m62.506 12.5c-1.54 0-2.873-1.125-3.965-2.084-1.091-.958-2.314-2.083-3.854-2.083s-2.814 1.125-3.906 2.083c-1.092.959-2.367 2.084-3.906 2.084-1.54 0-2.815-1.125-3.907-2.084-1.091-.958-2.366-2.083-3.906-2.083s-2.814 1.125-3.906 2.083c-1.092.959-2.367 2.084-3.906 2.084-1.54 0-2.815-1.125-3.907-2.084-1.091-.958-2.366-2.083-3.906-2.083s-2.814 1.125-3.906 2.083c-1.092.959-2.367 2.084-3.906 2.084-1.54 0-2.815-1.125-3.907-2.084-1.091-.958-2.366-2.083-3.906-2.083s-2.814 1.125-3.906 2.083c-1.092.959-2.367 2.084-3.906 2.084"/></svg><svg width="66" height="65" fill="none" viewBox="0 0 66 65" id="serv-project" y="66" xmlns="http://www.w3.org/2000/svg"><path d="M5.925 38.502h16.667m4.158-6.248h12.5-12.5zM39.25 5.17H14.258v12.5L39.25 5.17zm-25 41.666v12.5h25l-25-12.5zm12.5-29.166h-25v29.166h25V17.67zM64.25 1h-25v8.333h25V1zm0 27.085h-25v8.334h25v-8.334zm0 27.082h-25V63.5h25v-8.333zM5.925 26.002h16.667H5.925zm0 6.248h16.667H5.925z"/></svg><svg width="66" height="66" fill="none" viewBox="0 0 66 66" id="serv-serv" x="134" xmlns="http://www.w3.org/2000/svg"><path d="M36.608 22.352L56.006 2.954a4.972 4.972 0 117.032 7.032L43.64 29.384l-7.032-7.032zm3.515 3.515L59.46 6.529 40.123 25.867zM10.227 55.763l16.106-16.107-16.106 16.107zM1.99 60.369L5.62 64l6.726-6.117-4.24-4.24L1.99 60.37zm38.29-12.721a12.505 12.505 0 002.882 13.194c3.847 3.848 9.58 4.662 14.229 2.444l-8.336-8.336a4.177 4.177 0 010-5.892 4.177 4.177 0 015.892 0l8.335 8.336c2.22-4.646 1.404-10.38-2.443-14.23-3.567-3.566-8.755-4.526-13.194-2.88L25.719 18.355c1.648-4.44.687-9.629-2.882-13.195C18.99 1.313 13.257.498 8.608 2.717l8.336 8.335a4.177 4.177 0 010 5.892 4.177 4.177 0 01-5.892 0L2.717 8.608c-2.219 4.646-1.404 10.38 2.443 14.23 3.567 3.566 8.753 4.527 13.19 2.883l21.931 21.927z"/></svg><svg width="44" height="65" fill="none" viewBox="0 0 44 65" id="serv-temp" x="134" y="66" xmlns="http://www.w3.org/2000/svg"><path d="M9.333 11.417h8.334M26 5.167h16.667H26zm0 6.25h8.333H26zm0 6.25h16.667H26zm0 6.25h8.333H26zm0 6.25h16.667H26zm0 6.25h8.333H26zm-8.333 2.81V1H9.333v38.227C4.481 40.946 1 45.56 1 51c0 6.902 5.596 12.5 12.5 12.5S26 57.902 26 51c0-5.44-3.481-10.056-8.333-11.773z"/></svg><svg width="68" height="66" fill="none" viewBox="0 0 68 66" id="serv-vent" xmlns="http://www.w3.org/2000/svg"><path d="M24.117 1l7.622 28.444M8.517 59.224L29.34 38.403m37.402 5.22l-28.444-7.621m-29.12 3.254a28.62 28.62 0 001.224 5.886 27.842 27.842 0 001.306 3.32m39.375 5.512a26.684 26.684 0 003.46-5.515M41.145 11.33a22.096 22.096 0 00-8.02-1.504M51.865 65a32.07 32.07 0 001.14-.945c4.125-3.578 7.434-8.246 9.568-13.608M49.188 5.723a30.68 30.68 0 00-2.677-1.521A29.583 29.583 0 0030.448 1.12M1.11 33.369c-.073.971-.11 1.954-.11 2.946C1 42.75 2.563 48.78 5.297 53.973c.334.636.688 1.26 1.057 1.871M38.298 33.23a5.351 5.351 0 01-3.786 6.556 5.351 5.351 0 01-6.556-3.785 5.353 5.353 0 0110.342-2.77z"/></svg><svg width="20" height="36" fill="none" viewBox="0 0 20 36" id="slide-next" x="178" y="66" xmlns="http://www.w3.org/2000/svg"><path fill-rule="evenodd" clip-rule="evenodd" d="M3.136 35.98L.864 34.023 14.972 17.65.92 3.041 3.081.961 19.028 17.54 3.136 35.98z" fill="#fff"/></svg><svg width="20" height="36" fill="none" viewBox="0 0 20 36" id="slide-prev" y="131" xmlns="http://www.w3.org/2000/svg"><path fill-rule="evenodd" clip-rule="evenodd" d="M16.864.021l2.272 1.959L5.028 18.352 19.081 32.96l-2.162 2.08L.972 18.463 16.864.02z" fill="#fff"/></svg><svg width="22" height="22" fill="none" viewBox="0 0 22 22" id="time" x="163" y="131" xmlns="http://www.w3.org/2000/svg"><path d="M11 0C4.925 0 0 4.925 0 11s4.925 11 11 11 11-4.925 11-11C21.994 4.928 17.072.006 11 0zm0 20.428A9.429 9.429 0 1120.428 11 9.439 9.439 0 0111 20.428z" fill="#1156DE"/><path d="M11 3.928a.786.786 0 00-.786.786v5.5h-5.5a.786.786 0 000 1.572H11a.786.786 0 00.786-.786V4.714A.786.786 0 0011 3.928z" fill="#1156DE"/></svg><svg width="31" height="25" fill="none" viewBox="0 0 31 25" id="yt" x="54" y="131" xmlns="http://www.w3.org/2000/svg"><path d="M20.271 11.107L13.424 7.36a1.247 1.247 0 00-1.245.02 1.247 1.247 0 00-.617 1.083v7.43c0 .447.229.85.613 1.08a1.255 1.255 0 001.24.028l6.85-3.683a1.258 1.258 0 00.008-2.211zm-6.893 3.852V9.405l5.118 2.801-5.118 2.753z" fill="#BACFF8"/><path d="M30.772 6.296l-.002-.015c-.026-.25-.287-2.469-1.366-3.597-1.247-1.328-2.661-1.49-3.341-1.567a8.204 8.204 0 01-.154-.018l-.054-.006C21.757.795 15.567.754 15.505.754h-.01c-.063 0-6.252.041-10.387.34l-.054.005-.146.017c-.672.078-2.07.24-3.321 1.615C.559 3.848.262 6.02.232 6.264l-.004.032C.218 6.399 0 8.87 0 11.353v2.32a64.4 64.4 0 00.228 5.057l.002.015c.026.246.287 2.425 1.361 3.554 1.173 1.283 2.655 1.453 3.453 1.544.126.015.234.027.308.04l.072.01c2.366.225 9.785.336 10.1.34h.019c.062 0 6.251-.04 10.35-.338l.053-.006c.052-.007.11-.013.174-.02.669-.07 2.06-.218 3.293-1.575 1.028-1.117 1.325-3.289 1.355-3.533l.004-.031c.01-.105.228-2.576.228-5.058v-2.32c0-2.48-.219-4.952-.228-5.056zm-1.589 7.376c0 2.297-.2 4.662-.22 4.88-.076.598-.39 1.972-.89 2.516-.772.85-1.565.934-2.144.995a5.68 5.68 0 00-.194.022c-3.964.286-9.92.33-10.194.332-.307-.005-7.618-.116-9.912-.33a7.872 7.872 0 00-.378-.049c-.68-.077-1.609-.184-2.324-.97l-.017-.018c-.491-.512-.796-1.797-.873-2.491a63.48 63.48 0 01-.22-4.887v-2.32c0-2.293.2-4.656.22-4.878.091-.704.41-1.995.89-2.517.796-.875 1.635-.972 2.19-1.036l.148-.018c4.021-.288 10.02-.33 10.235-.332.215.001 6.211.044 10.197.332l.16.019c.57.065 1.434.163 2.225 1.008l.007.008c.492.512.797 1.82.874 2.527.014.155.22 2.554.22 4.888v2.32z" fill="#BACFF8"/></svg><svg width="29" height="24" fill="none" viewBox="0 0 29 24" id="yt-fill" x="85" y="131" xmlns="http://www.w3.org/2000/svg"><path d="M27.827 4.299c-.316-1.406-1.245-2.514-2.423-2.892C23.255.704 14.648.704 14.648.704s-8.605 0-10.757.676c-1.154.378-2.106 1.513-2.423 2.919-.566 2.567-.566 7.892-.566 7.892s0 5.351.566 7.892c.318 1.406 1.246 2.514 2.424 2.892 2.173.703 10.756.703 10.756.703s8.605 0 10.756-.676c1.178-.378 2.107-1.486 2.424-2.892.566-2.567.566-7.892.566-7.892s.022-5.352-.567-7.919zM11.908 17.11V7.272l7.156 4.92-7.156 4.918z" fill="#7EB5F9"/></svg></svg>