<?xml version="1.0" encoding="utf-8"?><svg viewBox="0 0 67 67" xmlns="http://www.w3.org/2000/svg" xmlns:xlink="http://www.w3.org/1999/xlink"><style>:root>svg{display:none}:root>svg:target{display:block}</style><svg fill="none" viewBox="0 0 34 34" id="add-room" xmlns="http://www.w3.org/2000/svg"><circle cx="17" cy="17" r="17" fill="#126EB9" fill-opacity=".5"/><path d="M8.1 17.252h17.802M17 26.152V8.351"/></svg><svg fill="none" viewBox="0 0 12 12" id="bread-close" xmlns="http://www.w3.org/2000/svg"><path fill-rule="evenodd" clip-rule="evenodd" d="M5.293 6L.646 1.354l.708-.708L6 5.293 10.646.646l.708.708L6.707 6l4.647 4.646-.707.708L6 6.707l-4.646 4.647-.708-.707L5.293 6z" fill="#D11586"/></svg><svg fill="none" viewBox="0 0 23 25" id="cart" xmlns="http://www.w3.org/2000/svg"><path d="M.657 24.178l1.9-18.094a.744.744 0 01.74-.667H6.87v-.814A4.609 4.609 0 0111.472 0a4.609 4.609 0 014.604 4.603v.814h3.57c.382 0 .701.288.74.667l1.901 18.094a.746.746 0 01-.74.822H1.397a.744.744 0 01-.74-.822zm13.93-19.575a3.119 3.119 0 00-3.115-3.115 3.119 3.119 0 00-3.115 3.115v.814h6.23v-.814zm6.134 18.909L18.977 6.906h-2.901v1.64a.744.744 0 01-1.489 0v-1.64h-6.23v1.64a.744.744 0 01-1.488 0v-1.64H3.968L2.224 23.512H20.72z" fill="#fff"/></svg><svg fill="none" viewBox="0 0 27 28" id="cart-product" xmlns="http://www.w3.org/2000/svg"><path d="M.989 27.08l2.28-20.266c.048-.424.431-.746.888-.746h4.286v-.912C8.443 2.313 10.92 0 13.967 0c3.045 0 5.524 2.313 5.524 5.156v.912h4.285c.457 0 .84.322.888.746l2.28 20.266a.8.8 0 01-.224.644.923.923 0 01-.664.276H1.877a.922.922 0 01-.663-.276.798.798 0 01-.225-.644zM17.705 5.156c0-1.924-1.677-3.49-3.738-3.49-2.062 0-3.739 1.566-3.739 3.49v.912h7.477v-.912zm7.36 21.177L22.972 7.734h-3.481v1.837c0 .46-.4.833-.893.833s-.893-.373-.893-.833V7.734h-7.476v1.837c0 .46-.4.833-.893.833s-.893-.373-.893-.833V7.734H4.96l-2.092 18.6h22.196z" fill="#0066BA"/></svg><svg fill="none" viewBox="0 0 27 22" id="check" xmlns="http://www.w3.org/2000/svg"><path d="M1 12l9 7L25.5 1"/></svg><svg fill="none" viewBox="0 0 27 27" id="close-modal" xmlns="http://www.w3.org/2000/svg"><path d="M1 26L26 1m0 25L1 1"/></svg><svg fill="none" viewBox="0 0 12 12" id="close-small" xmlns="http://www.w3.org/2000/svg"><path d="M1 1l10 10M1 11L11 1"/></svg><svg fill="none" viewBox="0 0 25 23" id="complex" xmlns="http://www.w3.org/2000/svg"><path d="M24.272 3.444h-6.645V2.71A2.2 2.2 0 0015.43.514H9.57A2.2 2.2 0 007.373 2.71v.732H.733A.734.734 0 000 4.176v16.113a2.2 2.2 0 002.197 2.197h20.606A2.2 2.2 0 0025 20.29V4.188c-.028-.48-.324-.742-.728-.744zM8.838 2.71c0-.404.329-.732.732-.732h5.86c.404 0 .732.328.732.732v.732H8.838V2.71zM23.25 4.908l-2.274 6.824c-.1.3-.38.5-.695.5h-4.12V11.5a.732.732 0 00-.732-.732H9.57a.732.732 0 00-.732.732v.732h-4.12a.731.731 0 01-.695-.5L1.75 4.908h21.5zm-8.554 7.324v1.465h-4.394v-1.465h4.394zm8.838 8.057a.733.733 0 01-.732.732H2.197a.733.733 0 01-.732-.732V8.69l1.168 3.506a2.194 2.194 0 002.085 1.502h4.12v.733c0 .404.328.732.732.732h5.86a.732.732 0 00.732-.732v-.733h4.12c.947 0 1.785-.603 2.084-1.502l1.17-3.506v11.6z" fill="#fff"/></svg><svg fill="none" viewBox="0 0 25 25" id="economy" xmlns="http://www.w3.org/2000/svg"><path d="M8.057 16.21c-.39 0-.733-.364-.733-.78 0-.307.194-.584.482-.689.376-.137.814.049 1.201.51a.733.733 0 001.122-.942c-.396-.471-.857-.796-1.34-.958V12.5a.732.732 0 00-1.465 0v.858l-.02.007A2.204 2.204 0 005.86 15.43c0 .583.225 1.14.632 1.566.42.438.975.68 1.566.68a.733.733 0 01.285 1.407c-.328.14-.72.02-1.077-.325a.733.733 0 00-1.02 1.052c.331.32.699.547 1.08.675v.853a.732.732 0 001.464 0v-.858a2.193 2.193 0 001.465-2.072 2.2 2.2 0 00-2.197-2.197z" fill="#fff"/><path d="M22.607.92C21.26.327 19.49 0 17.627 0c-3.813 0-7.324 1.4-7.324 3.662v5.495a8.024 8.024 0 00-2.246-.32 7.97 7.97 0 00-5.697 2.39A8.076 8.076 0 000 16.943C0 21.386 3.614 25 8.057 25a8.056 8.056 0 004.153-1.144c1.362.73 3.303 1.144 5.417 1.144 1.863 0 3.632-.327 4.98-.92C24.15 23.4 25 22.427 25 21.338V3.662c0-1.09-.85-2.063-2.393-2.742zM8.057 23.535a6.6 6.6 0 01-6.592-6.592c0-3.661 2.957-6.64 6.592-6.64a6.648 6.648 0 016.64 6.64c0 3.635-2.979 6.592-6.64 6.592zm15.478-2.197c0 .896-2.302 2.197-5.908 2.197-1.534 0-2.984-.246-4.083-.677a8.112 8.112 0 001.815-2.423c.727.113 1.487.17 2.268.17 1.926 0 4.314-.374 5.908-1.416v2.149zm0-4.395c0 .896-2.302 2.198-5.908 2.198-.598 0-1.18-.038-1.741-.11a7.99 7.99 0 00.23-2.943c.494.049.999.074 1.511.074 1.926 0 4.314-.374 5.908-1.417v2.198zm0-4.443c0 .896-2.302 2.197-5.908 2.197-.623 0-1.233-.04-1.82-.12a8.116 8.116 0 00-1.998-3.318c1.132.33 2.448.509 3.818.509 1.926 0 4.314-.375 5.908-1.417V12.5zm0-4.395c0 .896-2.302 2.198-5.908 2.198-1.66 0-3.21-.283-4.364-.795-.922-.41-1.495-.948-1.495-1.403V5.918c1.585 1.04 3.953 1.406 5.859 1.406 1.926 0 4.314-.374 5.908-1.417v2.198zM17.627 5.86c-3.578 0-5.86-1.282-5.86-2.197 0-.918 2.289-2.197 5.86-2.197 3.607 0 5.908 1.301 5.908 2.197 0 .896-2.302 2.197-5.908 2.197z" fill="#fff"/></svg><svg fill="none" viewBox="0 0 25 21" id="email" xmlns="http://www.w3.org/2000/svg"><path d="M22.803.979H2.197A2.2 2.2 0 000 3.176v14.648a2.2 2.2 0 002.197 2.197h20.606A2.2 2.2 0 0025 17.825V3.176A2.2 2.2 0 0022.803.979zm-.304 1.464l-9.952 9.953-10.04-9.953H22.5zM1.465 17.521V3.472l7.054 6.994-7.054 7.055zM2.5 18.557l7.059-7.06 2.473 2.453a.732.732 0 001.034-.002l2.412-2.412 7.02 7.02H2.501zm21.034-1.036l-7.02-7.021 7.02-7.02v14.04z" fill="#fff"/></svg><svg fill="none" viewBox="0 0 21 25" id="experience" xmlns="http://www.w3.org/2000/svg"><path d="M5.031 15.43H1.125a.977.977 0 00-.977.977v7.617c0 .54.438.976.977.976h3.906c.54 0 .977-.437.977-.976v-7.617a.977.977 0 00-.977-.977zm-.976 7.617H2.102v-5.664h1.953v5.664zm15.82-15.429h-3.906a.977.977 0 00-.977.976v15.43c0 .54.437.976.977.976h3.906c.54 0 .977-.437.977-.976V8.594a.977.977 0 00-.977-.976zm-.977 15.43h-1.953V9.57h1.953v13.476zm-6.445-11.524H8.547a.977.977 0 00-.977.977v11.523c0 .54.438.976.977.976h3.906c.54 0 .977-.437.977-.976V12.5a.977.977 0 00-.977-.976zm-.976 11.523H9.523v-9.57h1.954v9.57zM13.723 0h-3.711a.977.977 0 100 1.954h1.353l-8.281 8.28a.977.977 0 101.38 1.382l8.282-8.281v1.353a.977.977 0 101.953 0V.978A.98.98 0 0013.723 0z" fill="#fff"/></svg><svg fill="none" viewBox="0 0 15 25" id="fb" xmlns="http://www.w3.org/2000/svg"><path d="M9.16 24.951H5.157a1.214 1.214 0 01-1.213-1.213v-9.03H1.608a1.214 1.214 0 01-1.212-1.212v-3.87c0-.669.543-1.212 1.212-1.212h2.336V6.476c0-1.921.603-3.556 1.744-4.727C6.835.573 8.437-.049 10.321-.049l3.053.005a1.214 1.214 0 011.211 1.213v3.593c0 .668-.544 1.212-1.212 1.212l-2.056.001c-.627 0-.787.126-.82.164-.057.064-.124.245-.124.743v1.531h2.845a1.217 1.217 0 011.224 1.213l-.001 3.87c0 .668-.544 1.212-1.213 1.212h-2.855v9.03c0 .67-.544 1.213-1.213 1.213zm-3.75-1.465h3.497v-9.434a.81.81 0 01.81-.81h3.258l.001-3.363h-3.26a.81.81 0 01-.809-.81V6.882c0-.572.058-1.223.49-1.713.523-.591 1.346-.66 1.92-.66h1.802V1.42l-2.799-.004c-3.028 0-4.91 1.938-4.91 5.059v2.593a.81.81 0 01-.81.81H1.861v3.364h2.74a.81.81 0 01.809.81v9.433zm7.962-22.064z" fill="#BACFF8"/></svg><svg fill="none" viewBox="0 0 12 24" id="fb-fill" xmlns="http://www.w3.org/2000/svg"><path d="M7.5 8.25v-3A1.5 1.5 0 019 3.75h1.5V0h-3A4.5 4.5 0 003 4.5v3.75H0V12h3v12h4.5V12h3L12 8.25H7.5z" fill="#7EB5F9"/></svg><svg fill="none" viewBox="0 0 20 20" id="filter" xmlns="http://www.w3.org/2000/svg"><path d="M19.218 1.83H7.302C6.975.766 6.054 0 4.972 0S2.97.767 2.642 1.83H.782C.35 1.83 0 2.211 0 2.682c0 .472.35.854.782.854h1.86c.328 1.062 1.248 1.83 2.33 1.83s2.003-.768 2.33-1.83h11.916c.432 0 .782-.382.782-.854 0-.471-.35-.854-.782-.854zM4.972 3.657c-.493 0-.893-.437-.893-.975s.4-.975.893-.975.894.437.894.975-.401.975-.894.975zm14.246 5.489h-1.86c-.328-1.062-1.248-1.83-2.33-1.83s-2.002.768-2.33 1.83H.782C.35 9.146 0 9.528 0 10s.35.854.782.854h11.916c.328 1.062 1.248 1.83 2.33 1.83s2.002-.768 2.33-1.83h1.86c.432 0 .782-.382.782-.854s-.35-.854-.782-.854zm-4.19 1.83c-.493 0-.894-.438-.894-.976s.401-.975.894-.975.894.437.894.975-.401.975-.894.975zm4.19 5.486h-8.564c-.328-1.061-1.248-1.829-2.33-1.829s-2.002.768-2.33 1.83H.782c-.432 0-.782.382-.782.854 0 .471.35.853.782.853h5.212C6.322 19.232 7.242 20 8.324 20s2.002-.768 2.33-1.83h8.564c.432 0 .782-.382.782-.854 0-.471-.35-.854-.782-.854zm-10.894 1.83c-.493 0-.893-.438-.893-.976 0-.537.4-.975.893-.975s.894.438.894.976c0 .537-.401.975-.894.975z" fill="#fff"/></svg><svg fill="none" viewBox="0 0 20 20" id="home" xmlns="http://www.w3.org/2000/svg"><path d="M16.64 19.375H3.36a1.8 1.8 0 01-1.798-1.797V8.124a.625.625 0 011.25 0v9.454c0 .301.246.547.547.547h13.282a.547.547 0 00.546-.547V8.124a.625.625 0 011.25 0v9.454a1.8 1.8 0 01-1.796 1.797z" fill="#fff"/><path d="M19.375 10.311a.623.623 0 01-.442-.183L11.16 2.355c-.64-.64-1.68-.64-2.32 0l-7.773 7.773a.625.625 0 11-.884-.884l7.773-7.773a2.894 2.894 0 014.088 0l7.773 7.773a.625.625 0 01-.442 1.067zM12.5 19.375h-5a.625.625 0 01-.625-.625v-5.547c0-1.077.876-1.953 1.953-1.953h2.344c1.077 0 1.953.876 1.953 1.953v5.547c0 .345-.28.625-.625.625zm-4.375-1.25h3.75v-4.922a.704.704 0 00-.703-.703H8.828a.704.704 0 00-.703.703v4.922z" fill="#fff"/></svg><svg fill="none" viewBox="0 0 25 25" id="insta" xmlns="http://www.w3.org/2000/svg"><path d="M18.233 0H6.767A6.775 6.775 0 000 6.767v11.466A6.775 6.775 0 006.767 25h11.466A6.775 6.775 0 0025 18.233V6.767A6.775 6.775 0 0018.233 0zm5.301 18.233a5.307 5.307 0 01-5.301 5.301H6.767a5.308 5.308 0 01-5.301-5.301V6.767a5.308 5.308 0 015.301-5.301h11.466a5.308 5.308 0 015.301 5.301v11.466z" fill="#BACFF8"/><path d="M12.5 5.664A6.843 6.843 0 005.664 12.5a6.843 6.843 0 006.836 6.836 6.843 6.843 0 006.836-6.836A6.843 6.843 0 0012.5 5.664zm0 12.206a5.376 5.376 0 01-5.37-5.37 5.376 5.376 0 015.37-5.37 5.376 5.376 0 015.37 5.37 5.376 5.376 0 01-5.37 5.37zm7-14.633c-1.115 0-2.02.906-2.02 2.02 0 1.113.905 2.02 2.02 2.02 1.113 0 2.02-.907 2.02-2.02 0-1.114-.907-2.02-2.02-2.02zm0 2.574a.555.555 0 110-1.11.555.555 0 010 1.11z" fill="#BACFF8"/></svg><svg fill="none" viewBox="0 0 22 22" id="insta-fill" xmlns="http://www.w3.org/2000/svg"><path d="M16.045 0H5.955A5.962 5.962 0 000 5.955v10.09A5.962 5.962 0 005.955 22h10.09A5.962 5.962 0 0022 16.045V5.955A5.962 5.962 0 0016.045 0zM11 17.015A6.022 6.022 0 014.985 11 6.022 6.022 0 0111 4.985 6.022 6.022 0 0117.015 11 6.022 6.022 0 0111 17.015zm6.16-10.612a1.78 1.78 0 01-1.778-1.777c0-.98.797-1.778 1.777-1.778.98 0 1.778.797 1.778 1.778a1.78 1.78 0 01-1.778 1.777z" fill="#7EB5F9"/><path d="M11 6.274A4.731 4.731 0 006.274 11 4.731 4.731 0 0011 15.726 4.731 4.731 0 0015.726 11 4.731 4.731 0 0011 6.274zm6.16-2.136a.488.488 0 100 .977.488.488 0 000-.977z" fill="#7EB5F9"/></svg><svg fill="none" viewBox="0 0 21 25" id="locate" xmlns="http://www.w3.org/2000/svg"><path d="M19.56 6.551c-.89-2.88-3.206-5.214-6.042-6.092-3.02-.935-6.167-.427-8.636 1.393a9.676 9.676 0 00-2.84 3.326A9.595 9.595 0 00.979 9.566c0 2.078.657 4.052 1.9 5.71L10.501 25l7.614-9.712.01-.012c1.86-2.48 2.384-5.661 1.435-8.725zm-2.603 7.84l-6.456 8.235-6.455-8.235a7.99 7.99 0 01-1.603-4.825A8.153 8.153 0 015.75 3.031c2.09-1.54 4.764-1.968 7.334-1.172 2.38.737 4.325 2.7 5.076 5.125.807 2.608.368 5.307-1.204 7.407z" fill="#1156DE"/><path d="M10.501 4.438a5.134 5.134 0 00-5.128 5.128c0 2.828 2.3 5.129 5.128 5.129a5.134 5.134 0 005.128-5.129c0-2.827-2.3-5.128-5.128-5.128zm0 8.791a3.667 3.667 0 01-3.663-3.663 3.667 3.667 0 013.663-3.663 3.667 3.667 0 013.663 3.663 3.667 3.667 0 01-3.663 3.663z" fill="#1156DE"/></svg><svg fill="none" viewBox="0 0 18 25" id="phone" xmlns="http://www.w3.org/2000/svg"><path fill-rule="evenodd" clip-rule="evenodd" d="M15 2H3a1 1 0 00-1 1v18.925a1 1 0 001 1h12a1 1 0 001-1V3a1 1 0 00-1-1zM3 0a3 3 0 00-3 3v18.925a3 3 0 003 3h12a3 3 0 003-3V3a3 3 0 00-3-3H3z" fill="#fff"/><path fill-rule="evenodd" clip-rule="evenodd" d="M13 2.114H5c0 1.062.861 1.923 1.923 1.923h4.154A1.923 1.923 0 0013 2.114z" fill="#fff"/></svg><svg viewBox="0 0 20.46 25" id="professionalizm" xmlns="http://www.w3.org/2000/svg"><defs><style>.atcls-1{fill:#fff}</style></defs><g id="atLayer_2" data-name="Layer 2"><g id="atLayer_1-2" data-name="Layer 1"><path class="atcls-1" d="M5.39 7.84a1.65 1.65 0 00.37.82c.37 2.52 2.59 4.68 4.42 4.68h.12c2.35-.11 4-2.65 4.4-4.67a2 2 0 00.4-.9 2.16 2.16 0 00-.1-1.54l-.14-.13c.26-1 .84-2.67-.61-4.2A6.76 6.76 0 0011.42.32 5.68 5.68 0 009.6 0a4.4 4.4 0 00-4.1 3 4.66 4.66 0 000 3.12.57.57 0 00-.14.13c-.25.35-.07 1.13.03 1.59zm1.34-2.08a3.6 3.6 0 01-.08-2.3A3.18 3.18 0 019.6 1.25a4.73 4.73 0 011.4.25 5.7 5.7 0 012.35 1.26c.83.87.66 1.76.35 2.85v.15l-.2.75.47.43a2.48 2.48 0 01-.07.54 1.6 1.6 0 01-.12.36l-.22.22-.07.37c-.27 1.48-1.55 3.57-3.24 3.65h-.05c-1.2.01-2.93-1.69-3.2-3.6v-.36l-.28-.29a1.22 1.22 0 01-.09-.29A5.27 5.27 0 016.49 7L7 6.63z"/><path class="atcls-1" d="M20.46 22c-.09-1.77-.19-4.58-1.73-6.87a3.33 3.33 0 00-1.49-1 19.47 19.47 0 01-3.51-1.62l-.28.5.05 3.11-2.87 7.65a.43.43 0 01-.8 0L7 16.11V13c0-.07-.29-.5-.29-.5a19.16 19.16 0 01-3.51 1.62 3.33 3.33 0 00-1.48 1C.19 17.41.09 20.22 0 22c0 1.21.21 1.67.53 1.8 2 .8 5.85 1.2 9.7 1.2s7.7-.4 9.7-1.2c.33-.13.58-.59.53-1.8zm-19.18.75a3.35 3.35 0 010-.7V22c.08-1.65.19-4.13 1.48-6.09a2.45 2.45 0 01.9-.57c.16 0 1.12-.4 2.1-.84v1.87l.08.23 2.69 7.17a27.26 27.26 0 01-7.25-1.03zm17.91 0a27.34 27.34 0 01-7.21 1l2.69-7.17.08-.23v-1.87c1 .44 1.93.78 2.08.83a2.51 2.51 0 01.92.58 11.91 11.91 0 011.48 6.08V22a4.27 4.27 0 01-.04.74z"/><path class="atcls-1" d="M10.34 14.32h-.13A3.94 3.94 0 019 14.1l1.14 1.74-1 1 1.05 6.38a.11.11 0 00.22 0l1.05-6.38-1-1 1.12-1.71a4.77 4.77 0 01-1.24.19z"/></g></g></svg><svg fill="none" viewBox="0 0 30 30" id="quote" xmlns="http://www.w3.org/2000/svg"><path d="M0 15v12.857h12.857V15H4.286c0-4.726 3.845-8.572 8.571-8.572V2.143C5.767 2.143 0 7.91 0 15zm30-8.572V2.143C22.91 2.143 17.143 7.91 17.143 15v12.857H30V15h-8.572c0-4.726 3.846-8.572 8.572-8.572z" fill="#fff" fill-opacity=".5"/></svg><svg fill="none" viewBox="0 0 50 50" id="search" xmlns="http://www.w3.org/2000/svg"><g opacity=".25" clip-path="url(#avclip0)"><path fill-rule="evenodd" clip-rule="evenodd" d="M22.019 0C9.878 0 0 9.878 0 22.019 0 34.16 9.878 44.038 22.019 44.038a21.92 21.92 0 0014.06-5.086l10.452 10.452c.397.397.917.595 1.437.595s1.04-.198 1.437-.595a2.031 2.031 0 000-2.874L38.953 36.078a21.92 21.92 0 005.085-14.06C44.038 9.879 34.16 0 22.018 0zm0 39.973c-9.9 0-17.954-8.054-17.954-17.954S12.119 4.065 22.019 4.065s17.954 8.054 17.954 17.954-8.054 17.954-17.954 17.954zM23 16a1 1 0 10-2 0v5h-5a1 1 0 100 2h5v5a1 1 0 102 0v-5h5a1 1 0 100-2h-5v-5z" fill="#7EB5F9"/></g><defs><clipPath id="avclip0"><path fill="#fff" d="M0 0h50v50H0z"/></clipPath></defs></svg><svg fill="none" viewBox="0 0 65 65" id="serv-cond" xmlns="http://www.w3.org/2000/svg"><path fill-rule="evenodd" clip-rule="evenodd" d="M0 .97A.97.97 0 01.97 0h63.058a.97.97 0 01.97.97v29.427a5.173 5.173 0 01-5.174 5.174H5.174A5.173 5.173 0 010 30.397V.97zm1.94.97v28.457a3.233 3.233 0 003.234 3.234h54.65a3.233 3.233 0 003.234-3.234V1.94H1.94zm46.404 7.438a.97.97 0 01.97-.97h8.408a.97.97 0 110 1.94h-8.408a.97.97 0 01-.97-.97zM6.306 15.684a.97.97 0 01.97-.97h50.446a.97.97 0 110 1.94H7.276a.97.97 0 01-.97-.97zm0 6.305a.97.97 0 01.97-.97h50.446a.97.97 0 010 1.94H7.276a.97.97 0 01-.97-.97zm0 6.306a.97.97 0 01.97-.97h50.446a.97.97 0 110 1.94H7.276a.97.97 0 01-.97-.97zm6.595 9.538a.97.97 0 01.97.97c0 1.947-.925 2.971-1.654 3.779l-.017.02c-.69.763-1.171 1.313-1.171 2.5s.482 1.737 1.171 2.501l.017.02c.73.807 1.654 1.832 1.654 3.78 0 1.952-.924 2.978-1.654 3.788l-.016.019c-.69.765-1.172 1.316-1.172 2.506 0 1.19.483 1.742 1.172 2.507l.017.02c.729.81 1.653 1.835 1.653 3.785a.97.97 0 11-1.94 0c0-1.19-.483-1.74-1.172-2.506l-.017-.019c-.73-.81-1.653-1.836-1.653-3.787 0-1.95.923-2.976 1.652-3.785l.018-.02c.689-.765 1.171-1.317 1.171-2.507 0-1.187-.481-1.737-1.17-2.501l-.018-.02c-.729-.808-1.653-1.832-1.653-3.78 0-1.95.925-2.975 1.654-3.783l.016-.018c.69-.764 1.171-1.314 1.171-2.5a.97.97 0 01.97-.97zm14.713.002a.97.97 0 01.97.97c0 1.949-.925 2.973-1.654 3.782l-.017.018c-.689.764-1.17 1.314-1.17 2.5s.481 1.736 1.17 2.5l.018.02c.729.807 1.653 1.832 1.653 3.78 0 1.95-.924 2.976-1.653 3.786l-.017.02c-.689.764-1.172 1.316-1.172 2.507 0 1.19.483 1.74 1.172 2.506l.017.018c.73.81 1.653 1.836 1.653 3.788a.97.97 0 11-1.94 0c0-1.191-.483-1.743-1.172-2.508l-.017-.019c-.73-.81-1.653-1.835-1.653-3.785 0-1.952.924-2.978 1.654-3.788l.016-.018c.69-.766 1.172-1.317 1.172-2.506 0-1.187-.482-1.737-1.171-2.501l-.017-.02c-.73-.807-1.654-1.832-1.654-3.78 0-1.948.925-2.972 1.653-3.78l.018-.02c.69-.764 1.171-1.313 1.171-2.5a.97.97 0 01.97-.97zm14.713 0a.97.97 0 01.97.97c0 1.949-.924 2.973-1.653 3.782l-.017.018c-.69.764-1.171 1.314-1.171 2.5s.482 1.736 1.171 2.5l.017.02c.73.807 1.654 1.832 1.654 3.78 0 1.95-.924 2.976-1.653 3.786l-.017.02c-.69.764-1.172 1.316-1.172 2.507 0 1.19.482 1.74 1.172 2.506l.016.018c.73.81 1.654 1.836 1.654 3.788a.97.97 0 01-1.94 0c0-1.191-.483-1.743-1.172-2.508l-.018-.019c-.729-.81-1.652-1.835-1.652-3.785 0-1.952.924-2.978 1.653-3.788l.017-.018c.689-.766 1.171-1.317 1.171-2.506 0-1.187-.481-1.737-1.17-2.501l-.018-.02c-.729-.807-1.653-1.832-1.653-3.78 0-1.948.924-2.972 1.653-3.78l.017-.02c.69-.764 1.171-1.313 1.171-2.5a.97.97 0 01.97-.97zm14.714 0a.97.97 0 01.97.97c0 1.949-.925 2.973-1.654 3.782l-.017.018c-.69.764-1.17 1.314-1.17 2.5s.481 1.736 1.17 2.5l.018.02c.729.807 1.653 1.832 1.653 3.78 0 1.95-.924 2.976-1.653 3.786l-.017.02c-.689.764-1.172 1.316-1.172 2.507 0 1.19.483 1.74 1.172 2.506l.017.018c.729.81 1.653 1.836 1.653 3.788a.97.97 0 11-1.94 0c0-1.191-.483-1.743-1.172-2.508l-.017-.019c-.73-.81-1.653-1.835-1.653-3.785 0-1.952.924-2.978 1.654-3.788l.016-.018c.69-.766 1.172-1.317 1.172-2.506 0-1.187-.482-1.737-1.171-2.501l-.017-.02c-.73-.807-1.654-1.832-1.654-3.78 0-1.948.924-2.972 1.653-3.78l.018-.02c.689-.764 1.17-1.313 1.17-2.5a.97.97 0 01.971-.97z" fill="#126EB9"/></svg><svg fill="none" viewBox="0 0 65 65" id="serv-dry-clean" xmlns="http://www.w3.org/2000/svg"><path fill-rule="evenodd" clip-rule="evenodd" d="M6.507 2.564c-.591.417-1.146.971-1.727 1.552l-.038.039c-.548.548-1.21 1.21-1.948 1.732-.76.538-1.698.995-2.794.995v-1.94c.505 0 1.031-.21 1.617-.623.591-.418 1.147-.972 1.727-1.553l.038-.039C3.93 2.18 4.592 1.517 5.33.995 6.09.458 7.028 0 8.124 0s2.033.458 2.794.995c.739.522 1.4 1.184 1.948 1.732l.039.04c.58.58 1.135 1.134 1.726 1.552.586.413 1.112.623 1.617.623.505 0 1.032-.21 1.618-.623.59-.418 1.146-.972 1.726-1.553l.039-.039c.547-.548 1.209-1.21 1.947-1.732C22.34.458 23.277 0 24.373 0c1.095 0 2.033.458 2.794.995.738.522 1.4 1.184 1.947 1.732l.039.04c.58.58 1.135 1.134 1.727 1.552.585.413 1.112.623 1.617.623.505 0 1.031-.21 1.617-.623.591-.418 1.146-.972 1.727-1.553l.038-.039c.548-.548 1.21-1.21 1.948-1.732C38.587.458 39.525 0 40.62 0s2.033.458 2.794.995c.739.522 1.4 1.184 1.948 1.732l.038.04c.58.58 1.136 1.134 1.727 1.552.586.413 1.112.623 1.617.623.505 0 1.031-.21 1.617-.623.591-.418 1.147-.972 1.727-1.553l.039-.039c.547-.548 1.209-1.21 1.947-1.732C54.836.458 55.773 0 56.869 0c1.1 0 2.026.46 2.775 1 .683.493 1.301 1.113 1.822 1.637l.13.129c.572.573 1.144 1.13 1.748 1.547.603.416 1.147.629 1.656.629v1.94c-1.092 0-2.042-.454-2.816-.989-.773-.534-1.462-1.213-2.025-1.777l-.106-.106c-.548-.549-1.056-1.06-1.601-1.452-.57-.41-1.081-.618-1.583-.618-.505 0-1.031.21-1.617.624-.591.417-1.146.971-1.727 1.552l-.038.039c-.548.548-1.21 1.21-1.948 1.732-.76.538-1.698.995-2.794.995s-2.033-.457-2.794-.995c-.739-.521-1.4-1.184-1.948-1.732l-.038-.039c-.58-.58-1.136-1.135-1.727-1.552-.586-.414-1.112-.624-1.617-.624-.505 0-1.031.21-1.617.624-.591.417-1.147.971-1.727 1.552l-.038.039c-.548.548-1.21 1.21-1.948 1.732-.761.538-1.698.995-2.794.995s-2.033-.457-2.794-.995c-.739-.521-1.4-1.184-1.948-1.732l-.038-.039c-.58-.58-1.136-1.135-1.727-1.552-.586-.414-1.112-.624-1.617-.624-.506 0-1.032.21-1.618.624-.59.417-1.146.971-1.726 1.552l-.039.039c-.547.548-1.209 1.21-1.947 1.732-.761.538-1.699.995-2.795.995-1.096 0-2.033-.457-2.794-.995-.738-.521-1.4-1.184-1.947-1.732l-.039-.039c-.58-.58-1.135-1.135-1.727-1.552-.586-.414-1.112-.624-1.617-.624-.505 0-1.031.21-1.617.624zM5.33 15.82c.761-.537 1.698-.995 2.794-.995s2.033.457 2.794.995c.739.522 1.4 1.184 1.948 1.732l.039.039c.58.581 1.135 1.135 1.726 1.553.586.413 1.112.623 1.617.623.505 0 1.032-.21 1.618-.623.59-.418 1.146-.972 1.726-1.553l.039-.039c.547-.548 1.209-1.21 1.947-1.732.761-.537 1.699-.995 2.795-.995 1.095 0 2.033.457 2.794.995.738.522 1.4 1.184 1.947 1.732l.039.039c.58.581 1.135 1.135 1.727 1.553.585.413 1.112.623 1.617.623.505 0 1.031-.21 1.617-.623.591-.418 1.146-.972 1.727-1.553l.038-.039c.548-.548 1.21-1.21 1.948-1.732.76-.537 1.698-.995 2.794-.995s2.033.457 2.794.995c.739.522 1.4 1.184 1.948 1.732l.038.039c.58.581 1.136 1.135 1.727 1.553.586.413 1.112.623 1.617.623.505 0 1.031-.21 1.617-.623.591-.418 1.147-.972 1.727-1.553l.039-.039c.547-.548 1.209-1.21 1.947-1.732.761-.537 1.698-.995 2.794-.995 1.1 0 2.026.46 2.775 1 .683.493 1.301 1.113 1.822 1.637l.13.129c.572.573 1.144 1.13 1.748 1.547.603.416 1.147.629 1.656.629v1.94c-1.092 0-2.042-.454-2.816-.989-.773-.534-1.462-1.213-2.025-1.777l-.106-.106c-.548-.55-1.056-1.06-1.601-1.452-.57-.41-1.081-.618-1.583-.618-.505 0-1.031.21-1.617.624-.591.417-1.146.971-1.727 1.552l-.038.039c-.548.548-1.21 1.21-1.948 1.732-.76.538-1.698.995-2.794.995s-2.033-.457-2.794-.995c-.739-.521-1.4-1.184-1.948-1.732l-.038-.039c-.58-.58-1.136-1.135-1.727-1.552-.586-.414-1.112-.624-1.617-.624-.505 0-1.031.21-1.617.624-.591.417-1.147.971-1.727 1.552l-.038.039c-.548.548-1.21 1.21-1.948 1.732-.761.538-1.698.995-2.794.995s-2.033-.457-2.794-.995c-.739-.521-1.4-1.184-1.948-1.732l-.038-.039c-.58-.58-1.136-1.135-1.727-1.552-.586-.414-1.112-.624-1.617-.624-.506 0-1.032.21-1.618.624-.59.417-1.146.971-1.726 1.552l-.039.039c-.547.548-1.209 1.21-1.947 1.732-.761.538-1.699.995-2.795.995-1.096 0-2.033-.457-2.794-.995-.738-.521-1.4-1.184-1.947-1.732l-.039-.039c-.58-.58-1.135-1.135-1.727-1.552-.586-.414-1.112-.624-1.617-.624-.505 0-1.031.21-1.617.624-.591.417-1.146.971-1.727 1.552l-.038.039c-.548.548-1.21 1.21-1.948 1.732-.76.538-1.698.995-2.794.995v-1.94c.505 0 1.031-.21 1.617-.623.591-.418 1.147-.972 1.727-1.553l.038-.039c.548-.548 1.21-1.21 1.948-1.732zm0 14.826c.761-.538 1.698-.995 2.794-.995s2.033.457 2.794.995c.739.521 1.4 1.184 1.948 1.732l.039.039c.58.581 1.135 1.135 1.726 1.553.586.413 1.112.623 1.617.623.505 0 1.032-.21 1.618-.623.59-.418 1.146-.972 1.726-1.553l.039-.039c.547-.548 1.209-1.21 1.947-1.732.761-.538 1.699-.995 2.795-.995 1.095 0 2.033.457 2.794.995.738.521 1.4 1.184 1.947 1.732l.039.039c.58.581 1.135 1.135 1.727 1.553.585.413 1.112.623 1.617.623.505 0 1.031-.21 1.617-.623.591-.418 1.146-.972 1.727-1.553l.038-.039c.548-.548 1.21-1.21 1.948-1.732.76-.538 1.698-.995 2.794-.995s2.033.457 2.794.995c.739.521 1.4 1.184 1.948 1.732l.038.039c.58.581 1.136 1.135 1.727 1.553.586.413 1.112.623 1.617.623.505 0 1.031-.21 1.617-.623.591-.418 1.147-.972 1.727-1.553l.039-.039c.547-.548 1.209-1.21 1.947-1.732.761-.538 1.698-.995 2.794-.995 1.1 0 2.026.46 2.775 1 .683.492 1.301 1.113 1.822 1.636l.13.13c.572.573 1.144 1.129 1.748 1.547.603.416 1.147.629 1.656.629v1.94c-1.092 0-2.042-.454-2.816-.989-.773-.534-1.462-1.213-2.025-1.777l-.106-.106c-.548-.55-1.056-1.06-1.601-1.452-.57-.411-1.081-.618-1.583-.618-.505 0-1.031.21-1.617.624-.591.417-1.146.971-1.727 1.552l-.038.039c-.548.548-1.21 1.21-1.948 1.732-.76.538-1.698.995-2.794.995s-2.033-.457-2.794-.995c-.739-.521-1.4-1.184-1.948-1.732l-.038-.039c-.58-.581-1.136-1.135-1.727-1.552-.586-.414-1.112-.624-1.617-.624-.505 0-1.031.21-1.617.624-.591.417-1.147.971-1.727 1.552l-.038.039c-.548.548-1.21 1.21-1.948 1.732-.761.538-1.698.995-2.794.995s-2.033-.457-2.794-.995c-.739-.521-1.4-1.184-1.948-1.732l-.038-.039c-.58-.581-1.136-1.135-1.727-1.552-.586-.414-1.112-.624-1.617-.624-.506 0-1.032.21-1.618.624-.59.417-1.146.971-1.726 1.552l-.039.039c-.547.548-1.209 1.21-1.947 1.732-.761.538-1.699.995-2.795.995-1.096 0-2.033-.457-2.794-.995-.738-.521-1.4-1.184-1.947-1.732l-.039-.039c-.58-.581-1.135-1.135-1.727-1.552-.586-.414-1.112-.624-1.617-.624-.505 0-1.031.21-1.617.624-.591.417-1.146.971-1.727 1.552l-.038.039c-.548.548-1.21 1.21-1.948 1.732-.76.538-1.698.995-2.794.995v-1.94c.505 0 1.031-.21 1.617-.623.591-.418 1.147-.972 1.727-1.553l.038-.039c.548-.548 1.21-1.21 1.948-1.732zm0 14.826c.761-.538 1.698-.995 2.794-.995s2.033.457 2.794.995c.739.521 1.4 1.184 1.948 1.732l.039.039c.58.581 1.135 1.135 1.726 1.552.586.414 1.112.624 1.617.624.505 0 1.032-.21 1.618-.624.59-.417 1.146-.971 1.726-1.552l.039-.039c.547-.548 1.209-1.21 1.947-1.732.761-.538 1.699-.995 2.795-.995 1.095 0 2.033.457 2.794.995.738.521 1.4 1.184 1.947 1.732l.039.039c.58.581 1.135 1.135 1.727 1.552.585.414 1.112.624 1.617.624.505 0 1.031-.21 1.617-.624.591-.417 1.146-.971 1.727-1.552l.038-.039c.548-.548 1.21-1.21 1.948-1.732.76-.538 1.698-.995 2.794-.995s2.033.457 2.794.995c.739.521 1.4 1.184 1.948 1.732l.038.039c.58.581 1.136 1.135 1.727 1.552.586.414 1.112.624 1.617.624.505 0 1.031-.21 1.617-.624.591-.417 1.147-.971 1.727-1.552l.039-.039c.547-.548 1.209-1.21 1.947-1.732.761-.538 1.698-.995 2.794-.995 1.1 0 2.026.46 2.775 1 .683.492 1.301 1.113 1.822 1.636l.13.13c.572.573 1.144 1.129 1.748 1.546.603.417 1.147.63 1.656.63v1.94c-1.092 0-2.042-.454-2.816-.989-.773-.534-1.462-1.213-2.025-1.777l-.106-.107c-.548-.548-1.056-1.058-1.601-1.451-.57-.411-1.081-.618-1.583-.618-.505 0-1.031.21-1.617.624-.591.417-1.146.971-1.727 1.552l-.038.039c-.548.548-1.21 1.21-1.948 1.732-.76.538-1.698.995-2.794.995s-2.033-.457-2.794-.995c-.739-.521-1.4-1.184-1.948-1.732l-.038-.039c-.58-.581-1.136-1.135-1.727-1.552-.586-.414-1.112-.624-1.617-.624-.505 0-1.031.21-1.617.624-.591.417-1.147.971-1.727 1.552l-.038.039c-.548.548-1.21 1.21-1.948 1.732-.761.538-1.698.995-2.794.995s-2.033-.457-2.794-.995c-.739-.521-1.4-1.184-1.948-1.732l-.038-.039c-.58-.581-1.136-1.135-1.727-1.552-.586-.414-1.112-.624-1.617-.624-.506 0-1.032.21-1.618.624-.59.417-1.146.971-1.726 1.552l-.039.039c-.547.548-1.209 1.21-1.947 1.732-.761.538-1.699.995-2.795.995-1.096 0-2.033-.457-2.794-.995-.738-.521-1.4-1.184-1.947-1.732l-.039-.039c-.58-.581-1.135-1.135-1.727-1.552-.586-.414-1.112-.624-1.617-.624-.505 0-1.031.21-1.617.624-.591.417-1.146.971-1.727 1.552l-.038.039c-.548.548-1.21 1.21-1.948 1.732-.76.538-1.698.995-2.794.995v-1.94c.505 0 1.031-.21 1.617-.624.591-.417 1.147-.971 1.727-1.552l.038-.039c.548-.548 1.21-1.21 1.948-1.732zm0 13.64c.761-.538 1.698-.995 2.794-.995s2.033.457 2.794.995c.739.521 1.4 1.184 1.948 1.732l.039.039c.58.58 1.135 1.135 1.726 1.552.586.414 1.112.624 1.617.624.505 0 1.032-.21 1.617-.624.592-.417 1.147-.971 1.727-1.552l.039-.039c.547-.548 1.209-1.21 1.947-1.732.761-.538 1.699-.995 2.795-.995 1.095 0 2.033.457 2.794.995.738.521 1.4 1.184 1.947 1.732l.039.039c.58.58 1.135 1.135 1.727 1.552.585.414 1.112.624 1.617.624.505 0 1.031-.21 1.617-.624.591-.417 1.146-.971 1.727-1.552l.038-.039c.548-.548 1.21-1.21 1.948-1.732.76-.538 1.698-.995 2.794-.995s2.033.457 2.794.995c.739.521 1.4 1.184 1.948 1.732l.038.039c.58.58 1.136 1.135 1.727 1.552.586.414 1.112.624 1.617.624.505 0 1.031-.21 1.617-.624.591-.417 1.147-.971 1.727-1.552l.038-.039c.548-.548 1.21-1.21 1.948-1.732.761-.538 1.698-.995 2.794-.995 1.1 0 2.026.46 2.775 1 .683.492 1.301 1.113 1.822 1.636l.13.13c.572.573 1.144 1.129 1.748 1.546.603.417 1.147.63 1.656.63V65c-1.092 0-2.042-.454-2.816-.99-.773-.533-1.462-1.212-2.025-1.776l-.106-.107c-.548-.548-1.056-1.058-1.601-1.451-.57-.411-1.081-.618-1.583-.618-.505 0-1.031.21-1.617.623-.591.418-1.146.972-1.727 1.553l-.038.038c-.548.549-1.21 1.211-1.948 1.733-.76.538-1.698.995-2.794.995s-2.033-.457-2.794-.995c-.739-.522-1.4-1.184-1.948-1.732l-.038-.04c-.58-.58-1.136-1.134-1.727-1.552-.586-.413-1.112-.623-1.617-.623-.505 0-1.031.21-1.617.623-.591.418-1.147.972-1.727 1.553l-.038.038c-.548.549-1.21 1.211-1.948 1.733-.761.538-1.698.995-2.794.995s-2.033-.457-2.794-.995c-.739-.521-1.4-1.184-1.948-1.732l-.038-.04c-.58-.58-1.136-1.134-1.727-1.552-.586-.413-1.112-.623-1.617-.623-.506 0-1.032.21-1.618.623-.59.418-1.146.972-1.726 1.553l-.039.038c-.547.549-1.209 1.212-1.947 1.733-.761.538-1.699.995-2.795.995-1.096 0-2.033-.457-2.794-.995-.738-.521-1.4-1.184-1.947-1.732l-.039-.04c-.58-.58-1.135-1.134-1.727-1.552-.586-.413-1.112-.623-1.617-.623-.505 0-1.031.21-1.617.623-.591.418-1.146.972-1.727 1.553l-.038.038c-.548.549-1.21 1.211-1.948 1.733C2.034 64.543 1.096 65 0 65v-1.94c.505 0 1.031-.21 1.617-.624.591-.417 1.147-.971 1.727-1.552l.038-.039c.548-.548 1.21-1.21 1.948-1.732z" fill="#126EB9"/></svg><svg fill="none" viewBox="0 0 66 65" id="serv-project" xmlns="http://www.w3.org/2000/svg"><path fill-rule="evenodd" clip-rule="evenodd" d="M38.25 1a1 1 0 011-1h25a1 1 0 011 1v8.333a1 1 0 01-1 1h-25a1 1 0 01-1-1V6.787l-19.757 9.882h8.257a1 1 0 011 1v13.585h10.5v-3.169a1 1 0 011-1h25a1 1 0 011 1v8.334a1 1 0 01-1 1h-25a1 1 0 01-1-1v-3.165h-10.5v13.581a1 1 0 01-1 1h-8.264l19.764 9.882v-2.55a1 1 0 011-1h25a1 1 0 011 1V63.5a1 1 0 01-1 1h-25a1 1 0 01-1-1v-3.165h-24a1 1 0 01-1-1v-11.5H1.75a1 1 0 01-1-1V17.67a1 1 0 011-1h11.508V5.17a1 1 0 011-1H38.25V1zm2 4.183V2h23v6.333h-23v-3.15zm-5.235.986H15.258v9.882l19.757-9.882zm-20.758 12.5H2.75v27.166h23V18.67H14.257zm.993 29.784v9.882h19.764L15.25 48.453zm25 10.896V62.5h23v-6.333h-23v3.182zm0-23.93h23v-6.334h-23v6.334zM4.925 26.002a1 1 0 011-1h16.667a1 1 0 010 2H5.925a1 1 0 01-1-1zm0 6.248a1 1 0 011-1h16.667a1 1 0 010 2H5.925a1 1 0 01-1-1zm17.667 5.252v2H5.925v-2h16.667z" fill="#126EB9"/></svg><svg fill="none" viewBox="0 0 67 67" id="serv-serv" xmlns="http://www.w3.org/2000/svg"><g clip-path="url(#azclip0)"><path d="M53.12 67a13.9 13.9 0 01-13.26-18.12L18.12 27.14A13.91 13.91 0 011.35 7.9a1 1 0 01.74-.55 1 1 0 01.91.28l8.6 8.6a3.4 3.4 0 004.67 0 3.32 3.32 0 000-4.67L7.63 3a1 1 0 01-.095-1.307A1 1 0 017.9 1.39a13.91 13.91 0 0119.24 16.74l21.74 21.74A13.9 13.9 0 0165.65 59.1a1 1 0 01-.74.55 1 1 0 01-.87-.27l-8.6-8.6a3.4 3.4 0 00-4.67 0 3.31 3.31 0 000 4.66l8.6 8.6a1 1 0 01-.27 1.61A13.879 13.879 0 0153.12 67zM18.39 25a1 1 0 01.7.29l22.63 22.62A1 1 0 0142 49a11.9 11.9 0 0014.89 15.39l-7.53-7.53a5.3 5.3 0 017.49-7.5l7.53 7.54A11.9 11.9 0 0049 42a1 1 0 01-1.06-.23L25.28 19.1a1 1 0 01-.23-1.1A11.9 11.9 0 0010.11 2.62l7.53 7.53a5.3 5.3 0 01-7.49 7.49l-7.53-7.53A11.89 11.89 0 0018 25.05a1 1 0 01.39-.05zM5.25 66.49a.999.999 0 01-.71-.3L.8 62.45a1 1 0 010-1.38l6.31-6.94a1 1 0 01.71-.33 1.001 1.001 0 01.73.29L10 55.57l15.91-15.91a1.002 1.002 0 011.639.326 1 1 0 01-.219 1.094L11.42 57l1.48 1.48a1 1 0 01-.04 1.45l-6.94 6.3a1 1 0 01-.67.26zm-2.36-4.78l2.39 2.39 5.46-5-2.89-2.85-4.96 5.46zm41.59-30.94a.998.998 0 01-.71-.29l-3.61-3.61-3.6-3.61a1 1 0 01-.3-.7 1 1 0 01.3-.71l20-20A6.13 6.13 0 0167 6.13a6 6 0 01-1.79 4.33l-20 20a1 1 0 01-.73.31zm-2.22-4.63l2.22 2.22 19.3-19.31a4.13 4.13 0 10-5.84-5.84l-19.3 19.31 2.21 2.21L60.09 5.48a1 1 0 011.71.71 1 1 0 01-.29.71L42.26 26.14z" fill="#126EB9"/></g><defs><clipPath id="azclip0"><path fill="#fff" d="M0 0h67v67H0z"/></clipPath></defs></svg><svg fill="none" viewBox="0 0 59 67" id="serv-temp" xmlns="http://www.w3.org/2000/svg"><path fill-rule="evenodd" clip-rule="evenodd" d="M8.696 1a1 1 0 011-1h8.695a1 1 0 011 1v39.068c5.097 2.095 8.696 7.086 8.696 12.932 0 7.733-6.29 14-14.043 14C6.29 67 0 60.733 0 53c0-5.846 3.6-10.836 8.696-12.932V1zm2 11.833v27.923a1 1 0 01-.667.943C5.349 43.351 2 47.784 2 53c0 6.623 5.388 12 12.043 12 6.656 0 12.044-5.377 12.044-12 0-5.216-3.35-9.65-8.028-11.3a1 1 0 01-.668-.944V12.833h-6.695zm6.695-2h-6.695V2h6.695v8.833zm8.696-5.5a1 1 0 011-1h30.435a1 1 0 110 2H27.087a1 1 0 01-1-1zm0 6.5a1 1 0 011-1h21.74a1 1 0 110 2h-21.74a1 1 0 01-1-1zm0 6.5a1 1 0 011-1h30.435a1 1 0 110 2H27.087a1 1 0 01-1-1zm0 6.5a1 1 0 011-1h21.74a1 1 0 110 2h-21.74a1 1 0 01-1-1zm0 6.5a1 1 0 011-1h30.435a1 1 0 110 2H27.087a1 1 0 01-1-1zm0 6.5a1 1 0 011-1h21.74a1 1 0 010 2h-21.74a1 1 0 01-1-1z" fill="#126EB9"/></svg><svg fill="none" viewBox="0 0 67 67" id="serv-vent" xmlns="http://www.w3.org/2000/svg"><path fill-rule="evenodd" clip-rule="evenodd" d="M23.604.033a1 1 0 011.22.715l7.3 27.988c3.037-.323 5.916 1.662 6.72 4.745.205.786.259 1.579.179 2.345l27.242 7.498a1 1 0 11-.53 1.929L38.513 37.76c-.742 1.706-2.201 3.071-4.114 3.596a6.16 6.16 0 01-5.32-.997L9.15 60.832a1 1 0 01-1.433-1.395l19.96-20.504a6.475 6.475 0 01-.992-2.134c-.803-3.08.72-6.267 3.511-7.536l-7.307-28.01a1 1 0 01.716-1.22zm6.15 38.275a4.443 4.443 0 01-1.135-2.012c-.624-2.394.765-4.819 3.04-5.443h.001c2.262-.623 4.627.75 5.25 3.133a4.557 4.557 0 01-.014 2.365c-.402 1.46-1.52 2.663-3.027 3.077-1.51.416-3.062-.055-4.114-1.12zm.27-38.181A29.74 29.74 0 0132.763 0c4.889 0 9.53 1.205 13.695 3.364a31.125 31.125 0 012.734 1.597 1 1 0 01-1.096 1.673 29.106 29.106 0 00-2.559-1.494C41.645 3.12 37.317 2 32.763 2c-.86 0-1.712.04-2.555.119a1 1 0 11-.184-1.992zm1.739 9.837a1 1 0 011-1c2.91 0 5.706.563 8.3 1.598a1 1 0 11-.74 1.858 20.336 20.336 0 00-7.56-1.456 1 1 0 01-1-1zM1.18 32.878a1 1 0 01.925 1.07A40.41 40.41 0 002 36.868c0 6.375 1.508 12.343 4.138 17.477.322.627.662 1.244 1.018 1.85a1 1 0 01-1.724 1.013 38.669 38.669 0 01-1.074-1.951C1.583 49.84 0 43.559 0 36.867c0-1.031.038-2.054.111-3.064a1 1 0 011.07-.925zm7.807 5.98a1 1 0 011.094.897 28.754 28.754 0 001.168 5.777v.001c.35 1.121.769 2.206 1.247 3.255a1 1 0 01-1.82.83 29.732 29.732 0 01-1.336-3.49 30.756 30.756 0 01-1.25-6.177 1 1 0 01.897-1.093zm45.366 9.432a1 1 0 01.493 1.325 28.226 28.226 0 01-3.545 5.807 1 1 0 01-1.567-1.243 26.224 26.224 0 003.294-5.395 1 1 0 011.325-.494zm7.886 1.998a1 1 0 01.571 1.293c-2.164 5.587-5.525 10.462-9.727 14.206l-.665-.746.666.746h-.001c-.38.34-.768.67-1.164.99a1 1 0 01-1.258-1.554c.371-.3.735-.61 1.09-.928h.001c3.956-3.525 7.138-8.132 9.193-13.436a1 1 0 011.294-.571z" fill="#126EB9"/></svg><svg fill="none" viewBox="0 0 28 28" id="sidebar-close" xmlns="http://www.w3.org/2000/svg"><path fill-rule="evenodd" clip-rule="evenodd" d="M13.56 15.682L2.122 27.122 0 25l11.44-11.44L0 2.122 2.121 0l11.44 11.44L25 0l2.121 2.121-11.439 11.44L27.122 25 25 27.121 13.56 15.682z" fill="#D63295" fill-opacity=".7"/></svg><svg fill="none" viewBox="0 0 20 36" id="slide-next" xmlns="http://www.w3.org/2000/svg"><path fill-rule="evenodd" clip-rule="evenodd" d="M3.136 35.98L.864 34.023 14.972 17.65.92 3.041 3.081.961 19.028 17.54 3.136 35.98z" fill="#fff"/></svg><svg fill="none" viewBox="0 0 20 36" id="slide-prev" xmlns="http://www.w3.org/2000/svg"><path fill-rule="evenodd" clip-rule="evenodd" d="M16.864.021l2.272 1.959L5.028 18.352 19.081 32.96l-2.162 2.08L.972 18.463 16.864.02z" fill="#fff"/></svg><svg fill="none" viewBox="0 0 22 22" id="time" xmlns="http://www.w3.org/2000/svg"><path d="M11 0C4.925 0 0 4.925 0 11s4.925 11 11 11 11-4.925 11-11C21.994 4.928 17.072.006 11 0zm0 20.428A9.429 9.429 0 1120.428 11 9.439 9.439 0 0111 20.428z" fill="#1156DE"/><path d="M11 3.928a.786.786 0 00-.786.786v5.5h-5.5a.786.786 0 000 1.572H11a.786.786 0 00.786-.786V4.714A.786.786 0 0011 3.928z" fill="#1156DE"/></svg><svg fill="none" viewBox="0 0 31 25" id="yt" xmlns="http://www.w3.org/2000/svg"><path d="M20.271 11.107L13.424 7.36a1.247 1.247 0 00-1.245.02 1.247 1.247 0 00-.617 1.083v7.43c0 .447.229.85.613 1.08a1.255 1.255 0 001.24.028l6.85-3.683a1.258 1.258 0 00.008-2.211zm-6.893 3.852V9.405l5.118 2.801-5.118 2.753z" fill="#BACFF8"/><path d="M30.772 6.296l-.002-.015c-.026-.25-.287-2.469-1.366-3.597-1.247-1.328-2.661-1.49-3.341-1.567a8.204 8.204 0 01-.154-.018l-.054-.006C21.757.795 15.567.754 15.505.754h-.01c-.063 0-6.252.041-10.387.34l-.054.005-.146.017c-.672.078-2.07.24-3.321 1.615C.559 3.848.262 6.02.232 6.264l-.004.032C.218 6.399 0 8.87 0 11.353v2.32a64.4 64.4 0 00.228 5.057l.002.015c.026.246.287 2.425 1.361 3.554 1.173 1.283 2.655 1.453 3.453 1.544.126.015.234.027.308.04l.072.01c2.366.225 9.785.336 10.1.34h.019c.062 0 6.251-.04 10.35-.338l.053-.006c.052-.007.11-.013.174-.02.669-.07 2.06-.218 3.293-1.575 1.028-1.117 1.325-3.289 1.355-3.533l.004-.031c.01-.105.228-2.576.228-5.058v-2.32c0-2.48-.219-4.952-.228-5.056zm-1.589 7.376c0 2.297-.2 4.662-.22 4.88-.076.598-.39 1.972-.89 2.516-.772.85-1.565.934-2.144.995a5.68 5.68 0 00-.194.022c-3.964.286-9.92.33-10.194.332-.307-.005-7.618-.116-9.912-.33a7.872 7.872 0 00-.378-.049c-.68-.077-1.609-.184-2.324-.97l-.017-.018c-.491-.512-.796-1.797-.873-2.491a63.48 63.48 0 01-.22-4.887v-2.32c0-2.293.2-4.656.22-4.878.091-.704.41-1.995.89-2.517.796-.875 1.635-.972 2.19-1.036l.148-.018c4.021-.288 10.02-.33 10.235-.332.215.001 6.211.044 10.197.332l.16.019c.57.065 1.434.163 2.225 1.008l.007.008c.492.512.797 1.82.874 2.527.014.155.22 2.554.22 4.888v2.32z" fill="#BACFF8"/></svg><svg fill="none" viewBox="0 0 29 24" id="yt-fill" xmlns="http://www.w3.org/2000/svg"><path d="M27.827 4.299c-.316-1.406-1.245-2.514-2.423-2.892C23.255.704 14.648.704 14.648.704s-8.605 0-10.757.676c-1.154.378-2.106 1.513-2.423 2.919-.566 2.567-.566 7.892-.566 7.892s0 5.351.566 7.892c.318 1.406 1.246 2.514 2.424 2.892 2.173.703 10.756.703 10.756.703s8.605 0 10.756-.676c1.178-.378 2.107-1.486 2.424-2.892.566-2.567.566-7.892.566-7.892s.022-5.352-.567-7.919zM11.908 17.11V7.272l7.156 4.92-7.156 4.918z" fill="#7EB5F9"/></svg></svg>