<?xml version="1.0" encoding="utf-8"?><svg xmlns="http://www.w3.org/2000/svg" xmlns:xlink="http://www.w3.org/1999/xlink"><symbol viewBox="0 0 34 34" id="add-room" xmlns="http://www.w3.org/2000/svg"><circle cx="17" cy="17" r="17" fill-opacity=".5"/><path d="M8.1 17.252h17.802M17 26.152V8.351"/></symbol><symbol viewBox="0 0 13 7" id="arrow-down-menu" xmlns="http://www.w3.org/2000/svg"><path d="M6.5 7L.87.25h11.26L6.5 7z"/></symbol><symbol viewBox="0 0 23 25" id="cart" xmlns="http://www.w3.org/2000/svg"><path d="M.657 24.178l1.9-18.094a.744.744 0 01.74-.667H6.87v-.814A4.609 4.609 0 0111.472 0a4.609 4.609 0 014.603 4.603v.814h3.572c.38 0 .7.288.74.667l1.9 18.094a.745.745 0 01-.74.822H1.397a.744.744 0 01-.74-.822zm13.93-19.575a3.119 3.119 0 00-3.115-3.115 3.119 3.119 0 00-3.115 3.115v.814h6.23v-.814zm6.133 18.909L18.977 6.906h-2.902v1.64a.744.744 0 01-1.488 0v-1.64h-6.23v1.64a.744.744 0 01-1.488 0v-1.64H3.967L2.224 23.512H20.72z"/></symbol><symbol viewBox="0 0 27 22" id="check" xmlns="http://www.w3.org/2000/svg"><path d="M1 12l9 7L25.5 1"/></symbol><symbol viewBox="0 0 27 27" id="close-modal" xmlns="http://www.w3.org/2000/svg"><path d="M1 26L26 1m0 25L1 1"/></symbol><symbol viewBox="0 0 12 12" id="close-small" xmlns="http://www.w3.org/2000/svg"><path d="M1 1l10 10M1 11L11 1"/></symbol><symbol viewBox="0 0 25 23" id="complex" xmlns="http://www.w3.org/2000/svg"><path d="M24.272 3.444h-6.645V2.71A2.2 2.2 0 0015.43.514H9.57A2.2 2.2 0 007.373 2.71v.732H.733A.734.734 0 000 4.176v16.113a2.2 2.2 0 002.197 2.197h20.606A2.2 2.2 0 0025 20.29V4.188c-.028-.48-.324-.742-.728-.744zM8.838 2.71c0-.404.329-.732.732-.732h5.86c.404 0 .732.328.732.732v.732H8.838V2.71zM23.25 4.908l-2.274 6.824c-.1.3-.38.5-.695.5h-4.12V11.5a.732.732 0 00-.732-.732H9.57a.732.732 0 00-.732.732v.732h-4.12a.731.731 0 01-.695-.5L1.75 4.908h21.5zm-8.554 7.324v1.465h-4.394v-1.465h4.394zm8.838 8.057a.733.733 0 01-.732.732H2.197a.733.733 0 01-.732-.732V8.69l1.168 3.506a2.194 2.194 0 002.085 1.502h4.12v.733c0 .404.328.732.732.732h5.86a.732.732 0 00.732-.732v-.733h4.12c.947 0 1.785-.603 2.084-1.502l1.17-3.506v11.6z"/></symbol><symbol viewBox="0 0 25 26" id="economy" xmlns="http://www.w3.org/2000/svg"><path d="M22.607 1.31C21.26.718 19.49.39 17.627.39c-3.813 0-7.324 1.4-7.324 3.663v5.495a8.024 8.024 0 00-2.246-.32c-2.147 0-4.17.849-5.697 2.39A8.076 8.076 0 000 17.334c0 4.442 3.614 8.057 8.057 8.057a8.056 8.056 0 004.153-1.145c1.362.731 3.303 1.145 5.417 1.145 1.863 0 3.632-.327 4.98-.92C24.15 23.79 25 22.818 25 21.729V4.053c0-1.09-.85-2.063-2.393-2.742zM8.057 23.927a6.6 6.6 0 01-6.592-6.592c0-3.662 2.957-6.64 6.592-6.64a6.648 6.648 0 016.64 6.64c0 3.635-2.979 6.592-6.64 6.592zm15.478-2.197c0 .895-2.302 2.197-5.908 2.197-1.534 0-2.984-.246-4.083-.677a8.114 8.114 0 001.815-2.423c.727.113 1.487.17 2.268.17 1.926 0 4.314-.374 5.908-1.417v2.15zm0-4.395c0 .896-2.302 2.197-5.908 2.197-.598 0-1.18-.037-1.741-.11a7.99 7.99 0 00.23-2.942c.494.049.999.074 1.511.074 1.926 0 4.314-.375 5.908-1.417v2.198zm0-4.443c0 .896-2.302 2.197-5.908 2.197-.623 0-1.233-.04-1.82-.12a8.117 8.117 0 00-1.998-3.318c1.132.33 2.448.508 3.818.508 1.926 0 4.314-.374 5.908-1.417v2.15zm0-4.395c0 .896-2.302 2.197-5.908 2.197-1.66 0-3.21-.282-4.364-.795-.922-.41-1.495-.947-1.495-1.402V6.308c1.585 1.04 3.953 1.407 5.859 1.407 1.926 0 4.314-.375 5.908-1.417v2.198zM17.627 6.25c-3.578 0-5.86-1.282-5.86-2.197 0-.918 2.289-2.198 5.86-2.198 3.607 0 5.908 1.302 5.908 2.198 0 .896-2.302 2.197-5.908 2.197z"/></symbol><symbol viewBox="0 0 22 18" id="email" xmlns="http://www.w3.org/2000/svg"><path d="M20.066.621H1.934A1.937 1.937 0 000 2.555v12.89c0 1.063.865 1.934 1.934 1.934h18.132A1.937 1.937 0 0022 15.445V2.555A1.937 1.937 0 0020.066.62zm-.267 1.29l-8.758 8.758L2.207 1.91h17.592zM1.29 15.177V2.815L7.497 8.97 1.29 15.178zm.912.912l6.212-6.212 2.176 2.158c.252.25.659.249.91-.002l2.12-2.123 6.18 6.18H2.201zm18.51-.912L14.533 9l6.178-6.178v12.356z"/></symbol><symbol viewBox="0 0 21 25" id="experience" xmlns="http://www.w3.org/2000/svg"><path d="M5.031 15.43H1.125a.977.977 0 00-.977.977v7.617c0 .54.438.976.977.976h3.906c.54 0 .977-.437.977-.976v-7.617a.977.977 0 00-.977-.977zm-.976 7.617H2.102v-5.664h1.953v5.664zm15.82-15.429h-3.906a.977.977 0 00-.977.976v15.43c0 .54.437.976.977.976h3.906c.54 0 .977-.437.977-.976V8.594a.977.977 0 00-.977-.976zm-.977 15.43h-1.953V9.57h1.953v13.476zm-6.445-11.524H8.547a.977.977 0 00-.977.977v11.523c0 .54.438.976.977.976h3.906c.54 0 .977-.437.977-.976V12.5a.977.977 0 00-.977-.976zm-.976 11.523H9.523v-9.57h1.954v9.57zM13.723 0h-3.711a.977.977 0 100 1.954h1.353l-8.281 8.28a.977.977 0 101.38 1.382l8.282-8.281v1.353a.977.977 0 101.953 0V.978A.98.98 0 0013.723 0z"/></symbol><symbol viewBox="0 0 15 25" id="fb" xmlns="http://www.w3.org/2000/svg"><path d="M9.16 24.951H5.157a1.214 1.214 0 01-1.213-1.213v-9.03H1.608a1.214 1.214 0 01-1.212-1.212v-3.87c0-.669.543-1.212 1.212-1.212h2.336V6.476c0-1.921.603-3.556 1.744-4.727C6.835.573 8.437-.049 10.321-.049l3.053.005a1.214 1.214 0 011.211 1.213v3.593c0 .668-.544 1.212-1.212 1.212l-2.056.001c-.627 0-.787.126-.82.164-.057.064-.124.245-.124.743v1.531h2.845a1.217 1.217 0 011.224 1.213l-.001 3.87c0 .668-.544 1.212-1.213 1.212h-2.855v9.03c0 .67-.544 1.213-1.213 1.213zm-3.75-1.465h3.497v-9.434a.81.81 0 01.81-.81h3.258l.001-3.363h-3.26a.81.81 0 01-.809-.81V6.882c0-.572.058-1.223.49-1.713.523-.591 1.346-.66 1.92-.66h1.802V1.42l-2.799-.004c-3.028 0-4.91 1.938-4.91 5.059v2.593a.81.81 0 01-.81.81H1.861v3.364h2.74a.81.81 0 01.809.81v9.433zm7.962-22.064z"/></symbol><symbol viewBox="0 0 12 24" id="fb-fill" xmlns="http://www.w3.org/2000/svg"><path d="M7.5 8.25v-3A1.5 1.5 0 019 3.75h1.5V0h-3A4.5 4.5 0 003 4.5v3.75H0V12h3v12h4.5V12h3L12 8.25H7.5z"/></symbol><symbol viewBox="0 0 20 20" id="home" xmlns="http://www.w3.org/2000/svg"><path d="M16.64 19.375H3.36a1.8 1.8 0 01-1.798-1.797V8.124a.625.625 0 011.25 0v9.454c0 .301.246.547.547.547h13.282a.547.547 0 00.546-.547V8.124a.625.625 0 011.25 0v9.454a1.8 1.8 0 01-1.796 1.797z"/><path d="M19.375 10.311a.623.623 0 01-.442-.183L11.16 2.355c-.64-.64-1.68-.64-2.32 0l-7.773 7.773a.625.625 0 11-.884-.884l7.773-7.773a2.894 2.894 0 014.088 0l7.773 7.773a.625.625 0 01-.442 1.067zM12.5 19.375h-5a.625.625 0 01-.625-.625v-5.547c0-1.077.876-1.953 1.953-1.953h2.344c1.077 0 1.953.876 1.953 1.953v5.547c0 .345-.28.625-.625.625zm-4.375-1.25h3.75v-4.922a.704.704 0 00-.703-.703H8.828a.704.704 0 00-.703.703v4.922z"/></symbol><symbol viewBox="0 0 25 25" id="insta" xmlns="http://www.w3.org/2000/svg"><path d="M18.233 0H6.767A6.775 6.775 0 000 6.767v11.466A6.775 6.775 0 006.767 25h11.466A6.775 6.775 0 0025 18.233V6.767A6.775 6.775 0 0018.233 0zm5.301 18.233a5.307 5.307 0 01-5.301 5.301H6.767a5.308 5.308 0 01-5.301-5.301V6.767a5.308 5.308 0 015.301-5.301h11.466a5.308 5.308 0 015.301 5.301v11.466z"/><path d="M12.5 5.664A6.843 6.843 0 005.664 12.5a6.843 6.843 0 006.836 6.836 6.843 6.843 0 006.836-6.836A6.843 6.843 0 0012.5 5.664zm0 12.206a5.376 5.376 0 01-5.37-5.37 5.376 5.376 0 015.37-5.37 5.376 5.376 0 015.37 5.37 5.376 5.376 0 01-5.37 5.37zm7-14.633c-1.115 0-2.02.906-2.02 2.02 0 1.113.905 2.02 2.02 2.02 1.113 0 2.02-.907 2.02-2.02 0-1.114-.907-2.02-2.02-2.02zm0 2.574a.555.555 0 110-1.11.555.555 0 010 1.11z"/></symbol><symbol viewBox="0 0 22 22" id="insta-fill" xmlns="http://www.w3.org/2000/svg"><path d="M16.045 0H5.955A5.962 5.962 0 000 5.955v10.09A5.962 5.962 0 005.955 22h10.09A5.962 5.962 0 0022 16.045V5.955A5.962 5.962 0 0016.045 0zM11 17.015A6.022 6.022 0 014.985 11 6.022 6.022 0 0111 4.985 6.022 6.022 0 0117.015 11 6.022 6.022 0 0111 17.015zm6.16-10.612a1.78 1.78 0 01-1.778-1.777c0-.98.797-1.778 1.777-1.778.98 0 1.778.797 1.778 1.778a1.78 1.78 0 01-1.778 1.777z"/><path d="M11 6.274A4.731 4.731 0 006.274 11 4.731 4.731 0 0011 15.726 4.731 4.731 0 0015.726 11 4.731 4.731 0 0011 6.274zm6.16-2.136a.488.488 0 100 .977.488.488 0 000-.977z"/></symbol><symbol viewBox="0 0 21 25" id="locate" xmlns="http://www.w3.org/2000/svg"><path d="M19.56 6.551c-.89-2.88-3.206-5.214-6.042-6.092-3.02-.935-6.167-.427-8.636 1.393a9.676 9.676 0 00-2.84 3.326A9.595 9.595 0 00.979 9.566c0 2.078.657 4.052 1.9 5.71L10.501 25l7.614-9.712.01-.012c1.86-2.48 2.384-5.661 1.435-8.725zm-2.603 7.84l-6.456 8.235-6.455-8.235a7.99 7.99 0 01-1.603-4.825A8.153 8.153 0 015.75 3.031c2.09-1.54 4.764-1.968 7.334-1.172 2.38.737 4.325 2.7 5.076 5.125.807 2.608.368 5.307-1.204 7.407z"/><path d="M10.501 4.438a5.134 5.134 0 00-5.128 5.128c0 2.828 2.3 5.129 5.128 5.129a5.134 5.134 0 005.128-5.129c0-2.827-2.3-5.128-5.128-5.128zm0 8.791a3.667 3.667 0 01-3.663-3.663 3.667 3.667 0 013.663-3.663 3.667 3.667 0 013.663 3.663 3.667 3.667 0 01-3.663 3.663z"/></symbol><symbol viewBox="0 0 18 25" id="phone" xmlns="http://www.w3.org/2000/svg"><path fill-rule="evenodd" clip-rule="evenodd" d="M15 2H3a1 1 0 00-1 1v18.925a1 1 0 001 1h12a1 1 0 001-1V3a1 1 0 00-1-1zM3 0a3 3 0 00-3 3v18.925a3 3 0 003 3h12a3 3 0 003-3V3a3 3 0 00-3-3H3z"/><path fill-rule="evenodd" clip-rule="evenodd" d="M13 2.114H5c0 1.062.861 1.923 1.923 1.923h4.154A1.923 1.923 0 0013 2.114z"/></symbol><symbol viewBox="0 0 66 65" id="serv-cond" xmlns="http://www.w3.org/2000/svg"><path d="M13.575 63.5c0-3.127-2.817-3.127-2.817-6.256 0-3.127 2.817-3.127 2.817-6.257 0-3.122-2.817-3.122-2.817-6.245s2.817-3.123 2.817-6.244m14.583.002c0 3.123-2.816 3.123-2.816 6.244 0 3.123 2.816 3.123 2.816 6.246 0 3.127-2.816 3.127-2.816 6.256 0 3.127 2.816 3.127 2.816 6.256M42.742 38.5c0 3.123-2.817 3.123-2.817 6.244 0 3.123 2.817 3.123 2.817 6.246 0 3.127-2.817 3.127-2.817 6.256 0 3.127 2.817 3.127 2.817 6.256M57.325 38.5c0 3.123-2.817 3.123-2.817 6.244 0 3.123 2.817 3.123 2.817 6.246 0 3.127-2.817 3.127-2.817 6.256 0 3.127 2.817 3.127 2.817 6.256M8 28.083h50m-50-6.25h50m-50-6.25h50m-8.333-6.25H58m6.25 20.834V1H1.75v29.167a4.166 4.166 0 004.167 4.166h54.166a4.166 4.166 0 004.167-4.166z"/></symbol><symbol viewBox="0 0 64 44" id="serv-dry-clean" xmlns="http://www.w3.org/2000/svg"><path d="M.542 5.167c1.54 0 2.814-1.125 3.906-2.084C5.54 2.125 6.815 1 8.354 1c1.54 0 2.815 1.125 3.907 2.083 1.091.959 2.366 2.084 3.906 2.084s2.814-1.125 3.906-2.084C21.165 2.125 22.44 1 23.979 1c1.54 0 2.815 1.125 3.907 2.083 1.091.959 2.366 2.084 3.906 2.084s2.814-1.125 3.906-2.084C36.79 2.125 38.065 1 39.604 1c1.54 0 2.815 1.125 3.907 2.083 1.091.959 2.366 2.084 3.906 2.084s2.814-1.125 3.906-2.084C52.415 2.125 53.69 1 55.229 1c1.54 0 2.763 1.125 3.854 2.083 1.092.959 2.425 2.084 3.965 2.084m0 12.5c-1.54 0-2.873-1.125-3.965-2.084-1.091-.958-2.314-2.083-3.854-2.083s-2.814 1.125-3.906 2.083c-1.092.959-2.367 2.084-3.906 2.084-1.54 0-2.815-1.125-3.907-2.084-1.091-.958-2.366-2.083-3.906-2.083s-2.814 1.125-3.906 2.083c-1.092.959-2.367 2.084-3.906 2.084-1.54 0-2.815-1.125-3.907-2.084-1.091-.958-2.366-2.083-3.906-2.083s-2.814 1.125-3.906 2.083c-1.092.959-2.367 2.084-3.906 2.084-1.54 0-2.815-1.125-3.907-2.084-1.091-.958-2.366-2.083-3.906-2.083s-2.814 1.125-3.906 2.083c-1.092.959-2.367 2.084-3.906 2.084m62.506 12.5c-1.54 0-2.873-1.125-3.965-2.084C57.992 27.125 56.77 26 55.23 26s-2.814 1.125-3.906 2.083c-1.092.959-2.367 2.084-3.906 2.084-1.54 0-2.815-1.125-3.907-2.084C42.42 27.125 41.145 26 39.605 26s-2.814 1.125-3.906 2.083c-1.092.959-2.367 2.084-3.906 2.084-1.54 0-2.815-1.125-3.907-2.084C26.794 27.125 25.52 26 23.98 26s-2.814 1.125-3.906 2.083c-1.092.959-2.367 2.084-3.906 2.084-1.54 0-2.815-1.125-3.907-2.084C11.17 27.125 9.895 26 8.354 26s-2.814 1.125-3.906 2.083c-1.092.959-2.367 2.084-3.906 2.084m62.506 12.5c-1.54 0-2.873-1.125-3.965-2.084-1.091-.958-2.314-2.083-3.854-2.083s-2.814 1.125-3.906 2.083c-1.092.959-2.367 2.084-3.906 2.084-1.54 0-2.815-1.125-3.907-2.084-1.091-.958-2.366-2.083-3.906-2.083s-2.814 1.125-3.906 2.083c-1.092.959-2.367 2.084-3.906 2.084-1.54 0-2.815-1.125-3.907-2.084-1.091-.958-2.366-2.083-3.906-2.083s-2.814 1.125-3.906 2.083c-1.092.959-2.367 2.084-3.906 2.084-1.54 0-2.815-1.125-3.907-2.084-1.091-.958-2.366-2.083-3.906-2.083s-2.814 1.125-3.906 2.083c-1.092.959-2.367 2.084-3.906 2.084"/></symbol><symbol viewBox="0 0 66 65" id="serv-project" xmlns="http://www.w3.org/2000/svg"><path d="M5.925 38.502h16.667m4.158-6.248h12.5-12.5zM39.25 5.17H14.258v12.5L39.25 5.17zm-25 41.666v12.5h25l-25-12.5zm12.5-29.166h-25v29.166h25V17.67zM64.25 1h-25v8.333h25V1zm0 27.085h-25v8.334h25v-8.334zm0 27.082h-25V63.5h25v-8.333zM5.925 26.002h16.667H5.925zm0 6.248h16.667H5.925z"/></symbol><symbol viewBox="0 0 66 66" id="serv-serv" xmlns="http://www.w3.org/2000/svg"><path d="M36.608 22.352L56.006 2.954a4.972 4.972 0 117.032 7.032L43.64 29.384l-7.032-7.032zm3.515 3.515L59.46 6.529 40.123 25.867zM10.227 55.763l16.106-16.107-16.106 16.107zM1.99 60.369L5.62 64l6.726-6.117-4.24-4.24L1.99 60.37zm38.29-12.721a12.505 12.505 0 002.882 13.194c3.847 3.848 9.58 4.662 14.229 2.444l-8.336-8.336a4.177 4.177 0 010-5.892 4.177 4.177 0 015.892 0l8.335 8.336c2.22-4.646 1.404-10.38-2.443-14.23-3.567-3.566-8.755-4.526-13.194-2.88L25.719 18.355c1.648-4.44.687-9.629-2.882-13.195C18.99 1.313 13.257.498 8.608 2.717l8.336 8.335a4.177 4.177 0 010 5.892 4.177 4.177 0 01-5.892 0L2.717 8.608c-2.219 4.646-1.404 10.38 2.443 14.23 3.567 3.566 8.753 4.527 13.19 2.883l21.931 21.927z"/></symbol><symbol viewBox="0 0 44 65" id="serv-temp" xmlns="http://www.w3.org/2000/svg"><path d="M9.333 11.417h8.334M26 5.167h16.667H26zm0 6.25h8.333H26zm0 6.25h16.667H26zm0 6.25h8.333H26zm0 6.25h16.667H26zm0 6.25h8.333H26zm-8.333 2.81V1H9.333v38.227C4.481 40.946 1 45.56 1 51c0 6.902 5.596 12.5 12.5 12.5S26 57.902 26 51c0-5.44-3.481-10.056-8.333-11.773z"/></symbol><symbol viewBox="0 0 68 66" id="serv-vent" xmlns="http://www.w3.org/2000/svg"><path d="M24.117 1l7.622 28.444M8.517 59.224L29.34 38.403m37.402 5.22l-28.444-7.621m-29.12 3.254a28.62 28.62 0 001.224 5.886 27.842 27.842 0 001.306 3.32m39.375 5.512a26.684 26.684 0 003.46-5.515M41.145 11.33a22.096 22.096 0 00-8.02-1.504M51.865 65a32.07 32.07 0 001.14-.945c4.125-3.578 7.434-8.246 9.568-13.608M49.188 5.723a30.68 30.68 0 00-2.677-1.521A29.583 29.583 0 0030.448 1.12M1.11 33.369c-.073.971-.11 1.954-.11 2.946C1 42.75 2.563 48.78 5.297 53.973c.334.636.688 1.26 1.057 1.871M38.298 33.23a5.351 5.351 0 01-3.786 6.556 5.351 5.351 0 01-6.556-3.785 5.353 5.353 0 0110.342-2.77z"/></symbol><symbol viewBox="0 0 20 36" id="slide-prev" xmlns="http://www.w3.org/2000/svg"><path d="M18 1L3 18.407 18 34"/></symbol><symbol viewBox="0 0 22 22" id="time" xmlns="http://www.w3.org/2000/svg"><path d="M11 0C4.925 0 0 4.925 0 11s4.925 11 11 11 11-4.925 11-11C21.994 4.928 17.072.006 11 0zm0 20.428A9.429 9.429 0 1120.428 11 9.439 9.439 0 0111 20.428z"/><path d="M11 3.928a.786.786 0 00-.786.786v5.5h-5.5a.786.786 0 000 1.572H11a.786.786 0 00.786-.786V4.714A.786.786 0 0011 3.928z"/></symbol><symbol viewBox="0 0 31 25" id="yt" xmlns="http://www.w3.org/2000/svg"><path d="M20.271 11.107L13.424 7.36a1.247 1.247 0 00-1.245.02 1.247 1.247 0 00-.617 1.083v7.43c0 .447.229.85.613 1.08a1.255 1.255 0 001.24.028l6.85-3.683a1.258 1.258 0 00.008-2.211zm-6.893 3.852V9.405l5.118 2.801-5.118 2.753z"/><path d="M30.772 6.296l-.002-.015c-.026-.25-.287-2.469-1.366-3.597-1.247-1.328-2.661-1.49-3.341-1.567a8.204 8.204 0 01-.154-.018l-.054-.006C21.757.795 15.567.754 15.505.754h-.01c-.063 0-6.252.041-10.387.34l-.054.005-.146.017c-.672.078-2.07.24-3.321 1.615C.559 3.848.262 6.02.232 6.264l-.004.032C.218 6.399 0 8.87 0 11.353v2.32a64.4 64.4 0 00.228 5.057l.002.015c.026.246.287 2.425 1.361 3.554 1.173 1.283 2.655 1.453 3.453 1.544.126.015.234.027.308.04l.072.01c2.366.225 9.785.336 10.1.34h.019c.062 0 6.251-.04 10.35-.338l.053-.006c.052-.007.11-.013.174-.02.669-.07 2.06-.218 3.293-1.575 1.028-1.117 1.325-3.289 1.355-3.533l.004-.031c.01-.105.228-2.576.228-5.058v-2.32c0-2.48-.219-4.952-.228-5.056zm-1.589 7.376c0 2.297-.2 4.662-.22 4.88-.076.598-.39 1.972-.89 2.516-.772.85-1.565.934-2.144.995a5.68 5.68 0 00-.194.022c-3.964.286-9.92.33-10.194.332-.307-.005-7.618-.116-9.912-.33a7.872 7.872 0 00-.378-.049c-.68-.077-1.609-.184-2.324-.97l-.017-.018c-.491-.512-.796-1.797-.873-2.491a63.48 63.48 0 01-.22-4.887v-2.32c0-2.293.2-4.656.22-4.878.091-.704.41-1.995.89-2.517.796-.875 1.635-.972 2.19-1.036l.148-.018c4.021-.288 10.02-.33 10.235-.332.215.001 6.211.044 10.197.332l.16.019c.57.065 1.434.163 2.225 1.008l.007.008c.492.512.797 1.82.874 2.527.014.155.22 2.554.22 4.888v2.32z"/></symbol><symbol viewBox="0 0 29 24" id="yt-fill" xmlns="http://www.w3.org/2000/svg"><path d="M27.827 4.299c-.316-1.406-1.245-2.514-2.423-2.892C23.255.704 14.648.704 14.648.704s-8.605 0-10.757.676c-1.154.378-2.106 1.513-2.423 2.919-.566 2.567-.566 7.892-.566 7.892s0 5.351.566 7.892c.318 1.406 1.246 2.514 2.424 2.892 2.173.703 10.756.703 10.756.703s8.605 0 10.756-.676c1.178-.378 2.107-1.486 2.424-2.892.566-2.567.566-7.892.566-7.892s.022-5.352-.567-7.919zM11.908 17.11V7.272l7.156 4.92-7.156 4.918z"/></symbol></svg>