<svg width="23" height="25" viewBox="0 0 23 25" fill="none" xmlns="http://www.w3.org/2000/svg">
<path d="M0.657249 24.1783L2.55735 6.08386C2.59721 5.70506 2.9165 5.41743 3.2974 5.41743H6.86871V4.60319C6.86871 2.06508 8.93379 0 11.4719 0C14.0102 0 16.0753 2.06508 16.0753 4.60319V5.41743H19.6466C20.0275 5.41743 20.3468 5.70506 20.3866 6.08386L22.2867 24.1783C22.3087 24.3879 22.2406 24.5971 22.0996 24.7539C21.9585 24.9105 21.7574 24.9999 21.5467 24.9999H1.39749C1.18654 24.9999 0.985502 24.9105 0.844549 24.7539C0.703217 24.5971 0.635315 24.3879 0.657249 24.1783ZM14.5872 4.60319C14.5872 2.88562 13.1896 1.48811 11.4719 1.48811C9.75433 1.48811 8.35682 2.88562 8.35682 4.60319V5.41743H14.5872V4.60319ZM20.7204 23.5118L18.9765 6.90554H16.0753V8.54529C16.0753 8.95613 15.7421 9.28934 15.3312 9.28934C14.9204 9.28934 14.5872 8.95613 14.5872 8.54529V6.90554H8.35682V8.54529C8.35682 8.95613 8.02361 9.28934 7.61276 9.28934C7.20192 9.28934 6.86871 8.95613 6.86871 8.54529V6.90554H3.96745L2.22356 23.5118H20.7204Z" fill="white"/>
</svg>
