<svg width="24" height="27" viewBox="0 0 24 27" fill="none" xmlns="http://www.w3.org/2000/svg">
<path d="M0.904675 25.1677L0.90468 25.1677L2.83661 7.07325C2.88271 6.64233 3.25139 6.31744 3.68848 6.31744H7.21962V5.6032C7.21962 3.0083 9.36563 0.9 11.9999 0.9C14.6344 0.9 16.7804 3.0083 16.7804 5.6032V6.31744H20.3115C20.7486 6.31744 21.1173 6.64233 21.1634 7.07323L21.1634 7.07325L23.0953 25.1677L23.0953 25.1677C23.1207 25.4061 23.0419 25.6437 22.8795 25.8214L22.8794 25.8215C22.7167 25.999 22.4855 26.1 22.2434 26.1H1.75675C1.51454 26.1 1.28326 25.999 1.12078 25.8215C0.957859 25.6437 0.87932 25.4061 0.904675 25.1677ZM15.0674 5.6032C15.0674 3.94242 13.6928 2.58811 11.9999 2.58811C10.3072 2.58811 8.93265 3.94242 8.93265 5.6032V6.31744H15.0674V5.6032ZM4.45965 8.00556L2.7079 24.4119H21.2921L19.5404 8.00556H16.7804V9.5453C16.7804 10.0129 16.3953 10.3894 15.9239 10.3894C15.4525 10.3894 15.0674 10.0129 15.0674 9.5453V8.00556H8.93265V9.5453C8.93265 10.0129 8.54751 10.3894 8.07613 10.3894C7.60475 10.3894 7.21962 10.0129 7.21962 9.5453V8.00556H4.45965Z" fill="white" stroke="white" stroke-width="0.2"/>
</svg>
