<svg width="27" height="28" viewBox="0 0 27 28" fill="none" xmlns="http://www.w3.org/2000/svg">
<path d="M0.988997 27.0797L3.26911 6.81392C3.31695 6.38967 3.7001 6.06752 4.15717 6.06752H8.44275V5.15557C8.44275 2.31289 10.9208 0 13.9666 0C17.0125 0 19.4906 2.31289 19.4906 5.15557V6.06752H23.7762C24.2333 6.06752 24.6164 6.38967 24.6643 6.81392L26.9444 27.0797C26.9707 27.3144 26.889 27.5488 26.7198 27.7244C26.5505 27.8998 26.3092 27.9999 26.0563 27.9999H1.87729C1.62414 27.9999 1.3829 27.8998 1.21376 27.7244C1.04416 27.5488 0.962675 27.3144 0.988997 27.0797ZM17.7049 5.15557C17.7049 3.2319 16.0279 1.66668 13.9666 1.66668C11.9055 1.66668 10.2285 3.2319 10.2285 5.15557V6.06752H17.7049V5.15557ZM25.0648 26.3333L22.9721 7.73421H19.4906V9.57072C19.4906 10.0309 19.0908 10.4041 18.5978 10.4041C18.1047 10.4041 17.7049 10.0309 17.7049 9.57072V7.73421H10.2285V9.57072C10.2285 10.0309 9.82862 10.4041 9.33561 10.4041C8.8426 10.4041 8.44275 10.0309 8.44275 9.57072V7.73421H4.96123L2.86857 26.3333H25.0648Z" fill="#0066BA"/>
</svg>
