<svg width="23" height="25" viewBox="0 0 23 25" fill="none" xmlns="http://www.w3.org/2000/svg">
<path d="M0.657494 24.1783L2.55759 6.08386C2.59745 5.70506 2.91674 5.41743 3.29764 5.41743H6.86895V4.60319C6.86895 2.06508 8.93404 0 11.4721 0C14.0104 0 16.0755 2.06508 16.0755 4.60319V5.41743H19.6468C20.0277 5.41743 20.347 5.70506 20.3869 6.08386L22.287 24.1783C22.3089 24.3879 22.2408 24.5971 22.0999 24.7539C21.9587 24.9105 21.7577 24.9999 21.5469 24.9999H1.39773C1.18678 24.9999 0.985746 24.9105 0.844793 24.7539C0.703459 24.5971 0.635559 24.3879 0.657494 24.1783ZM14.5874 4.60319C14.5874 2.88562 13.1899 1.48811 11.4721 1.48811C9.75457 1.48811 8.35706 2.88562 8.35706 4.60319V5.41743H14.5874V4.60319ZM20.7207 23.5118L18.9768 6.90554H16.0755V8.54529C16.0755 8.95613 15.7423 9.28934 15.3315 9.28934C14.9206 9.28934 14.5874 8.95613 14.5874 8.54529V6.90554H8.35706V8.54529C8.35706 8.95613 8.02385 9.28934 7.61301 9.28934C7.20217 9.28934 6.86895 8.95613 6.86895 8.54529V6.90554H3.96769L2.2238 23.5118H20.7207Z" fill="white"/>
</svg>
