<svg width="25" height="23" viewBox="0 0 25 23" fill="none" xmlns="http://www.w3.org/2000/svg">
<path d="M24.2722 3.44355C24.2706 3.44355 24.2691 3.44336 24.2676 3.44336H17.627V2.71094C17.627 1.49939 16.6412 0.513672 15.4297 0.513672H9.57031C8.35876 0.513672 7.37305 1.49939 7.37305 2.71094V3.44336H0.732422C0.324631 3.44336 0 3.77753 0 4.17578V20.2891C0 21.5006 0.985718 22.4863 2.19727 22.4863H22.8027C24.0143 22.4863 25 21.5006 25 20.2891V4.19123C25 4.19028 25 4.18932 25 4.18837C24.972 3.70734 24.6761 3.44622 24.2722 3.44355ZM8.83789 2.71094C8.83789 2.30715 9.16653 1.97852 9.57031 1.97852H15.4297C15.8335 1.97852 16.1621 2.30715 16.1621 2.71094V3.44336H8.83789V2.71094ZM23.2513 4.9082L20.9768 11.7316C20.8771 12.0312 20.5978 12.2324 20.2822 12.2324H16.1621V11.5C16.1621 11.0955 15.8342 10.7676 15.4297 10.7676H9.57031C9.16576 10.7676 8.83789 11.0955 8.83789 11.5V12.2324H4.71783C4.40216 12.2324 4.12292 12.0312 4.02317 11.7316L1.74866 4.9082H23.2513ZM14.6973 12.2324V13.6973H10.3027V12.2324H14.6973ZM23.5352 20.2891C23.5352 20.6928 23.2065 21.0215 22.8027 21.0215H2.19727C1.79348 21.0215 1.46484 20.6928 1.46484 20.2891V8.68914L2.63348 12.1948C2.93293 13.0936 3.77064 13.6973 4.71783 13.6973H8.83789V14.4297C8.83789 14.8342 9.16576 15.1621 9.57031 15.1621H15.4297C15.8342 15.1621 16.1621 14.8342 16.1621 14.4297V13.6973H20.2822C21.2294 13.6973 22.0671 13.0936 22.3665 12.1948L23.5352 8.68914V20.2891Z" fill="white"/>
</svg>
