<svg width="22" height="30" viewBox="0 0 22 30" fill="none" xmlns="http://www.w3.org/2000/svg">
<path fill-rule="evenodd" clip-rule="evenodd" d="M20.5 11.1864C20.5 12.9043 19.9122 14.8639 18.9294 16.9084C17.9539 18.9374 16.6383 20.9501 15.2977 22.7472C13.9603 24.5399 12.6194 26.0899 11.6116 27.1924C11.3956 27.4288 11.1952 27.6442 11.0138 27.8366C10.8281 27.6348 10.622 27.4083 10.3994 27.1593C9.38981 26.0302 8.04664 24.4481 6.70696 22.6327C5.36394 20.8127 4.04587 18.7868 3.06884 16.7688C2.08241 14.7313 1.5 12.8159 1.5 11.1864C1.5 5.8129 5.77696 1.5 11 1.5C16.223 1.5 20.5 5.8129 20.5 11.1864ZM22 11.1864C22 17.7703 14.7959 26.0193 12.0478 28.9264C11.7734 29.2168 11.5433 29.4538 11.3694 29.6306C11.1329 29.871 11 30 11 30C11 30 10.8489 29.8489 10.582 29.5694C10.4178 29.3975 10.2097 29.1769 9.9661 28.913C7.22853 25.9484 0 17.5204 0 11.1864C0 5.00834 4.92487 0 11 0C17.0751 0 22 5.00834 22 11.1864ZM15.5 11C15.5 13.4853 13.4853 15.5 11 15.5C8.51472 15.5 6.5 13.4853 6.5 11C6.5 8.51472 8.51472 6.5 11 6.5C13.4853 6.5 15.5 8.51472 15.5 11ZM17 11C17 14.3137 14.3137 17 11 17C7.68629 17 5 14.3137 5 11C5 7.68629 7.68629 5 11 5C14.3137 5 17 7.68629 17 11Z" fill="#1156DE"/>
</svg>
