<svg width="25" height="22" viewBox="0 0 25 22" fill="none" xmlns="http://www.w3.org/2000/svg">
<path d="M24.4849 3.44247C24.1968 2.09636 23.3524 1.03524 22.2815 0.672769C20.3252 0 12.4997 0 12.4997 0C12.4997 0 4.67454 0 2.71821 0.647262C1.66794 1.00934 0.802919 2.09655 0.514833 3.44247C0 5.90111 0 11 0 11C0 11 0 16.1246 0.514833 18.5575C0.803224 19.9034 1.64734 20.9646 2.71836 21.327C4.69514 22 12.5 22 12.5 22C12.5 22 20.3252 22 22.2815 21.3527C23.3526 20.9905 24.1968 19.9293 24.4852 18.5834C24.9999 16.1246 24.9999 11.0259 24.9999 11.0259C24.9999 11.0259 25.0205 5.90111 24.4849 3.44247ZM10.0083 15.7105V6.28947L16.5155 11L10.0083 15.7105Z" fill="#7EB5F9"/>
</svg>
