<svg width="22" height="25" viewBox="0 0 22 25" fill="none" xmlns="http://www.w3.org/2000/svg">
<path fill-rule="evenodd" clip-rule="evenodd" d="M14.9542 1.3H17C17.9389 1.3 18.7 2.06112 18.7 3V22C18.7 22.9389 17.9389 23.7 17 23.7H5C4.06112 23.7 3.3 22.9389 3.3 22V3C3.3 2.06112 4.06112 1.3 5 1.3H7.04578C7.17321 1.70571 7.55224 2 8 2H14C14.4478 2 14.8268 1.70571 14.9542 1.3ZM2 3C2 1.34315 3.34315 0 5 0H17C18.6569 0 20 1.34315 20 3V22C20 23.6569 18.6569 25 17 25H5C3.34315 25 2 23.6569 2 22V3Z" fill="#1156DE"/>
<path fill-rule="evenodd" clip-rule="evenodd" d="M17 0C18.6569 0 20 1.34315 20 3V22C20 23.6569 18.6569 25 17 25H5C3.34315 25 2 23.6569 2 22V3C2 1.34315 3.34315 0 5 0H17ZM7.04578 1.3H5C4.06112 1.3 3.3 2.06112 3.3 3V22C3.3 22.9389 4.06112 23.7 5 23.7H17C17.9389 23.7 18.7 22.9389 18.7 22V3C18.7 2.06112 17.9389 1.3 17 1.3H14.9542C14.8268 1.70571 14.4478 2 14 2H8C7.55224 2 7.17321 1.70571 7.04578 1.3Z" fill="#1156DE"/>
</svg>
