<svg width="25" height="26" viewBox="0 0 25 26" fill="none" xmlns="http://www.w3.org/2000/svg">
<path d="M22.6074 1.31074C21.2587 0.717383 19.49 0.390625 17.627 0.390625C13.8144 0.390625 10.3027 1.79058 10.3027 4.05273C10.3027 4.6187 10.3027 9.01924 10.3027 9.5481C9.58052 9.33779 8.82622 9.22852 8.05664 9.22852C5.90957 9.22852 3.88643 10.077 2.35986 11.6176C0.838086 13.1534 0 15.1835 0 17.334C0 21.7764 3.61421 25.3906 8.05664 25.3906C9.53911 25.3906 10.9644 24.9922 12.2099 24.2462C13.5722 24.977 15.5133 25.3906 17.627 25.3906C19.49 25.3906 21.2587 25.0639 22.6074 24.4705C24.1503 23.7917 25 22.8179 25 21.7285C25 21.2724 25 4.51836 25 4.05273C25 2.96328 24.1503 1.9895 22.6074 1.31074ZM8.05664 23.9258C4.42192 23.9258 1.46484 20.9687 1.46484 17.334C1.46484 13.6723 4.42192 10.6934 8.05664 10.6934C11.7183 10.6934 14.6973 13.6723 14.6973 17.334C14.6973 20.9687 11.7183 23.9258 8.05664 23.9258ZM23.5352 21.7285C23.5352 22.6244 21.2335 23.9258 17.627 23.9258C16.0927 23.9258 14.6433 23.6799 13.5435 23.249C13.621 23.1777 13.6978 23.1053 13.7731 23.0308C14.4326 22.3772 14.9648 21.6326 15.3584 20.8263C16.0861 20.9385 16.8462 20.9961 17.627 20.9961C19.5529 20.9961 21.9412 20.6217 23.5352 19.5791V21.7285ZM23.5352 17.334C23.5352 18.2299 21.2335 19.5312 17.627 19.5312C17.0294 19.5312 16.447 19.4939 15.8857 19.4216C16.0677 18.7485 16.1621 18.0482 16.1621 17.334C16.1621 17.0464 16.1464 16.7611 16.1165 16.4787C16.6098 16.5275 17.1147 16.5527 17.627 16.5527C19.553 16.5527 21.9412 16.1783 23.5352 15.1358V17.334ZM23.5352 12.8906C23.5352 13.7865 21.2335 15.0879 17.627 15.0879C17.0035 15.0879 16.3936 15.0471 15.8069 14.9679C15.4268 13.7349 14.7486 12.6 13.809 11.6496C14.9414 11.9803 16.2567 12.1582 17.627 12.1582C19.553 12.1582 21.9412 11.7838 23.5352 10.7413V12.8906ZM23.5352 8.49609C23.5352 9.39199 21.2335 10.6934 17.627 10.6934C15.9665 10.6934 14.4167 10.411 13.2633 9.89839C12.3407 9.48838 11.7676 8.95103 11.7676 8.49609V6.30835C13.3532 7.34771 15.7213 7.71484 17.627 7.71484C19.553 7.71484 21.9412 7.34043 23.5352 6.2979V8.49609ZM17.627 6.25C14.049 6.25 11.7676 4.96802 11.7676 4.05273C11.7676 3.13462 14.0555 1.85547 17.627 1.85547C21.2335 1.85547 23.5352 3.15684 23.5352 4.05273C23.5352 4.94863 21.2335 6.25 17.627 6.25Z" fill="white"/>
</svg>
