<svg width="21" height="25" viewBox="0 0 21 25" fill="none" xmlns="http://www.w3.org/2000/svg">
<path d="M5.03125 15.4302H1.125C0.585645 15.4302 0.148438 15.8674 0.148438 16.4067V24.0239C0.148438 24.5633 0.585645 25.0005 1.125 25.0005H5.03125C5.57061 25.0005 6.00781 24.5633 6.00781 24.0239V16.4067C6.00781 15.8674 5.57061 15.4302 5.03125 15.4302ZM4.05469 23.0474H2.10156V17.3833H4.05469V23.0474Z" fill="white"/>
<path d="M19.875 7.61769H15.9688C15.4294 7.61769 14.9922 8.0549 14.9922 8.59425V24.0239C14.9922 24.5633 15.4294 25.0005 15.9688 25.0005H19.875C20.4144 25.0005 20.8516 24.5633 20.8516 24.0239V8.59425C20.8516 8.0549 20.4144 7.61769 19.875 7.61769ZM18.8985 23.0474H16.9453V9.57082H18.8985V23.0474Z" fill="white"/>
<path d="M12.4531 11.5239H8.54689C8.00753 11.5239 7.57033 11.9611 7.57033 12.5005V24.0239C7.57033 24.5633 8.00753 25.0005 8.54689 25.0005H12.4531C12.9925 25.0005 13.4297 24.5633 13.4297 24.0239V12.5005C13.4297 11.9611 12.9925 11.5239 12.4531 11.5239ZM11.4766 23.0473H9.52345V13.477H11.4766V23.0473Z" fill="white"/>
<path d="M13.7226 0.000488281H10.0117C9.47233 0.000488281 9.03513 0.437695 9.03513 0.977051C9.03513 1.51641 9.47233 1.95361 10.0117 1.95361H11.365L3.08385 10.2347C2.70246 10.6161 2.70246 11.2344 3.08385 11.6158C3.4652 11.9971 4.08346 11.9972 4.46491 11.6158L12.7461 3.33472V4.68799C12.7461 5.22734 13.1833 5.66455 13.7226 5.66455C14.262 5.66455 14.6992 5.22734 14.6992 4.68799V0.977539C14.6995 0.438721 14.2584 0.000488281 13.7226 0.000488281Z" fill="white"/>
</svg>
