<svg width="15" height="25" viewBox="0 0 15 25" fill="none" xmlns="http://www.w3.org/2000/svg">
<path d="M9.16016 24.9512H5.15663C4.48792 24.9512 3.94394 24.4072 3.94394 23.7385V14.7083H1.6082C0.939484 14.7083 0.395508 14.1642 0.395508 13.4956V9.6262C0.395508 8.95748 0.939484 8.41351 1.6082 8.41351H3.94394V6.47583C3.94394 4.55456 4.54723 2.91996 5.6884 1.74904C6.83472 0.572777 8.4367 -0.0488281 10.3212 -0.0488281L13.3744 -0.043869C14.042 -0.0427246 14.585 0.501251 14.585 1.16882V4.76151C14.585 5.43022 14.0413 5.9742 13.3727 5.9742L11.317 5.97496C10.69 5.97496 10.5304 6.10066 10.4963 6.13918C10.44 6.20308 10.373 6.38371 10.373 6.88248V8.41332H13.2182C13.4324 8.41332 13.6399 8.46615 13.8183 8.56571C14.203 8.78067 14.4422 9.18713 14.4422 9.62639L14.4407 13.4958C14.4407 14.1642 13.8967 14.7081 13.228 14.7081H10.373V23.7385C10.373 24.4072 9.82887 24.9512 9.16016 24.9512ZM5.40955 23.4856H8.90724V14.0522C8.90724 13.6057 9.27059 13.2425 9.71691 13.2425H12.975L12.9764 9.87911H9.71672C9.2704 9.87911 8.90724 9.51595 8.90724 9.06944V6.88248C8.90724 6.30989 8.96542 5.65872 9.39762 5.1693C9.91986 4.57764 10.7429 4.50935 11.3166 4.50935L13.1194 4.50859V1.42136L10.32 1.41678C7.29153 1.41678 5.40955 3.35541 5.40955 6.47583V9.06944C5.40955 9.51576 5.04639 9.87911 4.60007 9.87911H1.86111V13.2425H4.60007C5.04639 13.2425 5.40955 13.6057 5.40955 14.0522V23.4856ZM13.3716 1.42174H13.3718H13.3716Z" fill="#BACFF8"/>
</svg>
