<svg width="20" height="20" viewBox="0 0 20 20" fill="none" xmlns="http://www.w3.org/2000/svg">
<path d="M19.2178 1.82925H7.30215C6.97456 0.767267 6.05426 0 4.97222 0C3.89019 0 2.96989 0.767267 2.64229 1.82925H0.782345C0.350282 1.82925 0 2.21157 0 2.68316C0 3.15474 0.350282 3.53707 0.782345 3.53707H2.64235C2.96994 4.59905 3.89024 5.36632 4.97227 5.36632C6.05431 5.36632 6.97461 4.59905 7.3022 3.53707H19.2179C19.65 3.53707 20.0002 3.15474 20.0002 2.68316C20.0002 2.21157 19.65 1.82925 19.2178 1.82925ZM4.97222 3.65849C4.4795 3.65849 4.07863 3.22095 4.07863 2.68316C4.07863 2.14536 4.4795 1.70782 4.97222 1.70782C5.46494 1.70782 5.86582 2.14536 5.86582 2.68316C5.86582 3.22095 5.46494 3.65849 4.97222 3.65849Z" fill="white"/>
<path d="M19.2178 9.14614H17.3578C17.0303 8.08416 16.1099 7.31689 15.0279 7.31689C13.9459 7.31689 13.0256 8.08416 12.698 9.14614H0.782345C0.350282 9.14614 0 9.52847 0 10.0001C0 10.4716 0.350282 10.854 0.782345 10.854H12.698C13.0256 11.9159 13.946 12.6832 15.028 12.6832C16.11 12.6832 17.0303 11.9159 17.3579 10.854H19.2179C19.65 10.854 20.0002 10.4716 20.0002 10.0001C20.0002 9.52847 19.65 9.14614 19.2178 9.14614ZM15.028 10.9754C14.5352 10.9754 14.1344 10.5378 14.1344 10.0001C14.1344 9.46226 14.5352 9.02472 15.028 9.02472C15.5207 9.02472 15.9216 9.46226 15.9216 10.0001C15.9216 10.5378 15.5207 10.9754 15.028 10.9754Z" fill="white"/>
<path d="M19.2178 16.4625H10.6541C10.3265 15.4006 9.40619 14.6333 8.32416 14.6333C7.24212 14.6333 6.32182 15.4006 5.99423 16.4625H0.782345C0.350282 16.4625 0 16.8449 0 17.3165C0 17.788 0.350282 18.1704 0.782345 18.1704H5.99423C6.32182 19.2323 7.24212 19.9996 8.32416 19.9996C9.40619 19.9996 10.3265 19.2323 10.6541 18.1704H19.2179C19.65 18.1704 20.0002 17.788 20.0002 17.3165C20.0002 16.8449 19.65 16.4625 19.2178 16.4625ZM8.32416 18.2919C7.83144 18.2919 7.43056 17.8543 7.43056 17.3165C7.43056 16.7787 7.83144 16.3412 8.32416 16.3412C8.81688 16.3412 9.21775 16.7787 9.21775 17.3165C9.21775 17.8543 8.81688 18.2919 8.32416 18.2919Z" fill="white"/>
</svg>
