<svg width="20" height="20" viewBox="0 0 20 20" fill="none" xmlns="http://www.w3.org/2000/svg">
<path d="M16.6406 19.3747H3.35932C2.36853 19.3747 1.56244 18.5686 1.56244 17.5778V8.12389C1.56244 7.77874 1.84225 7.49889 2.18744 7.49889C2.53264 7.49889 2.81244 7.77874 2.81244 8.12389V17.5778C2.81244 17.8794 3.05775 18.1247 3.35932 18.1247H16.6406C16.9421 18.1247 17.1874 17.8794 17.1874 17.5778V8.12389C17.1874 7.77874 17.4672 7.49889 17.8124 7.49889C18.1576 7.49889 18.4374 7.77874 18.4374 8.12389V17.5778C18.4374 18.5686 17.6314 19.3747 16.6406 19.3747Z" fill="white"/>
<path d="M19.375 10.3112C19.215 10.3112 19.0551 10.2502 18.9331 10.1281L11.1601 2.35516C10.5204 1.71547 9.4796 1.71547 8.83991 2.35516L1.06694 10.1281C0.822881 10.3722 0.427139 10.3722 0.183076 10.1281C-0.0610254 9.88407 -0.0610254 9.48832 0.183076 9.24426L7.95605 1.47125C9.08308 0.344219 10.9169 0.344219 12.0439 1.47125L19.8169 9.24422C20.061 9.48832 20.061 9.88403 19.8169 10.1281C19.6949 10.2502 19.535 10.3112 19.375 10.3112Z" fill="white"/>
<path d="M12.4999 19.3747H7.49994C7.15475 19.3747 6.87494 19.0948 6.87494 18.7497V13.2028C6.87494 12.1258 7.75111 11.2497 8.82807 11.2497H11.1718C12.2488 11.2497 13.1249 12.1258 13.1249 13.2028V18.7497C13.1249 19.0948 12.8451 19.3747 12.4999 19.3747ZM8.12494 18.1247H11.8749V13.2028C11.8749 12.8151 11.5595 12.4997 11.1718 12.4997H8.82807C8.44037 12.4997 8.12494 12.8151 8.12494 13.2028V18.1247Z" fill="white"/>
</svg>
