<svg width="21" height="25" viewBox="0 0 21 25" fill="none" xmlns="http://www.w3.org/2000/svg">
<path d="M19.5604 6.551C18.6691 3.6715 16.3539 1.33727 13.5183 0.459101C10.4987 -0.476007 7.35073 0.0316106 4.88159 1.85178C3.69849 2.7239 2.71675 3.87424 2.04258 5.17829C1.3458 6.52609 0.977539 8.04348 0.977539 9.56647C0.977539 11.644 1.63472 13.6183 2.87808 15.276L10.5014 25L18.1153 15.2884L18.1248 15.276C19.9854 12.7951 20.5087 9.61491 19.5604 6.551ZM16.9571 14.3908L10.5014 22.626L4.04565 14.3908C2.99707 12.99 2.44277 11.3219 2.44277 9.56647C2.44277 7.00139 3.67949 4.55827 5.75103 3.03122C7.84155 1.49016 10.5146 1.06286 13.0849 1.85876C15.4654 2.59597 17.4103 4.55993 18.1607 6.9842C18.9678 9.59172 18.5291 12.2909 16.9571 14.3908Z" fill="#1156DE"/>
<path d="M10.501 4.43813C7.67331 4.43813 5.37278 6.73867 5.37278 9.56636C5.37278 12.394 7.67331 14.6946 10.501 14.6946C13.3287 14.6946 15.6292 12.394 15.6292 9.56636C15.6292 6.73867 13.3287 4.43813 10.501 4.43813ZM10.501 13.2294C8.48122 13.2294 6.83796 11.5862 6.83796 9.56636C6.83796 7.54658 8.48117 5.90332 10.501 5.90332C12.5208 5.90332 14.164 7.54653 14.164 9.56636C14.164 11.5861 12.5208 13.2294 10.501 13.2294Z" fill="#1156DE"/>
</svg>
