<svg width="18" height="25" viewBox="0 0 18 25" fill="none" xmlns="http://www.w3.org/2000/svg">
<path fill-rule="evenodd" clip-rule="evenodd" d="M15 2H3C2.44772 2 2 2.44772 2 3V21.9252C2 22.4775 2.44772 22.9252 3 22.9252H15C15.5523 22.9252 16 22.4775 16 21.9252V3C16 2.44772 15.5523 2 15 2ZM3 0C1.34315 0 0 1.34315 0 3V21.9252C0 23.5821 1.34315 24.9252 3 24.9252H15C16.6569 24.9252 18 23.5821 18 21.9252V3C18 1.34315 16.6569 0 15 0H3Z" fill="white"/>
<path fill-rule="evenodd" clip-rule="evenodd" d="M13 2.11377H5C5 3.17586 5.86099 4.03685 6.92308 4.03685H11.0769C12.139 4.03685 13 3.17586 13 2.11377Z" fill="white"/>
</svg>
