<svg xmlns="http://www.w3.org/2000/svg" viewBox="0 0 20.46 25"><defs><style>.cls-1{fill:#fff;}</style></defs><title>Profesioanl</title><g id="Layer_2" data-name="Layer 2"><g id="Layer_1-2" data-name="Layer 1"><path class="cls-1" d="M5.39,7.84a1.65,1.65,0,0,0,.37.82c.37,2.52,2.59,4.68,4.42,4.68h.12c2.35-.11,4-2.65,4.4-4.67a2,2,0,0,0,.4-.9A2.16,2.16,0,0,0,15,6.23l-.14-.13c.26-1,.84-2.67-.61-4.2A6.76,6.76,0,0,0,11.42.32,5.68,5.68,0,0,0,9.6,0,4.4,4.4,0,0,0,5.5,3a4.66,4.66,0,0,0,0,3.12.57.57,0,0,0-.14.13C5.11,6.6,5.29,7.38,5.39,7.84ZM6.73,5.76a3.6,3.6,0,0,1-.08-2.3A3.18,3.18,0,0,1,9.6,1.25,4.73,4.73,0,0,1,11,1.5a5.7,5.7,0,0,1,2.35,1.26c.83.87.66,1.76.35,2.85l0,.15-.2.75.47.43a2.48,2.48,0,0,1-.07.54,1.6,1.6,0,0,1-.12.36l-.22.22-.07.37c-.27,1.48-1.55,3.57-3.24,3.65h-.05C9,12.09,7.27,10.39,7,8.48l0-.36-.28-.29a1.22,1.22,0,0,1-.09-.29A5.27,5.27,0,0,1,6.49,7L7,6.63Z"/><path class="cls-1" d="M20.46,22c-.09-1.77-.19-4.58-1.73-6.87a3.33,3.33,0,0,0-1.49-1,19.47,19.47,0,0,1-3.51-1.62l-.28.5.05,3.11-2.87,7.65a.43.43,0,0,1-.8,0L7,16.11S7,13.07,7,13s-.29-.5-.29-.5a19.16,19.16,0,0,1-3.51,1.62,3.33,3.33,0,0,0-1.48,1C.19,17.41.09,20.22,0,22,0,23.21.21,23.67.53,23.8c2,.8,5.85,1.2,9.7,1.2s7.7-.4,9.7-1.2C20.26,23.67,20.51,23.21,20.46,22Zm-19.18.75a3.35,3.35,0,0,1,0-.7V22c.08-1.65.19-4.13,1.48-6.09a2.45,2.45,0,0,1,.9-.57c.16,0,1.12-.4,2.1-.84,0,.8,0,1.64,0,1.64v.23l.08.23,2.69,7.17A27.26,27.26,0,0,1,1.28,22.74Zm17.91,0a27.34,27.34,0,0,1-7.21,1l2.69-7.17.08-.23v-.23l0-1.64c1,.44,1.93.78,2.08.83a2.51,2.51,0,0,1,.92.58,11.91,11.91,0,0,1,1.48,6.08V22A4.27,4.27,0,0,1,19.19,22.74Z"/><path class="cls-1" d="M10.34,14.32h-.13A3.94,3.94,0,0,1,9,14.1l1.14,1.74-1,1,1.05,6.38a.11.11,0,0,0,.22,0l1.05-6.38-1-1,1.12-1.71A4.77,4.77,0,0,1,10.34,14.32Z"/></g></g></svg>