<svg width="25" height="25" viewBox="0 0 25 25" fill="none" xmlns="http://www.w3.org/2000/svg">
<path d="M8.24359 7.71405L8.24381 7.71506C8.31654 8.04961 8.41285 8.19129 8.46471 8.24508L8.59912 8.3845L8.62666 8.57619C8.79059 9.71732 9.3905 10.7935 10.167 11.5727C10.9562 12.3646 11.8414 12.7684 12.5351 12.7341L12.5353 12.7341C13.4959 12.6869 14.361 12.1434 15.0524 11.3228C15.744 10.5018 16.2115 9.45852 16.3804 8.55162L16.4136 8.3737L16.5396 8.24379L16.5396 8.24378C16.54 8.24334 16.5523 8.22992 16.573 8.19604C16.5933 8.16281 16.6171 8.11763 16.6422 8.06C16.6926 7.94449 16.7412 7.79617 16.7789 7.62762C16.8263 7.40867 16.8682 7.16545 16.872 6.94764C16.8753 6.75445 16.8469 6.65362 16.8277 6.6113C16.824 6.60786 16.8202 6.60426 16.8162 6.60055L16.7761 6.56336L16.7611 6.54964L16.7562 6.54523C16.7554 6.54452 16.7549 6.54406 16.7547 6.54383L16.7545 6.54364L16.4768 6.29522L16.5763 5.93621C16.588 5.89414 16.6 5.85146 16.6121 5.80821C16.8907 4.81333 17.2546 3.51441 16.1156 2.30956L8.24359 7.71405ZM8.24359 7.71405L8.23833 7.69008C8.18668 7.45464 8.12994 7.19598 8.11126 6.95438C8.09228 6.70877 8.12535 6.61194 8.13123 6.59471C8.13188 6.59282 8.1322 6.59188 8.13208 6.59183L8.13289 6.59072L8.48672 6.35483L8.37078 5.93631C7.88968 4.19967 8.27327 3.32075 8.31709 3.22033C8.31814 3.21792 8.319 3.21596 8.31964 3.21445L8.31965 3.21445M8.24359 7.71405L8.31965 3.21445M8.31965 3.21445L8.32102 3.21118M8.31965 3.21445L8.32102 3.21118M8.32102 3.21118C8.75398 2.17586 9.41964 1.39309 10.2609 0.968381C11.0929 0.548352 12.1665 0.442956 13.4964 0.887256L8.32102 3.21118ZM13.4965 0.887291C14.4841 1.21748 15.4427 1.59784 16.1156 2.30953L13.4965 0.887291Z" stroke="white" stroke-width="1.2"/>
<path d="M16.3229 13.3989L16.369 16.0973L16.371 16.2113L16.331 16.318L13.4642 23.9711C13.4642 23.9712 13.4642 23.9713 13.4641 23.9714C13.4641 23.9715 13.4641 23.9715 13.464 23.9716C13.4011 24.14 13.2971 24.2845 13.166 24.3957C14.8459 24.3752 16.5011 24.2773 17.9732 24.1029C19.6457 23.9048 21.0431 23.6123 21.9695 23.242C21.9818 23.2287 22.0077 23.192 22.0371 23.1063C22.0993 22.9251 22.1508 22.591 22.1249 22.0136L16.3229 13.3989ZM16.3229 13.3989C16.8312 13.6741 17.4173 13.9345 17.9169 14.1422C18.2981 14.3007 18.6455 14.4351 18.8974 14.5298C19.0235 14.5773 19.1261 14.6149 19.1975 14.6408L19.2803 14.6706L19.3024 14.6785L19.3027 14.6786C19.7536 14.8517 20.0667 15.0647 20.262 15.227C20.3604 15.3087 20.429 15.3776 20.4701 15.4223C20.4901 15.4439 20.5035 15.4598 20.5107 15.4686C21.9222 17.5766 22.0405 20.1663 22.1223 21.9556L22.1249 22.0131L16.3229 13.3989ZM11.5375 23.9711C11.6005 24.1397 11.7045 24.2844 11.8358 24.3957C10.155 24.3753 8.49882 24.2774 7.02606 24.1029C5.35481 23.905 3.95831 23.6127 3.03216 23.2428C3.01978 23.2296 2.99339 23.1926 2.96349 23.1057C2.90121 22.9247 2.84947 22.5908 2.87587 22.0136C2.87587 22.0136 2.87587 22.0136 2.87587 22.0136L2.8782 21.9626C2.95998 20.1736 3.07855 17.5795 4.49107 15.4686C4.49829 15.4598 4.51172 15.4439 4.53161 15.4223C4.57279 15.3776 4.6414 15.3087 4.73972 15.227C4.93502 15.0647 5.24819 14.8517 5.69907 14.6786L5.69934 14.6785L5.72147 14.6706L5.80429 14.6408C5.87567 14.6149 5.97823 14.5773 6.10434 14.5298C6.35629 14.435 6.70359 14.3006 7.08479 14.1421C7.58463 13.9343 8.17114 13.6737 8.67941 13.3981L8.67803 13.4824L8.66008 14.5489L8.64195 15.6136L8.63595 15.9643L8.63427 16.0625L8.63383 16.0884L8.63372 16.095L8.63369 16.0967L8.63368 16.0971L8.63368 16.0972L9.23359 16.1075L8.63368 16.0973L8.63172 16.2112L8.67169 16.318L11.5375 23.9711ZM11.5375 23.9711L12.0996 23.7611L11.5377 23.9715L11.5375 23.9711ZM3.03964 23.2489C3.0395 23.2492 3.03724 23.248 3.0333 23.2439C3.03781 23.2465 3.03978 23.2485 3.03964 23.2489ZM21.9619 23.2484C21.9618 23.248 21.9638 23.2459 21.9683 23.2433C21.9643 23.2474 21.9621 23.2487 21.9619 23.2484Z" stroke="white" stroke-width="1.2"/>
<path d="M12.6033 14.3225L12.4741 14.3254C12.0573 14.3254 11.6367 14.2443 11.2239 14.1016L12.3602 15.8408L11.3406 16.8248L12.3901 23.1983C12.3988 23.2533 12.4461 23.2928 12.502 23.2928C12.557 23.2928 12.6043 23.2533 12.6139 23.1983L13.6635 16.8248L12.6429 15.8408L13.7628 14.1276C13.3972 14.2347 13.0104 14.3061 12.6033 14.3225Z" fill="white"/>
</svg>
