<svg width="22" height="19" viewBox="0 0 22 19" fill="none" xmlns="http://www.w3.org/2000/svg">
<path d="M1.8722 12.7368L5.68764 12.7783V17.0349H1.8722V12.7368ZM9.09228 12.7368L12.9077 12.7783V17.0349H9.09228V12.7368ZM12.9077 6.26251L9.09228 6.17951V1.96514H12.9077V6.26251ZM20.1278 12.7361V16.9494L16.3124 16.9909V12.7361H20.1278ZM20.1892 11.671H18.7062V9.47837C18.7062 9.32905 18.6616 9.19562 18.5746 9.09817C18.4867 8.99969 18.3623 8.9458 18.2201 8.9458H11.4861V7.28575H12.9691C13.498 7.28575 13.8799 6.84068 13.8799 6.27735V1.9084C13.8799 1.34507 13.498 0.9 12.9691 0.9H9.03089C8.50196 0.9 8.12008 1.34507 8.12008 1.9084V6.32061C8.12008 6.88393 8.50196 7.32901 9.03089 7.32901H10.5139V8.9458H3.77992C3.63771 8.9458 3.51329 8.99969 3.4254 9.09817C3.33842 9.19562 3.29382 9.32905 3.29382 9.47837V11.671H1.81081C1.28188 11.671 0.9 12.1161 0.9 12.6794V17.0916C0.9 17.6549 1.28188 18.1 1.81081 18.1H5.74903C6.27797 18.1 6.65985 17.6549 6.65985 17.0916V12.6794C6.65985 12.1161 6.27797 11.671 5.74903 11.671H4.26602V10.0109H10.5139V11.671H9.03089C8.50196 11.671 8.12008 12.1161 8.12008 12.6794V17.0916C8.12008 17.6549 8.50196 18.1 9.03089 18.1H12.9691C13.498 18.1 13.8799 17.6549 13.8799 17.0916V12.6794C13.8799 12.1161 13.498 11.671 12.9691 11.671H11.4861V10.0109H17.734V11.671H16.251C15.722 11.671 15.3402 12.1161 15.3402 12.6794V17.0916C15.3402 17.6549 15.722 18.1 16.251 18.1H20.1892C20.7181 18.1 21.1 17.6549 21.1 17.0916V12.6794C21.1 12.1128 20.6766 11.671 20.1892 11.671Z" fill="white" stroke="white" stroke-width="0.2"/>
</svg>
