<svg width="50" height="50" viewBox="0 0 50 50" fill="none" xmlns="http://www.w3.org/2000/svg">
<g opacity="0.25" clip-path="url(#clip0)">
<path fill-rule="evenodd" clip-rule="evenodd" d="M22.0189 0C9.87803 0 0 9.87803 0 22.0189C0 34.1605 9.87803 44.0379 22.0189 44.0379C27.3598 44.0379 32.2625 42.1267 36.0792 38.9522L46.5309 49.4039C46.9279 49.8009 47.4476 49.9994 47.9679 49.9994C48.4875 49.9994 49.0079 49.8009 49.4049 49.4039C50.199 48.6106 50.199 47.3233 49.4049 46.5299L38.9531 36.0781C42.127 32.2616 44.0379 27.3593 44.0379 22.0189C44.0379 9.87803 34.1605 0 22.0189 0ZM22.0189 39.9729C12.1192 39.9729 4.06504 31.9188 4.06504 22.019C4.06504 12.1193 12.1192 4.06504 22.0189 4.06504C31.9187 4.06504 39.9729 12.1192 39.9729 22.0189C39.9729 31.9187 31.9187 39.9729 22.0189 39.9729ZM23 16C23 15.4477 22.5523 15 22 15C21.4477 15 21 15.4477 21 16V21H16C15.4477 21 15 21.4477 15 22C15 22.5523 15.4477 23 16 23H21V28C21 28.5523 21.4477 29 22 29C22.5523 29 23 28.5523 23 28V23H28C28.5523 23 29 22.5523 29 22C29 21.4477 28.5523 21 28 21H23V16Z" fill="#7EB5F9"/>
</g>
<defs>
<clipPath id="clip0">
<rect width="50" height="50" fill="white"/>
</clipPath>
</defs>
</svg>
