<svg width="66" height="65" viewBox="0 0 66 65" fill="none" xmlns="http://www.w3.org/2000/svg">
<path fill-rule="evenodd" clip-rule="evenodd" d="M38.25 1C38.25 0.447715 38.6977 0 39.25 0H64.25C64.8023 0 65.25 0.447715 65.25 1V9.33333C65.25 9.88562 64.8023 10.3333 64.25 10.3333H39.25C38.6977 10.3333 38.25 9.88562 38.25 9.33333V6.78702L18.4931 16.6687H26.75C27.3023 16.6687 27.75 17.1165 27.75 17.6687V31.2542H38.25V28.0854C38.25 27.5331 38.6977 27.0854 39.25 27.0854H64.25C64.8023 27.0854 65.25 27.5331 65.25 28.0854V36.4187C65.25 36.971 64.8023 37.4187 64.25 37.4187H39.25C38.6977 37.4187 38.25 36.971 38.25 36.4187V33.2542H27.75V46.8354C27.75 47.3877 27.3023 47.8354 26.75 47.8354H18.4861L38.25 57.7174V55.1667C38.25 54.6144 38.6977 54.1667 39.25 54.1667H64.25C64.8023 54.1667 65.25 54.6144 65.25 55.1667V63.5C65.25 64.0523 64.8023 64.5 64.25 64.5H39.25C38.6977 64.5 38.25 64.0523 38.25 63.5V60.3354H14.25C13.6977 60.3354 13.25 59.8877 13.25 59.3354V47.8354H1.75C1.19772 47.8354 0.75 47.3877 0.75 46.8354V17.6687C0.75 17.1165 1.19772 16.6687 1.75 16.6687H13.2583V5.16875C13.2583 4.61647 13.706 4.16875 14.2583 4.16875H38.25V1ZM40.25 5.18283C40.2501 5.17362 40.2501 5.16439 40.25 5.15514V2H63.25V8.33333H40.25V5.18283ZM35.0152 6.16875H15.2583V16.0505L35.0152 6.16875ZM14.2572 18.6687H2.75V45.8354H14.2477C14.2493 45.8354 14.2508 45.8354 14.2524 45.8354H25.75V18.6687H14.2595C14.2588 18.6687 14.258 18.6687 14.2572 18.6687ZM15.25 48.4534V58.3354H35.0139L15.25 48.4534ZM40.25 59.3491V62.5H63.25V56.1667H40.25V59.3213C40.2501 59.3305 40.2501 59.3398 40.25 59.3491ZM40.25 35.4187H63.25V29.0854H40.25V35.4187ZM4.925 26.0021C4.925 25.4498 5.37271 25.0021 5.925 25.0021H22.5917C23.1439 25.0021 23.5917 25.4498 23.5917 26.0021C23.5917 26.5544 23.1439 27.0021 22.5917 27.0021H5.925C5.37271 27.0021 4.925 26.5544 4.925 26.0021ZM4.925 32.25C4.925 31.6977 5.37271 31.25 5.925 31.25H22.5917C23.1439 31.25 23.5917 31.6977 23.5917 32.25C23.5917 32.8023 23.1439 33.25 22.5917 33.25H5.925C5.37271 33.25 4.925 32.8023 4.925 32.25ZM22.5917 37.5021V39.5021H5.925V37.5021H22.5917Z" fill="#126EB9"/>
</svg>
