<svg width="68" height="66" viewBox="0 0 68 66" fill="none" xmlns="http://www.w3.org/2000/svg">
<path d="M24.1169 1L31.7387 29.4443M8.51742 59.2245L29.34 38.4019M66.7419 43.6223L38.2976 36.0005M9.17857 39.2552C9.38471 41.2976 9.79966 43.2664 10.402 45.1411C10.7688 46.2859 11.2078 47.3924 11.7084 48.4607M51.0834 53.9728C52.438 52.3101 53.6025 50.459 54.5422 48.4578M41.1459 11.3297C38.6375 10.3556 35.9363 9.82586 33.1253 9.82586M51.8651 65C52.2533 64.6939 52.6334 64.379 53.0055 64.0553C57.131 60.4767 60.4399 55.8092 62.5735 50.4472M49.188 5.72341C48.3206 5.17014 47.4264 4.66395 46.5109 4.20191C42.4363 2.1448 37.9013 1 33.1253 1C32.2231 1 31.3317 1.0412 30.4482 1.12066M1.10976 33.3693C1.03748 34.3405 1 35.3234 1 36.3152C1 42.7485 2.56343 48.7786 5.29676 53.9728C5.6314 54.6085 5.98478 55.2324 6.35422 55.8445M38.2976 33.2297C39.0632 36.0862 37.3686 39.023 34.5121 39.786C31.6557 40.5516 28.7189 38.857 27.9559 36.0005C27.1903 33.1441 28.8849 30.2073 31.7413 29.4443C34.5951 28.6786 37.5319 30.3732 38.2976 33.2297Z" stroke="#126EB9" stroke-width="2" stroke-miterlimit="10" stroke-linecap="round" stroke-linejoin="round"/>
</svg>
