<svg width="67" height="67" viewBox="0 0 67 67" fill="none" xmlns="http://www.w3.org/2000/svg">
<path fill-rule="evenodd" clip-rule="evenodd" d="M23.6037 0.0326228C24.1381 -0.106778 24.6843 0.213434 24.8237 0.747837L32.1244 28.7356C35.1614 28.4127 38.0399 30.3983 38.8443 33.4811C39.0493 34.2669 39.1029 35.0597 39.0226 35.8259L66.2654 43.3243C66.7979 43.4709 67.1107 44.0214 66.9641 44.5538C66.8176 45.0863 66.2671 45.3992 65.7346 45.2526L38.5131 37.76C37.7707 39.4656 36.312 40.8313 34.3994 41.3564C32.4882 41.8826 30.5575 41.4512 29.0792 40.3595L9.14912 60.832C8.76388 61.2277 8.13077 61.2362 7.73504 60.851C7.3393 60.4657 7.3308 59.8326 7.71605 59.4369L27.6769 38.9328C27.2311 38.3073 26.8893 37.5894 26.6839 36.7993C25.8806 33.7191 27.4049 30.5315 30.195 29.2627L22.8884 1.25265C22.749 0.718249 23.0693 0.172023 23.6037 0.0326228ZM29.7549 38.3081C29.7429 38.2952 29.7305 38.2825 29.7177 38.27C29.7175 38.2698 29.7174 38.2697 29.7172 38.2695C29.2086 37.7416 28.8214 37.0723 28.6195 36.296L28.6193 36.2952C27.9949 33.902 29.384 31.4775 31.659 30.8533L31.6601 30.853C33.9224 30.2296 36.2871 31.6025 36.9091 33.986C37.1095 34.7541 37.1025 35.5254 36.9254 36.2393C36.9208 36.2535 36.9165 36.2678 36.9125 36.2823C36.9062 36.3052 36.9008 36.3281 36.8962 36.351C36.4941 37.8115 35.376 39.0145 33.8694 39.4279L33.8685 39.4281C32.3594 39.8436 30.8066 39.3729 29.7549 38.3081ZM30.0239 0.127029C30.9273 0.0435629 31.8394 0.000243871 32.7628 0.000243871C37.6519 0.000243871 42.293 1.20461 46.4577 3.36446C47.3916 3.84861 48.3051 4.3797 49.1923 4.96101C49.6542 5.2637 49.7833 5.88356 49.4806 6.34551C49.178 6.80747 48.5581 6.93658 48.0961 6.6339C47.2682 6.09141 46.4136 5.59434 45.5371 5.13999L45.5369 5.13991C41.6445 3.12125 37.3179 2.00024 32.7628 2.00024C31.9022 2.00024 31.0514 2.04061 30.2079 2.11855C29.6579 2.16936 29.1709 1.76473 29.1201 1.21479C29.0693 0.664844 29.474 0.177838 30.0239 0.127029ZM31.7628 9.96401C31.7628 9.41172 32.2105 8.96401 32.7628 8.96401C35.6725 8.96401 38.4688 9.5275 41.0634 10.5625C41.5764 10.7671 41.8264 11.3489 41.6217 11.8619C41.4171 12.3748 40.8354 12.6248 40.3224 12.4202C37.9568 11.4765 35.4116 10.964 32.7628 10.964C32.2105 10.964 31.7628 10.5163 31.7628 9.96401ZM1.18079 32.878C1.73163 32.9179 2.14582 33.3968 2.10591 33.9476C2.03616 34.9103 2 35.8845 2 36.8673C2 43.243 3.50832 49.211 6.13829 54.3448C6.45993 54.9725 6.79999 55.5892 7.15599 56.1951C7.43577 56.6713 7.27655 57.2841 6.80037 57.5639C6.3242 57.8437 5.71138 57.6845 5.4316 57.2083C5.05709 56.5709 4.69839 55.9204 4.35833 55.2569L4.35826 55.2567C1.58326 49.8397 0 43.5591 0 36.8673C0 35.8355 0.0379589 34.8131 0.111138 33.8031C0.15105 33.2522 0.629949 32.8381 1.18079 32.878ZM8.98849 38.858C9.53813 38.804 10.0275 39.2058 10.0815 39.7554C10.2786 41.7619 10.6753 43.6942 11.2503 45.5325L11.2506 45.5333C11.6002 46.6542 12.019 47.7389 12.4974 48.7875C12.7266 49.2899 12.5051 49.8831 12.0027 50.1123C11.5002 50.3415 10.907 50.12 10.6778 49.6176C10.1662 48.4962 9.71692 47.3332 9.34126 46.1288C8.72532 44.1595 8.30152 42.0929 8.09107 39.951C8.03707 39.4013 8.43886 38.912 8.98849 38.858ZM54.3537 48.2901C54.856 48.5197 55.0771 49.113 54.8475 49.6153C53.8855 51.7197 52.6921 53.669 51.3017 55.4222C50.9585 55.8549 50.3295 55.9275 49.8968 55.5843C49.4641 55.2411 49.3915 54.6121 49.7347 54.1794C51.0229 52.5551 52.1323 50.7443 53.0285 48.7838C53.2581 48.2815 53.8514 48.0604 54.3537 48.2901ZM62.2399 50.2876C62.7549 50.4871 63.0107 51.0663 62.8112 51.5813C60.6469 57.1684 57.2863 62.0429 53.0839 65.7874L52.4187 65.0408L53.085 65.7865C53.0847 65.7868 53.0843 65.7871 53.0839 65.7874C52.7043 66.1267 52.3165 66.4566 51.9205 66.7773C51.4913 67.1249 50.8616 67.0588 50.514 66.6296C50.1664 66.2004 50.2325 65.5707 50.6617 65.2232C51.033 64.9225 51.3965 64.6131 51.7523 64.2952L51.7534 64.2942C55.7088 60.7697 58.8914 56.1633 60.9462 50.8588C61.1457 50.3438 61.7249 50.0881 62.2399 50.2876Z" fill="#126EB9"/>
</svg>
