<svg width="65" height="65" viewBox="0 0 65 65" fill="none" xmlns="http://www.w3.org/2000/svg">
<path fill-rule="evenodd" clip-rule="evenodd" d="M0 0.970118C0 0.434337 0.434337 0 0.970118 0H64.0278C64.5636 0 64.9979 0.434337 64.9979 0.970118V30.397C64.9979 33.2554 62.6824 35.571 59.8239 35.571H5.17396C2.31556 35.571 0 33.2554 0 30.397V0.970118ZM1.94024 1.94024V30.397C1.94024 32.1839 3.38712 33.6308 5.17396 33.6308H59.8239C61.6108 33.6308 63.0577 32.1839 63.0577 30.397V1.94024H1.94024ZM48.3442 9.37781C48.3442 8.84202 48.7785 8.40769 49.3143 8.40769H57.722C58.2578 8.40769 58.6921 8.84202 58.6921 9.37781C58.6921 9.91359 58.2578 10.3479 57.722 10.3479H49.3143C48.7785 10.3479 48.3442 9.91359 48.3442 9.37781ZM6.30577 15.6836C6.30577 15.1478 6.7401 14.7135 7.27588 14.7135H57.722C58.2578 14.7135 58.6921 15.1478 58.6921 15.6836C58.6921 16.2194 58.2578 16.6537 57.722 16.6537H7.27588C6.7401 16.6537 6.30577 16.2194 6.30577 15.6836ZM6.30577 21.9893C6.30577 21.4536 6.7401 21.0192 7.27588 21.0192H57.722C58.2578 21.0192 58.6921 21.4536 58.6921 21.9893C58.6921 22.5251 58.2578 22.9595 57.722 22.9595H7.27588C6.7401 22.9595 6.30577 22.5251 6.30577 21.9893ZM6.30577 28.2951C6.30577 27.7593 6.7401 27.325 7.27588 27.325H57.722C58.2578 27.325 58.6921 27.7593 58.6921 28.2951C58.6921 28.8309 58.2578 29.2652 57.722 29.2652H7.27588C6.7401 29.2652 6.30577 28.8309 6.30577 28.2951ZM12.9006 37.8325C13.4364 37.8325 13.8707 38.2668 13.8707 38.8026C13.8707 40.7499 12.9464 41.7743 12.2175 42.582L12.2 42.6014C11.5109 43.3653 11.0289 43.9151 11.0289 45.1021C11.0289 46.2891 11.5109 46.8389 12.2001 47.6031L12.2172 47.6221C12.9463 48.4303 13.8707 49.4551 13.8707 51.4036C13.8707 53.3551 12.9466 54.3813 12.2172 55.1912L12.2007 55.2096C11.5114 55.9751 11.0289 56.5261 11.0289 57.7157C11.0289 58.9065 11.5117 59.4582 12.2007 60.2234L12.218 60.2426C12.947 61.0522 13.8707 62.0779 13.8707 64.0278C13.8707 64.5636 13.4364 64.9979 12.9006 64.9979C12.3648 64.9979 11.9305 64.5636 11.9305 64.0278C11.9305 62.8382 11.4481 62.2872 10.7588 61.5217L10.7423 61.5033C10.0128 60.6933 9.08871 59.6672 9.08871 57.7157C9.08871 55.7658 10.0124 54.7401 10.7415 53.9306L10.7588 53.9113C11.4478 53.1461 11.9305 52.5945 11.9305 51.4036C11.9305 50.2167 11.4486 49.6668 10.7593 48.9026L10.7422 48.8836C10.0132 48.0754 9.08871 47.0506 9.08871 45.1021C9.08871 43.1532 10.0135 42.1284 10.7427 41.3202L10.7594 41.3017C11.4489 40.5376 11.9305 39.9883 11.9305 38.8026C11.9305 38.2668 12.3648 37.8325 12.9006 37.8325ZM27.6141 37.8346C28.1499 37.8346 28.5842 38.2689 28.5842 38.8047C28.5842 40.7536 27.6594 41.7784 26.9302 42.5865L26.9135 42.6051C26.224 43.3692 25.7424 43.9185 25.7424 45.1042C25.7424 46.2912 26.2243 46.841 26.9136 47.6052L26.9307 47.6242C27.6597 48.4324 28.5842 49.4572 28.5842 51.4057C28.5842 53.3557 27.6605 54.3814 26.9314 55.1909L26.9141 55.2101C26.2251 55.9753 25.7424 56.527 25.7424 57.7178C25.7424 58.9074 26.2248 59.4584 26.9141 60.2239L26.9307 60.2423C27.6601 61.0523 28.5842 62.0784 28.5842 64.0299C28.5842 64.5657 28.1499 65 27.6141 65C27.0783 65 26.644 64.5657 26.644 64.0299C26.644 62.839 26.1612 62.2874 25.4723 61.5222L25.4549 61.503C24.7259 60.6934 23.8022 59.6677 23.8022 57.7178C23.8022 55.7664 24.7263 54.7402 25.4557 53.9302L25.4723 53.9118C26.1615 53.1464 26.644 52.5953 26.644 51.4057C26.644 50.2188 26.1621 49.6689 25.4728 48.9047L25.4557 48.8857C24.7266 48.0775 23.8022 47.0527 23.8022 45.1042C23.8022 43.1569 24.7265 42.1325 25.4554 41.3248L25.4729 41.3054C26.1621 40.5415 26.644 39.9917 26.644 38.8047C26.644 38.2689 27.0783 37.8346 27.6141 37.8346ZM42.3275 37.8346C42.8633 37.8346 43.2977 38.2689 43.2977 38.8047C43.2977 40.7536 42.3729 41.7784 41.6437 42.5865L41.6269 42.6051C40.9375 43.3692 40.4559 43.9185 40.4559 45.1042C40.4559 46.2912 40.9378 46.841 41.627 47.6052L41.6441 47.6242C42.3732 48.4324 43.2977 49.4572 43.2977 51.4057C43.2977 53.3557 42.3739 54.3814 41.6449 55.1909L41.6276 55.2101C40.9386 55.9753 40.4559 56.527 40.4559 57.7178C40.4559 58.9074 40.9383 59.4584 41.6276 60.2239L41.6441 60.2423C42.3735 61.0523 43.2977 62.0784 43.2977 64.0299C43.2977 64.5657 42.8633 65 42.3275 65C41.7918 65 41.3574 64.5657 41.3574 64.0299C41.3574 62.839 40.8747 62.2874 40.1857 61.5222L40.1684 61.503C39.4393 60.6934 38.5156 59.6677 38.5156 57.7178C38.5156 55.7664 39.4397 54.7402 40.1692 53.9302L40.1857 53.9118C40.875 53.1464 41.3574 52.5953 41.3574 51.4057C41.3574 50.2188 40.8755 49.6689 40.1862 48.9047L40.1692 48.8857C39.4401 48.0775 38.5156 47.0527 38.5156 45.1042C38.5156 43.1569 39.44 42.1325 40.1688 41.3248L40.1864 41.3054C40.8755 40.5415 41.3574 39.9917 41.3574 38.8047C41.3574 38.2689 41.7918 37.8346 42.3275 37.8346ZM57.041 37.8346C57.5768 37.8346 58.0111 38.2689 58.0111 38.8047C58.0111 40.7536 57.0864 41.7784 56.3571 42.5865L56.3404 42.6051C55.6509 43.3692 55.1693 43.9185 55.1693 45.1042C55.1693 46.2912 55.6512 46.841 56.3405 47.6052L56.3576 47.6242C57.0867 48.4324 58.0111 49.4572 58.0111 51.4057C58.0111 53.3556 57.0874 54.3814 56.3584 55.1909L56.341 55.2101C55.652 55.9753 55.1693 56.527 55.1693 57.7178C55.1693 58.9074 55.6518 59.4584 56.341 60.2239L56.3576 60.2423C57.087 61.0522 58.0111 62.0784 58.0111 64.0299C58.0111 64.5657 57.5768 65 57.041 65C56.5052 65 56.0709 64.5657 56.0709 64.0299C56.0709 62.839 55.5882 62.2874 54.8992 61.5222L54.8818 61.503C54.1528 60.6934 53.2291 59.6677 53.2291 57.7178C53.2291 55.7663 54.1532 54.7402 54.8826 53.9302L54.8992 53.9118C55.5884 53.1464 56.0709 52.5953 56.0709 51.4057C56.0709 50.2188 55.589 49.6689 54.8997 48.9047L54.8826 48.8857C54.1535 48.0775 53.2291 47.0527 53.2291 45.1042C53.2291 43.1569 54.1534 42.1325 54.8823 41.3248L54.8998 41.3054C55.589 40.5415 56.0709 39.9917 56.0709 38.8047C56.0709 38.2689 56.5052 37.8346 57.041 37.8346Z" fill="#126EB9"/>
</svg>
