<svg width="66" height="66" viewBox="0 0 66 66" fill="none" xmlns="http://www.w3.org/2000/svg">
<path d="M36.6084 22.3522L56.0063 2.9543C57.9479 1.01263 61.0959 1.01263 63.0375 2.9543C64.9792 4.89596 64.9792 8.04388 63.0375 9.98555L43.6396 29.3835L36.6084 22.3522ZM40.123 25.8668L59.4604 6.5293L40.123 25.8668ZM10.2271 55.7626L26.3334 39.6564L10.2271 55.7626ZM1.98962 60.3689L5.62087 64.0001L12.3459 57.8835L8.10628 53.6439L1.98962 60.3689ZM40.2813 47.648C38.6355 52.0876 39.5959 57.273 43.1625 60.8418C47.0104 64.6897 52.7438 65.5043 57.3917 63.2855L49.0563 54.9501C47.4355 53.3293 47.4355 50.6772 49.0563 49.0585C50.6771 47.4376 53.3292 47.4376 54.9479 49.0585L63.2834 57.3939C65.5021 52.748 64.6875 47.0147 60.8396 43.1647C57.2729 39.598 52.0855 38.6376 47.6459 40.2835L25.7188 18.3564C27.3667 13.9168 26.4063 8.72721 22.8375 5.16055C18.9896 1.31263 13.2563 0.498046 8.60837 2.7168L16.9438 11.0522C18.5646 12.673 18.5646 15.3251 16.9438 16.9439C15.3229 18.5647 12.6709 18.5647 11.0521 16.9439L2.7167 8.60846C0.49795 13.2543 1.31253 18.9876 5.16045 22.8376C8.72712 26.4043 13.9125 27.3647 18.35 25.721L40.2813 47.648Z" stroke="#126EB9" stroke-width="2" stroke-miterlimit="10" stroke-linejoin="round"/>
</svg>
