<svg width="66" height="65" viewBox="0 0 66 65" fill="none" xmlns="http://www.w3.org/2000/svg">
<path d="M13.575 63.5C13.575 60.3729 10.7583 60.3729 10.7583 57.2437C10.7583 54.1167 13.575 54.1167 13.575 50.9875C13.575 47.8646 10.7583 47.8646 10.7583 44.7417C10.7583 41.6187 13.575 41.6187 13.575 38.4979M28.1583 38.5C28.1583 41.6229 25.3417 41.6229 25.3417 44.7437C25.3417 47.8667 28.1583 47.8667 28.1583 50.9896C28.1583 54.1167 25.3417 54.1167 25.3417 57.2458C25.3417 60.3729 28.1583 60.3729 28.1583 63.5021M42.7417 38.5C42.7417 41.6229 39.925 41.6229 39.925 44.7437C39.925 47.8667 42.7417 47.8667 42.7417 50.9896C42.7417 54.1167 39.925 54.1167 39.925 57.2458C39.925 60.3729 42.7417 60.3729 42.7417 63.5021M57.325 38.5C57.325 41.6229 54.5083 41.6229 54.5083 44.7437C54.5083 47.8667 57.325 47.8667 57.325 50.9896C57.325 54.1167 54.5083 54.1167 54.5083 57.2458C54.5083 60.3729 57.325 60.3729 57.325 63.5021M8 28.0833H58M8 21.8333H58M8 15.5833H58M49.6667 9.33333H58M64.25 30.1667V1H1.75V30.1667C1.75 32.4687 3.61458 34.3333 5.91667 34.3333H60.0833C62.3854 34.3333 64.25 32.4687 64.25 30.1667Z" stroke="#126EB9" stroke-width="2" stroke-miterlimit="10" stroke-linecap="round" stroke-linejoin="round"/>
</svg>
