<svg width="64" height="44" viewBox="0 0 64 44" fill="none" xmlns="http://www.w3.org/2000/svg">
<path d="M0.541748 5.16667C2.08133 5.16667 3.35633 4.04167 4.448 3.08333C5.53966 2.125 6.81466 1 8.35425 1C9.89383 1 11.1688 2.125 12.2605 3.08333C13.3522 4.04167 14.6272 5.16667 16.1667 5.16667C17.7063 5.16667 18.9813 4.04167 20.073 3.08333C21.1647 2.125 22.4397 1 23.9792 1C25.5188 1 26.7938 2.125 27.8855 3.08333C28.9772 4.04167 30.2522 5.16667 31.7917 5.16667C33.3313 5.16667 34.6063 4.04167 35.698 3.08333C36.7897 2.125 38.0647 1 39.6042 1C41.1438 1 42.4188 2.125 43.5105 3.08333C44.6022 4.04167 45.8772 5.16667 47.4167 5.16667C48.9563 5.16667 50.2313 4.04167 51.323 3.08333C52.4147 2.125 53.6897 1 55.2292 1C56.7688 1 57.9917 2.125 59.0834 3.08333C60.1751 4.04167 61.5084 5.16667 63.048 5.16667M63.048 17.6667C61.5084 17.6667 60.1751 16.5417 59.0834 15.5833C57.9917 14.625 56.7688 13.5 55.2292 13.5C53.6897 13.5 52.4147 14.625 51.323 15.5833C50.2313 16.5417 48.9563 17.6667 47.4167 17.6667C45.8772 17.6667 44.6022 16.5417 43.5105 15.5833C42.4188 14.625 41.1438 13.5 39.6042 13.5C38.0647 13.5 36.7897 14.625 35.698 15.5833C34.6063 16.5417 33.3313 17.6667 31.7917 17.6667C30.2522 17.6667 28.9772 16.5417 27.8855 15.5833C26.7938 14.625 25.5188 13.5 23.9792 13.5C22.4397 13.5 21.1647 14.625 20.073 15.5833C18.9813 16.5417 17.7063 17.6667 16.1667 17.6667C14.6272 17.6667 13.3522 16.5417 12.2605 15.5833C11.1688 14.625 9.89383 13.5 8.35425 13.5C6.81466 13.5 5.53966 14.625 4.448 15.5833C3.35633 16.5417 2.08133 17.6667 0.541748 17.6667M63.048 30.1667C61.5084 30.1667 60.1751 29.0417 59.0834 28.0833C57.9917 27.125 56.7688 26 55.2292 26C53.6897 26 52.4147 27.125 51.323 28.0833C50.2313 29.0417 48.9563 30.1667 47.4167 30.1667C45.8772 30.1667 44.6022 29.0417 43.5105 28.0833C42.4188 27.125 41.1438 26 39.6042 26C38.0647 26 36.7897 27.125 35.698 28.0833C34.6063 29.0417 33.3313 30.1667 31.7917 30.1667C30.2522 30.1667 28.9772 29.0417 27.8855 28.0833C26.7938 27.125 25.5188 26 23.9792 26C22.4397 26 21.1647 27.125 20.073 28.0833C18.9813 29.0417 17.7063 30.1667 16.1667 30.1667C14.6272 30.1667 13.3522 29.0417 12.2605 28.0833C11.1688 27.125 9.89383 26 8.35425 26C6.81466 26 5.53966 27.125 4.448 28.0833C3.35633 29.0417 2.08133 30.1667 0.541748 30.1667M63.048 42.6667C61.5084 42.6667 60.1751 41.5417 59.0834 40.5833C57.9917 39.625 56.7688 38.5 55.2292 38.5C53.6897 38.5 52.4147 39.625 51.323 40.5833C50.2313 41.5417 48.9563 42.6667 47.4167 42.6667C45.8772 42.6667 44.6022 41.5417 43.5105 40.5833C42.4188 39.625 41.1438 38.5 39.6042 38.5C38.0647 38.5 36.7897 39.625 35.698 40.5833C34.6063 41.5417 33.3313 42.6667 31.7917 42.6667C30.2522 42.6667 28.9772 41.5417 27.8855 40.5833C26.7938 39.625 25.5188 38.5 23.9792 38.5C22.4397 38.5 21.1647 39.625 20.073 40.5833C18.9813 41.5417 17.7063 42.6667 16.1667 42.6667C14.6272 42.6667 13.3522 41.5417 12.2605 40.5833C11.1688 39.625 9.89383 38.5 8.35425 38.5C6.81466 38.5 5.53966 39.625 4.448 40.5833C3.35633 41.5417 2.08133 42.6667 0.541748 42.6667" stroke="#126EB9" stroke-width="2" stroke-miterlimit="10" stroke-linejoin="round"/>
</svg>
