<svg width="65" height="65" viewBox="0 0 65 65" fill="none" xmlns="http://www.w3.org/2000/svg">
<path fill-rule="evenodd" clip-rule="evenodd" d="M6.50705 2.56372C5.9158 2.9813 5.36065 3.53514 4.78029 4.11623C4.76752 4.12902 4.75467 4.14188 4.74177 4.15481C4.19428 4.70311 3.53263 5.36574 2.79429 5.88721C2.03319 6.42475 1.09597 6.88228 2.38013e-05 6.88228V4.94198C0.505082 4.94198 1.0313 4.73235 1.61719 4.31856C2.20843 3.90098 2.76358 3.34715 3.34394 2.76605C3.35672 2.75326 3.36956 2.7404 3.38246 2.72748C3.92995 2.17917 4.5916 1.51654 5.32994 0.995074C6.09105 0.457531 7.02826 0 8.12421 0C9.22016 0 10.1574 0.457531 10.9185 0.995074C11.6568 1.51654 12.3185 2.17917 12.8659 2.72747L12.9045 2.76605C13.4848 3.34715 14.04 3.90098 14.6312 4.31856C15.2171 4.73235 15.7433 4.94198 16.2484 4.94198C16.7535 4.94198 17.2797 4.73235 17.8656 4.31856C18.4568 3.90098 19.0119 3.34715 19.5923 2.76605L19.6308 2.72746C20.1783 2.17916 20.84 1.51653 21.5783 0.995074C22.3394 0.457531 23.2766 0 24.3726 0C25.4685 0 26.4057 0.457531 27.1668 0.995075C27.9052 1.51654 28.5668 2.17917 29.1143 2.72747L29.1528 2.76605C29.7332 3.34715 30.2884 3.90098 30.8796 4.31856C31.4655 4.73235 31.9917 4.94198 32.4968 4.94198C33.0018 4.94198 33.528 4.73235 34.1139 4.31856C34.7052 3.90098 35.2603 3.34715 35.8407 2.76605L35.8792 2.72746C36.4267 2.17916 37.0883 1.51653 37.8267 0.995074C38.5878 0.457531 39.525 0 40.6209 0C41.7169 0 42.6541 0.457531 43.4152 0.995074C44.1536 1.51654 44.8152 2.17919 45.3627 2.72749L45.4012 2.76605C45.9816 3.34715 46.5367 3.90098 47.128 4.31856C47.7139 4.73235 48.2401 4.94198 48.7451 4.94198C49.2502 4.94198 49.7764 4.73235 50.3623 4.31856C50.9535 3.90098 51.5087 3.34715 52.0891 2.76605L52.1276 2.72749C52.675 2.17918 53.3367 1.51654 54.075 0.995075C54.8362 0.457531 55.7734 0 56.8693 0C57.9689 0 58.8947 0.460358 59.6443 1.00065C60.3269 1.49263 60.9453 2.11342 61.4664 2.63666C61.5101 2.68052 61.5531 2.7237 61.5954 2.76605C62.1675 3.33884 62.7396 3.89513 63.3439 4.31257C63.9473 4.72929 64.491 4.94198 65 4.94198V6.88228C63.908 6.88228 62.958 6.42781 62.184 5.89319C61.411 5.3593 60.7222 4.6801 60.1591 4.11623C60.1234 4.08056 60.088 4.04502 60.0527 4.00965C59.5054 3.46097 58.9965 2.95093 58.4516 2.55815C57.8813 2.14711 57.3708 1.9403 56.8693 1.9403C56.3643 1.9403 55.838 2.14994 55.2522 2.56372C54.6609 2.9813 54.1058 3.53513 53.5254 4.11623L53.4869 4.15478C52.9394 4.70309 52.2778 5.36574 51.5394 5.88721C50.7783 6.42475 49.8411 6.88228 48.7451 6.88228C47.6492 6.88228 46.712 6.42475 45.9509 5.88721C45.2125 5.36574 44.5509 4.70309 44.0034 4.15479L43.9649 4.11623C43.3845 3.53514 42.8294 2.9813 42.2381 2.56372C41.6522 2.14994 41.126 1.9403 40.6209 1.9403C40.1159 1.9403 39.5897 2.14994 39.0038 2.56372C38.4125 2.9813 37.8574 3.53514 37.277 4.11623L37.2385 4.15482C36.691 4.70312 36.0294 5.36575 35.291 5.88721C34.5299 6.42475 33.5927 6.88228 32.4968 6.88228C31.4008 6.88228 30.4636 6.42475 29.7025 5.88721C28.9641 5.36574 28.3025 4.70311 27.755 4.15481L27.7165 4.11623C27.1361 3.53514 26.581 2.9813 25.9897 2.56372C25.4039 2.14993 24.8776 1.9403 24.3726 1.9403C23.8675 1.9403 23.3413 2.14994 22.7554 2.56372C22.1642 2.9813 21.609 3.53514 21.0287 4.11623L20.9901 4.15482C20.4426 4.70312 19.781 5.36575 19.0427 5.88721C18.2816 6.42475 17.3443 6.88228 16.2484 6.88228C15.1524 6.88228 14.2152 6.42475 13.4541 5.88721C12.7158 5.36574 12.0541 4.70311 11.5066 4.15481L11.4681 4.11623C10.8878 3.53514 10.3326 2.9813 9.74137 2.56372C9.15549 2.14994 8.62927 1.9403 8.12421 1.9403C7.61915 1.9403 7.09293 2.14994 6.50705 2.56372ZM5.32994 15.821C6.09105 15.2835 7.02826 14.826 8.12421 14.826C9.22016 14.826 10.1574 15.2835 10.9185 15.821C11.6568 16.3425 12.3185 17.0051 12.8659 17.5534L12.9045 17.592C13.4848 18.1731 14.04 18.7269 14.6312 19.1445C15.2171 19.5583 15.7433 19.7679 16.2484 19.7679C16.7535 19.7679 17.2797 19.5583 17.8656 19.1445C18.4568 18.7269 19.0119 18.1731 19.5923 17.592L19.6309 17.5534C20.1783 17.0051 20.84 16.3425 21.5783 15.821C22.3394 15.2835 23.2766 14.826 24.3726 14.826C25.4685 14.826 26.4057 15.2835 27.1668 15.821C27.9052 16.3425 28.5668 17.0051 29.1143 17.5534L29.1528 17.592C29.7332 18.1731 30.2884 18.7269 30.8796 19.1445C31.4655 19.5583 31.9917 19.7679 32.4968 19.7679C33.0018 19.7679 33.528 19.5583 34.1139 19.1445C34.7052 18.7269 35.2603 18.1731 35.8407 17.592L35.8792 17.5534C36.4267 17.0051 37.0884 16.3425 37.8267 15.821C38.5878 15.2835 39.525 14.826 40.6209 14.826C41.7169 14.826 42.6541 15.2835 43.4152 15.821C44.1535 16.3425 44.8152 17.0051 45.3626 17.5534L45.4012 17.592C45.9816 18.1731 46.5367 18.7269 47.128 19.1445C47.7139 19.5583 48.2401 19.7679 48.7451 19.7679C49.2502 19.7679 49.7764 19.5583 50.3623 19.1445C50.9535 18.7269 51.5087 18.1731 52.0891 17.592L52.1276 17.5534C52.675 17.0051 53.3367 16.3425 54.0751 15.821C54.8362 15.2835 55.7734 14.826 56.8693 14.826C57.9689 14.826 58.8947 15.2863 59.6443 15.8266C60.3269 16.3186 60.9453 16.9394 61.4664 17.4626C61.5101 17.5065 61.5531 17.5496 61.5954 17.592C62.1675 18.1648 62.7396 18.7211 63.3439 19.1385C63.9473 19.5552 64.491 19.7679 65 19.7679V21.7082C63.908 21.7082 62.958 21.2538 62.184 20.7191C61.411 20.1853 60.7222 19.506 60.1591 18.9422C60.1234 18.9065 60.088 18.871 60.0527 18.8356C59.5053 18.2869 58.9965 17.7769 58.4516 17.3841C57.8813 16.9731 57.3708 16.7662 56.8693 16.7662C56.3643 16.7662 55.838 16.9759 55.2522 17.3897C54.6609 17.8073 54.1058 18.3611 53.5254 18.9422L53.4869 18.9807C52.9394 19.529 52.2778 20.1917 51.5394 20.7132C50.7783 21.2507 49.8411 21.7082 48.7451 21.7082C47.6492 21.7082 46.712 21.2507 45.9509 20.7132C45.2125 20.1917 44.5509 19.529 44.0034 18.9807L43.9649 18.9422C43.3845 18.3611 42.8294 17.8073 42.2381 17.3897C41.6522 16.9759 41.126 16.7662 40.6209 16.7662C40.1159 16.7662 39.5897 16.9759 39.0038 17.3897C38.4125 17.8073 37.8574 18.3611 37.277 18.9422L37.2385 18.9808C36.691 19.5291 36.0294 20.1917 35.291 20.7132C34.5299 21.2507 33.5927 21.7082 32.4968 21.7082C31.4008 21.7082 30.4636 21.2507 29.7025 20.7132C28.9641 20.1917 28.3025 19.5291 27.755 18.9807L27.7165 18.9422C27.1361 18.3611 26.581 17.8073 25.9897 17.3897C25.4039 16.9759 24.8776 16.7662 24.3726 16.7662C23.8675 16.7662 23.3413 16.9759 22.7554 17.3897C22.1642 17.8073 21.609 18.3611 21.0287 18.9422L20.9901 18.9808C20.4426 19.5291 19.781 20.1917 19.0427 20.7132C18.2816 21.2507 17.3443 21.7082 16.2484 21.7082C15.1524 21.7082 14.2152 21.2507 13.4541 20.7132C12.7158 20.1917 12.0541 19.5291 11.5066 18.9807L11.4681 18.9422C10.8878 18.3611 10.3326 17.8073 9.74137 17.3897C9.15549 16.9759 8.62927 16.7662 8.12421 16.7662C7.61915 16.7662 7.09293 16.9759 6.50705 17.3897C5.9158 17.8073 5.36065 18.3611 4.78029 18.9422L4.74177 18.9808C4.19429 19.5291 3.53264 20.1917 2.79429 20.7132C2.03319 21.2507 1.09597 21.7082 2.38013e-05 21.7082V19.7679C0.505082 19.7679 1.0313 19.5583 1.61719 19.1445C2.20843 18.7269 2.76358 18.1731 3.34394 17.592L3.38248 17.5534C3.92996 17.0051 4.59161 16.3425 5.32994 15.821ZM5.32994 30.647C6.09104 30.1094 7.02826 29.6519 8.12421 29.6519C9.22016 29.6519 10.1574 30.1094 10.9185 30.647C11.6568 31.1684 12.3185 31.8311 12.8659 32.3794L12.9045 32.418C13.4848 32.999 14.04 33.5529 14.6312 33.9705C15.2171 34.3842 15.7433 34.5939 16.2484 34.5939C16.7535 34.5939 17.2797 34.3842 17.8656 33.9705C18.4568 33.5529 19.0119 32.999 19.5923 32.418L19.6309 32.3794C20.1783 31.8311 20.84 31.1684 21.5783 30.647C22.3394 30.1094 23.2766 29.6519 24.3726 29.6519C25.4685 29.6519 26.4057 30.1094 27.1668 30.647C27.9052 31.1684 28.5668 31.8311 29.1143 32.3794L29.1528 32.418C29.7332 32.999 30.2884 33.5529 30.8796 33.9705C31.4655 34.3842 31.9917 34.5939 32.4968 34.5939C33.0018 34.5939 33.528 34.3842 34.1139 33.9705C34.7052 33.5529 35.2603 32.999 35.8407 32.418L35.8792 32.3794C36.4267 31.8311 37.0883 31.1684 37.8267 30.647C38.5878 30.1094 39.525 29.6519 40.6209 29.6519C41.7169 29.6519 42.6541 30.1094 43.4152 30.647C44.1536 31.1684 44.8152 31.8311 45.3627 32.3794L45.4012 32.418C45.9816 32.999 46.5367 33.5529 47.128 33.9705C47.7139 34.3842 48.2401 34.5939 48.7451 34.5939C49.2502 34.5939 49.7764 34.3842 50.3623 33.9705C50.9535 33.5529 51.5087 32.999 52.0891 32.418L52.1276 32.3794C52.675 31.8311 53.3367 31.1684 54.075 30.647C54.8362 30.1094 55.7734 29.6519 56.8693 29.6519C57.9689 29.6519 58.8947 30.1123 59.6443 30.6525C60.3269 31.1445 60.9452 31.7653 61.4664 32.2885C61.5101 32.3324 61.5531 32.3756 61.5954 32.418C62.1675 32.9907 62.7396 33.547 63.3439 33.9645C63.9473 34.3812 64.491 34.5939 65 34.5939V36.5342C63.908 36.5342 62.958 36.0797 62.184 35.5451C61.411 35.0112 60.7222 34.332 60.1591 33.7681C60.1234 33.7325 60.088 33.6969 60.0527 33.6616C59.5054 33.1129 58.9965 32.6028 58.4516 32.2101C57.8813 31.799 57.3708 31.5922 56.8693 31.5922C56.3643 31.5922 55.838 31.8018 55.2522 32.2156C54.6609 32.6332 54.1058 33.187 53.5254 33.7681L53.4869 33.8067C52.9394 34.355 52.2778 35.0176 51.5394 35.5391C50.7783 36.0767 49.8411 36.5342 48.7451 36.5342C47.6492 36.5342 46.712 36.0766 45.9509 35.5391C45.2125 35.0176 44.5508 34.355 44.0033 33.8067L43.9649 33.7681C43.3845 33.187 42.8294 32.6332 42.2381 32.2156C41.6522 31.8018 41.126 31.5922 40.6209 31.5922C40.1159 31.5922 39.5897 31.8018 39.0038 32.2156C38.4125 32.6332 37.8574 33.187 37.277 33.7681L37.2385 33.8067C36.691 34.355 36.0294 35.0176 35.291 35.5391C34.5299 36.0766 33.5927 36.5342 32.4968 36.5342C31.4008 36.5342 30.4636 36.0766 29.7025 35.5391C28.9641 35.0176 28.3025 34.355 27.755 33.8067L27.7165 33.7681C27.1361 33.187 26.581 32.6332 25.9897 32.2156C25.4039 31.8018 24.8776 31.5922 24.3726 31.5922C23.8675 31.5922 23.3413 31.8018 22.7554 32.2156C22.1642 32.6332 21.609 33.187 21.0287 33.7681L20.9902 33.8067C20.4427 34.355 19.781 35.0176 19.0427 35.5391C18.2816 36.0766 17.3443 36.5342 16.2484 36.5342C15.1524 36.5342 14.2152 36.0766 13.4541 35.5391C12.7158 35.0176 12.0541 34.355 11.5066 33.8067L11.4681 33.7681C10.8878 33.187 10.3326 32.6332 9.74137 32.2156C9.15549 31.8018 8.62927 31.5922 8.12421 31.5922C7.61915 31.5922 7.09293 31.8018 6.50705 32.2156C5.9158 32.6332 5.36065 33.187 4.78029 33.7681L4.74179 33.8067C4.1943 34.355 3.53264 35.0176 2.79429 35.5391C2.03319 36.0766 1.09597 36.5342 2.38013e-05 36.5342V34.5939C0.505083 34.5939 1.0313 34.3842 1.61719 33.9705C2.20843 33.5529 2.76358 32.999 3.34394 32.418L3.38247 32.3794C3.92996 31.8311 4.5916 31.1684 5.32994 30.647ZM5.32994 45.4729C6.09105 44.9354 7.02826 44.4779 8.12421 44.4779C9.22016 44.4779 10.1574 44.9354 10.9185 45.4729C11.6568 45.9944 12.3184 46.657 12.8659 47.2053L12.9045 47.2439C13.4848 47.825 14.04 48.3788 14.6312 48.7964C15.2171 49.2102 15.7433 49.4198 16.2484 49.4198C16.7535 49.4198 17.2797 49.2102 17.8656 48.7964C18.4568 48.3788 19.0119 47.825 19.5923 47.2439L19.6309 47.2053C20.1783 46.657 20.84 45.9944 21.5783 45.4729C22.3394 44.9354 23.2766 44.4779 24.3726 44.4779C25.4685 44.4779 26.4057 44.9354 27.1668 45.4729C27.9052 45.9944 28.5668 46.657 29.1143 47.2053L29.1528 47.2439C29.7332 47.825 30.2884 48.3788 30.8796 48.7964C31.4655 49.2102 31.9917 49.4198 32.4968 49.4198C33.0018 49.4198 33.528 49.2102 34.1139 48.7964C34.7052 48.3788 35.2603 47.825 35.8407 47.2439L35.8792 47.2053C36.4267 46.657 37.0884 45.9944 37.8267 45.4729C38.5878 44.9354 39.525 44.4779 40.6209 44.4779C41.7169 44.4779 42.6541 44.9354 43.4152 45.4729C44.1535 45.9944 44.8151 46.657 45.3626 47.2052L45.4012 47.2439C45.9816 47.825 46.5367 48.3788 47.128 48.7964C47.7139 49.2102 48.2401 49.4198 48.7451 49.4198C49.2502 49.4198 49.7764 49.2102 50.3623 48.7964C50.9535 48.3788 51.5087 47.825 52.0891 47.2439L52.1277 47.2052C52.6751 46.657 53.3367 45.9944 54.0751 45.4729C54.8362 44.9354 55.7734 44.4779 56.8693 44.4779C57.9689 44.4779 58.8947 44.9382 59.6443 45.4785C60.3269 45.9705 60.9453 46.5913 61.4664 47.1145C61.5101 47.1584 61.5531 47.2015 61.5954 47.2439C62.1675 47.8167 62.7396 48.373 63.3439 48.7904C63.9473 49.2071 64.491 49.4198 65 49.4198V51.3601C63.908 51.3601 62.958 50.9057 62.184 50.371C61.411 49.8372 60.7222 49.1579 60.1591 48.5941C60.1234 48.5584 60.088 48.5229 60.0527 48.4875C59.5054 47.9388 58.9965 47.4288 58.4516 47.036C57.8813 46.625 57.3708 46.4182 56.8693 46.4182C56.3643 46.4182 55.838 46.6278 55.2522 47.0416C54.6609 47.4591 54.1058 48.013 53.5254 48.5941L53.4869 48.6326C52.9394 49.1809 52.2778 49.8436 51.5394 50.3651C50.7783 50.9026 49.8411 51.3601 48.7451 51.3601C47.6492 51.3601 46.712 50.9026 45.9509 50.3651C45.2125 49.8436 44.5508 49.1809 44.0033 48.6326L43.9649 48.5941C43.3845 48.013 42.8294 47.4591 42.2381 47.0416C41.6522 46.6278 41.126 46.4182 40.6209 46.4182C40.1159 46.4182 39.5897 46.6278 39.0038 47.0416C38.4125 47.4591 37.8574 48.013 37.277 48.5941L37.2385 48.6327C36.691 49.181 36.0294 49.8436 35.291 50.3651C34.5299 50.9026 33.5927 51.3601 32.4968 51.3601C31.4008 51.3601 30.4636 50.9026 29.7025 50.3651C28.9641 49.8436 28.3025 49.1809 27.755 48.6326L27.7165 48.5941C27.1361 48.013 26.581 47.4591 25.9897 47.0416C25.4039 46.6278 24.8776 46.4182 24.3726 46.4182C23.8675 46.4182 23.3413 46.6278 22.7554 47.0416C22.1642 47.4591 21.609 48.013 21.0287 48.5941L20.9901 48.6326C20.4427 49.181 19.781 49.8436 19.0427 50.3651C18.2816 50.9026 17.3443 51.3601 16.2484 51.3601C15.1524 51.3601 14.2152 50.9026 13.4541 50.3651C12.7158 49.8436 12.0541 49.1809 11.5066 48.6326L11.4681 48.5941C10.8878 48.013 10.3326 47.4591 9.74137 47.0416C9.15549 46.6278 8.62927 46.4182 8.12421 46.4182C7.61915 46.4182 7.09293 46.6278 6.50705 47.0416C5.9158 47.4591 5.36065 48.013 4.78029 48.5941L4.74179 48.6326C4.1943 49.1809 3.53264 49.8436 2.79429 50.3651C2.03319 50.9026 1.09597 51.3601 2.38013e-05 51.3601V49.4198C0.505082 49.4198 1.0313 49.2102 1.61719 48.7964C2.20843 48.3788 2.76358 47.825 3.34394 47.2439L3.3825 47.2053C3.92998 46.657 4.59162 45.9944 5.32994 45.4729ZM5.32991 59.1128C6.09102 58.5752 7.02824 58.1177 8.12418 58.1177C9.22013 58.1177 10.1573 58.5752 10.9185 59.1128C11.6568 59.6343 12.3185 60.2969 12.866 60.8452L12.9045 60.8838C13.4848 61.4649 14.04 62.0187 14.6312 62.4363C15.2171 62.8501 15.7433 63.0597 16.2484 63.0597C16.7534 63.0597 17.2796 62.8501 17.8655 62.4363C18.4568 62.0187 19.0119 61.4649 19.5923 60.8838L19.6308 60.8452C20.1783 60.2969 20.8399 59.6343 21.5783 59.1128C22.3394 58.5752 23.2766 58.1177 24.3726 58.1177C25.4685 58.1177 26.4057 58.5752 27.1668 59.1128C27.9052 59.6343 28.5668 60.2969 29.1143 60.8452L29.1528 60.8838C29.7332 61.4649 30.2883 62.0187 30.8796 62.4363C31.4655 62.8501 31.9917 63.0597 32.4967 63.0597C33.0018 63.0597 33.528 62.8501 34.1139 62.4363C34.7051 62.0187 35.2603 61.4649 35.8407 60.8838L35.8792 60.8452C36.4267 60.2969 37.0883 59.6343 37.8267 59.1128C38.5878 58.5752 39.525 58.1177 40.6209 58.1177C41.7169 58.1177 42.6541 58.5752 43.4152 59.1128C44.1535 59.6343 44.8152 60.2969 45.3627 60.8452L45.4012 60.8838C45.9816 61.4649 46.5367 62.0187 47.1279 62.4363C47.7138 62.8501 48.2401 63.0597 48.7451 63.0597C49.2502 63.0597 49.7764 62.8501 50.3623 62.4363C50.9535 62.0187 51.5087 61.4649 52.089 60.8838L52.1275 60.8452C52.675 60.2969 53.3367 59.6343 54.075 59.1128C54.8361 58.5752 55.7733 58.1177 56.8693 58.1177C57.9688 58.1177 58.8947 58.5781 59.6443 59.1184C60.3269 59.6103 60.9452 60.2311 61.4664 60.7543C61.5101 60.7982 61.5531 60.8414 61.5954 60.8838C62.1675 61.4566 62.7396 62.0129 63.3439 62.4303C63.9472 62.847 64.491 63.0597 65 63.0597V65C63.908 65 62.9579 64.5455 62.1839 64.0109C61.411 63.477 60.7222 62.7978 60.159 62.2339C60.1234 62.1983 60.088 62.1627 60.0527 62.1274C59.5053 61.5787 58.9965 61.0687 58.4516 60.6759C57.8813 60.2648 57.3708 60.058 56.8693 60.058C56.3642 60.058 55.838 60.2677 55.2521 60.6814C54.6609 61.099 54.1057 61.6529 53.5254 62.2339L53.4869 62.2725C52.9394 62.8208 52.2777 63.4834 51.5394 64.0049C50.7783 64.5425 49.8411 65 48.7451 65C47.6492 65 46.7119 64.5425 45.9508 64.0049C45.2125 63.4834 44.5508 62.8208 44.0033 62.2725L43.9648 62.2339C43.3845 61.6529 42.8293 61.099 42.2381 60.6814C41.6522 60.2677 41.126 60.058 40.6209 60.058C40.1159 60.058 39.5896 60.2677 39.0038 60.6814C38.4125 61.099 37.8574 61.6529 37.277 62.2339L37.2385 62.2725C36.691 62.8208 36.0294 63.4834 35.291 64.0049C34.5299 64.5425 33.5927 65 32.4967 65C31.4008 65 30.4636 64.5425 29.7025 64.0049C28.9641 63.4835 28.3025 62.8208 27.755 62.2725L27.7165 62.2339C27.1361 61.6529 26.581 61.099 25.9897 60.6814C25.4038 60.2677 24.8776 60.058 24.3726 60.058C23.8675 60.058 23.3413 60.2677 22.7554 60.6814C22.1641 61.099 21.609 61.6529 21.0286 62.2339L20.9901 62.2725C20.4426 62.8208 19.781 63.4835 19.0426 64.0049C18.2815 64.5425 17.3443 65 16.2484 65C15.1524 65 14.2152 64.5425 13.4541 64.0049C12.7158 63.4835 12.0541 62.8208 11.5066 62.2725L11.4681 62.2339C10.8877 61.6529 10.3326 61.099 9.74135 60.6814C9.15546 60.2677 8.62924 60.058 8.12418 60.058C7.61913 60.058 7.0929 60.2677 6.50702 60.6814C5.91578 61.099 5.36063 61.6529 4.78027 62.2339L4.74177 62.2725C4.19428 62.8208 3.53262 63.4834 2.79427 64.0049C2.03316 64.5425 1.09595 65 0 65V63.0597C0.505058 63.0597 1.03128 62.8501 1.61716 62.4363C2.20841 62.0187 2.76356 61.4649 3.34391 60.8838L3.38242 60.8452C3.92991 60.2969 4.59157 59.6343 5.32991 59.1128Z" fill="#126EB9"/>
</svg>
