<svg width="59" height="67" viewBox="0 0 59 67" fill="none" xmlns="http://www.w3.org/2000/svg">
<path fill-rule="evenodd" clip-rule="evenodd" d="M8.69565 1C8.69565 0.447715 9.14337 0 9.69565 0H18.3913C18.9436 0 19.3913 0.447715 19.3913 1V40.0677C24.488 42.1627 28.087 47.1541 28.087 53C28.087 60.7335 21.7971 67 14.0435 67C6.28989 67 0 60.7335 0 53C0 47.1538 3.59934 42.1645 8.69565 40.068V1ZM10.6957 12.8333V40.7562C10.6957 41.1801 10.4283 41.558 10.0286 41.6991C5.34895 43.3513 2 47.7839 2 53C2 59.6228 7.38837 65 14.0435 65C20.6986 65 26.087 59.6228 26.087 53C26.087 47.7836 22.7378 43.3492 18.0588 41.6993C17.6588 41.5582 17.3913 41.1803 17.3913 40.7562V12.8333H10.6957ZM17.3913 10.8333H10.6957V2H17.3913V10.8333ZM26.087 5.33333C26.087 4.78105 26.5347 4.33333 27.087 4.33333H57.5217C58.074 4.33333 58.5217 4.78105 58.5217 5.33333C58.5217 5.88562 58.074 6.33333 57.5217 6.33333H27.087C26.5347 6.33333 26.087 5.88562 26.087 5.33333ZM26.087 11.8333C26.087 11.281 26.5347 10.8333 27.087 10.8333H48.8261C49.3784 10.8333 49.8261 11.281 49.8261 11.8333C49.8261 12.3856 49.3784 12.8333 48.8261 12.8333H27.087C26.5347 12.8333 26.087 12.3856 26.087 11.8333ZM26.087 18.3333C26.087 17.781 26.5347 17.3333 27.087 17.3333H57.5217C58.074 17.3333 58.5217 17.781 58.5217 18.3333C58.5217 18.8856 58.074 19.3333 57.5217 19.3333H27.087C26.5347 19.3333 26.087 18.8856 26.087 18.3333ZM26.087 24.8333C26.087 24.281 26.5347 23.8333 27.087 23.8333H48.8261C49.3784 23.8333 49.8261 24.281 49.8261 24.8333C49.8261 25.3856 49.3784 25.8333 48.8261 25.8333H27.087C26.5347 25.8333 26.087 25.3856 26.087 24.8333ZM26.087 31.3333C26.087 30.781 26.5347 30.3333 27.087 30.3333H57.5217C58.074 30.3333 58.5217 30.781 58.5217 31.3333C58.5217 31.8856 58.074 32.3333 57.5217 32.3333H27.087C26.5347 32.3333 26.087 31.8856 26.087 31.3333ZM26.087 37.8333C26.087 37.2811 26.5347 36.8333 27.087 36.8333H48.8261C49.3784 36.8333 49.8261 37.2811 49.8261 37.8333C49.8261 38.3856 49.3784 38.8333 48.8261 38.8333H27.087C26.5347 38.8333 26.087 38.3856 26.087 37.8333Z" fill="#126EB9"/>
</svg>
