<svg width="67" height="67" viewBox="0 0 67 67" fill="none" xmlns="http://www.w3.org/2000/svg">
<g clip-path="url(#clip0)">
<path d="M53.12 67.0002C50.9318 67.0028 48.7739 66.4886 46.8218 65.4996C44.8698 64.5107 43.1789 63.0748 41.8866 61.3089C40.5944 59.543 39.7373 57.4969 39.3851 55.3372C39.033 53.1775 39.1957 50.9652 39.86 48.8802L18.12 27.1402C15.5354 27.9615 12.7671 28.0094 10.1556 27.2779C7.54417 26.5464 5.20349 25.0675 3.42157 23.0232C1.63964 20.9788 0.494192 18.4581 0.126141 15.7712C-0.241911 13.0843 0.18349 10.3485 1.35001 7.90022C1.42017 7.7559 1.52404 7.63058 1.65284 7.53485C1.78164 7.43912 1.93158 7.3758 2.09001 7.35022C2.25301 7.31758 2.42158 7.32608 2.58047 7.37497C2.73936 7.42386 2.88355 7.51159 3.00001 7.63022L11.6 16.2302C12.2312 16.8266 13.0666 17.1588 13.935 17.1588C14.8034 17.1588 15.6388 16.8266 16.27 16.2302C16.885 15.6087 17.2299 14.7696 17.2299 13.8952C17.2299 13.0209 16.885 12.1818 16.27 11.5602L7.63001 3.00022C7.51755 2.8879 7.4335 2.75038 7.3848 2.59908C7.33611 2.44778 7.32418 2.28705 7.35001 2.13022C7.37558 1.9718 7.4389 1.82185 7.53463 1.69305C7.63036 1.56425 7.75568 1.46039 7.90001 1.39022C10.3455 0.227689 13.0771 -0.195809 15.7598 0.171675C18.4426 0.53916 20.9597 1.68165 23.0025 3.459C25.0453 5.23635 26.5249 7.57128 27.2598 10.1774C27.9948 12.7835 27.9532 15.5474 27.14 18.1302L48.88 39.8702C51.464 39.0456 54.2327 38.995 56.845 39.7246C59.4574 40.4543 61.7992 41.9322 63.5819 43.9764C65.3646 46.0206 66.5103 48.5417 66.8777 51.229C67.2452 53.9164 66.8184 56.6525 65.65 59.1002C65.5798 59.2445 65.476 59.3699 65.3472 59.4656C65.2184 59.5613 65.0684 59.6247 64.91 59.6502C64.754 59.6773 64.5937 59.667 64.4425 59.62C64.2912 59.5731 64.1533 59.4909 64.04 59.3802L55.44 50.7802C54.8088 50.1839 53.9734 49.8516 53.105 49.8516C52.2366 49.8516 51.4012 50.1839 50.77 50.7802C50.1557 51.4001 49.811 52.2375 49.811 53.1102C49.811 53.9829 50.1557 54.8203 50.77 55.4402L59.37 64.0402C59.4835 64.1529 59.5682 64.2912 59.6172 64.4434C59.6662 64.5956 59.6779 64.7574 59.6515 64.9151C59.625 65.0728 59.5612 65.2218 59.4652 65.3497C59.3692 65.4777 59.244 65.5807 59.1 65.6502C57.2322 66.5403 55.189 67.0016 53.12 67.0002V67.0002ZM18.39 25.0002C18.6523 25.0013 18.9037 25.1055 19.09 25.2902L41.72 47.9102C41.8707 48.0428 41.978 48.2177 42.0279 48.4121C42.0778 48.6065 42.0681 48.8114 42 49.0002C41.2332 51.0989 41.0727 53.371 41.5369 55.5566C42.0011 57.7422 43.0713 59.7529 44.6249 61.3587C46.1785 62.9645 48.1528 64.1005 50.3219 64.6366C52.491 65.1727 54.7672 65.0873 56.89 64.3902L49.36 56.8602C48.3808 55.8638 47.8346 54.5211 47.8403 53.124C47.8459 51.727 48.4029 50.3887 49.39 49.4002C50.3772 48.4117 51.7148 47.8529 53.1118 47.8455C54.5088 47.838 55.8523 48.3824 56.85 49.3602L64.38 56.9002C65.0785 54.7779 65.1653 52.5018 64.6306 50.3324C64.0959 48.163 62.9613 46.188 61.3565 44.6334C59.7518 43.0787 57.7418 42.0072 55.5566 41.5416C53.3713 41.0759 51.0991 41.2349 49 42.0002C48.8199 42.0679 48.6241 42.0822 48.4361 42.0414C48.2481 42.0006 48.0758 41.9065 47.94 41.7702L25.28 19.1002C25.1359 18.961 25.0369 18.7817 24.9959 18.5856C24.9549 18.3894 24.9737 18.1855 25.05 18.0002C25.8201 15.897 25.981 13.6192 25.5142 11.4286C25.0474 9.23808 23.9719 7.22373 22.4113 5.61718C20.8507 4.01063 18.8684 2.87711 16.6923 2.34695C14.5162 1.81679 12.2347 1.91151 10.11 2.62022L17.64 10.1502C18.5722 11.1556 19.0786 12.483 19.0527 13.8538C19.0269 15.2246 18.4708 16.5321 17.5013 17.5016C16.5319 18.471 15.2244 19.0271 13.8536 19.0529C12.4828 19.0788 11.1553 18.5724 10.15 17.6402L2.62001 10.1102C1.90705 12.2352 1.80926 14.5184 2.33791 16.6966C2.86655 18.8748 4.00011 20.8591 5.60785 22.4209C7.21558 23.9826 9.23201 25.0581 11.4246 25.5233C13.6172 25.9885 15.8966 25.8245 18 25.0502C18.1254 25.0079 18.258 24.9909 18.39 25.0002V25.0002ZM5.25001 66.4902C5.1177 66.4897 4.98682 66.4629 4.86494 66.4114C4.74307 66.3599 4.63262 66.2847 4.54001 66.1902L0.800007 62.4502C0.622718 62.2642 0.523816 62.0172 0.523816 61.7602C0.523816 61.5033 0.622718 61.2562 0.800007 61.0702L7.11001 54.1302C7.20007 54.0303 7.30937 53.9495 7.43137 53.8928C7.55337 53.8361 7.68555 53.8046 7.82001 53.8002C7.95496 53.7968 8.08921 53.8207 8.21467 53.8705C8.34013 53.9204 8.4542 53.9951 8.55001 54.0902L10 55.5702L25.91 39.6602C26.003 39.5665 26.1136 39.4921 26.2354 39.4413C26.3573 39.3906 26.488 39.3644 26.62 39.3644C26.752 39.3644 26.8827 39.3906 27.0046 39.4413C27.1264 39.4921 27.237 39.5665 27.33 39.6602C27.4237 39.7532 27.4981 39.8638 27.5489 39.9856C27.5997 40.1075 27.6258 40.2382 27.6258 40.3702C27.6258 40.5022 27.5997 40.6329 27.5489 40.7548C27.4981 40.8767 27.4237 40.9873 27.33 41.0802L11.42 57.0002L12.9 58.4802C12.9951 58.576 13.0698 58.6901 13.1197 58.8156C13.1695 58.941 13.1934 59.0753 13.19 59.2102C13.1869 59.3464 13.1561 59.4805 13.0993 59.6043C13.0426 59.7281 12.9611 59.839 12.86 59.9302L5.92001 66.2302C5.73661 66.3969 5.49784 66.4896 5.25001 66.4902ZM2.89001 61.7102L5.28001 64.1002L10.74 59.1002L7.85001 56.2502L2.89001 61.7102ZM44.48 30.7702C44.3484 30.771 44.2179 30.7458 44.0961 30.696C43.9743 30.6462 43.8634 30.5729 43.77 30.4802L40.16 26.8702L36.56 23.2602C36.3716 23.0756 36.2638 22.824 36.26 22.5602C36.2606 22.4279 36.2874 22.297 36.3389 22.1752C36.3903 22.0533 36.4655 21.9428 36.56 21.8502L56.56 1.85022C57.4152 1.00442 58.5004 0.428907 59.6803 0.195369C60.8603 -0.0381695 62.0828 0.0805867 63.1958 0.536846C64.3087 0.993105 65.2628 1.7667 65.9393 2.76129C66.6157 3.75588 66.9846 4.9275 67 6.13022C67.0073 6.93513 66.8527 7.73329 66.5451 8.47717C66.2376 9.22105 65.7836 9.89546 65.21 10.4602L45.21 30.4602C45.1159 30.5589 45.0026 30.6374 44.8771 30.6907C44.7515 30.744 44.6164 30.7711 44.48 30.7702V30.7702ZM42.26 26.1402L44.48 28.3602L63.78 9.05022C64.1733 8.66896 64.4868 8.21327 64.7023 7.70969C64.9178 7.20611 65.0309 6.66469 65.0352 6.11696C65.0394 5.56923 64.9347 5.02613 64.727 4.51926C64.5194 4.0124 64.213 3.55191 63.8256 3.16459C63.4383 2.77728 62.9778 2.47088 62.471 2.26323C61.9641 2.05557 61.421 1.95082 60.8733 1.95507C60.3255 1.95932 59.7841 2.07248 59.2805 2.28796C58.777 2.50344 58.3213 2.81695 57.94 3.21022L38.64 22.5202L40.85 24.7302L60.09 5.48022C60.183 5.38649 60.2936 5.3121 60.4154 5.26133C60.5373 5.21056 60.668 5.18442 60.8 5.18442C60.932 5.18442 61.0627 5.21056 61.1846 5.26133C61.3064 5.3121 61.417 5.38649 61.51 5.48022C61.6027 5.57366 61.676 5.68448 61.7258 5.80632C61.7755 5.92815 61.8008 6.05862 61.8 6.19022C61.8008 6.32183 61.7755 6.45229 61.7258 6.57413C61.676 6.69597 61.6027 6.80678 61.51 6.90022L42.26 26.1402Z" fill="#126EB9"/>
</g>
<defs>
<clipPath id="clip0">
<rect width="67" height="67" fill="white"/>
</clipPath>
</defs>
</svg>
