<svg width="22" height="22" viewBox="0 0 22 22" fill="none" xmlns="http://www.w3.org/2000/svg">
<path d="M11 0C4.92486 0 0 4.92486 0 11C0 17.0751 4.92486 22 11 22C17.0751 22 22 17.0751 22 11C21.9935 4.92758 17.0724 0.00649135 11 0ZM11 20.4285C5.79272 20.4285 1.57141 16.2072 1.57141 11C1.57141 5.79272 5.79272 1.57141 11 1.57141C16.2072 1.57141 20.4285 5.79272 20.4285 11C20.4229 16.2049 16.2049 20.4229 11 20.4285Z" fill="#1156DE"/>
<path d="M11 3.92844C10.5661 3.92844 10.2143 4.28021 10.2143 4.71416V10.2142H4.71432C4.28037 10.2142 3.92859 10.566 3.92859 10.9999C3.92859 11.4339 4.28037 11.7856 4.71432 11.7856H11C11.434 11.7856 11.7857 11.4338 11.7857 10.9999V4.71416C11.7857 4.28021 11.434 3.92844 11 3.92844Z" fill="#1156DE"/>
</svg>
