<svg width="25" height="25" viewBox="0 0 25 25" fill="none" xmlns="http://www.w3.org/2000/svg">
<path fill-rule="evenodd" clip-rule="evenodd" d="M21.4582 11.2291C21.4582 16.8785 16.8785 21.4582 11.2291 21.4582C5.57973 21.4582 1 16.8785 1 11.2291C1 5.57973 5.57973 1 11.2291 1C16.8785 1 21.4582 5.57973 21.4582 11.2291ZM18.8077 19.5153C16.8103 21.3431 14.15 22.4582 11.2291 22.4582C5.02745 22.4582 0 17.4308 0 11.2291C0 5.02745 5.02745 0 11.2291 0C17.4308 0 22.4582 5.02745 22.4582 11.2291C22.4582 14.1502 21.3429 16.8108 19.5148 18.8082L24.8529 24.1462C25.0481 24.3415 25.0481 24.6581 24.8529 24.8533C24.6576 25.0486 24.341 25.0486 24.1458 24.8533L18.8077 19.5153Z" fill="white"/>
</svg>
