<svg width="29" height="24" viewBox="0 0 29 24" fill="none" xmlns="http://www.w3.org/2000/svg">
<path d="M27.8274 4.29898C27.5106 2.89327 26.582 1.78517 25.4045 1.40665C23.2532 0.704102 14.6478 0.704102 14.6478 0.704102C14.6478 0.704102 6.04275 0.704102 3.89145 1.38002C2.73651 1.75813 1.78528 2.89347 1.46848 4.29898C0.902344 6.86646 0.902344 12.1911 0.902344 12.1911C0.902344 12.1911 0.902344 17.5425 1.46848 20.0832C1.78562 21.4887 2.71386 22.5968 3.89161 22.9753C6.0654 23.6781 14.6481 23.6781 14.6481 23.6781C14.6481 23.6781 23.2532 23.6781 25.4045 23.0021C26.5822 22.6238 27.5106 21.5157 27.8278 20.1102C28.3937 17.5425 28.3937 12.2181 28.3937 12.2181C28.3937 12.2181 28.4164 6.86646 27.8274 4.29898ZM11.908 17.1102V7.27201L19.0638 12.1911L11.908 17.1102Z" fill="#7EB5F9"/>
</svg>
