<svg width="31" height="25" viewBox="0 0 31 25" fill="none" xmlns="http://www.w3.org/2000/svg">
<path d="M20.2715 11.1068L13.4229 7.35956C13.0291 7.1441 12.5637 7.15214 12.1777 7.38084C11.7915 7.60979 11.5611 8.01422 11.5611 8.46312V15.8934C11.5611 16.3401 11.79 16.7438 12.1737 16.973C12.374 17.0927 12.5961 17.1528 12.8186 17.1528C13.0225 17.1528 13.2268 17.1024 13.4149 17.0012L20.2637 13.3185C20.6703 13.0997 20.924 12.677 20.9259 12.2151C20.9276 11.7532 20.6769 11.3287 20.2715 11.1068ZM13.3777 14.9587V9.40538L18.4963 12.2061L13.3777 14.9587Z" fill="#BACFF8"/>
<path d="M30.7719 6.2956L30.7705 6.28141C30.7442 6.03189 30.4829 3.81247 29.4039 2.6836C28.1568 1.35583 26.7429 1.19453 26.063 1.11719C26.0067 1.1108 25.9551 1.10489 25.909 1.09874L25.8548 1.09306C21.7566 0.795059 15.5673 0.754379 15.5054 0.754143L15.4999 0.753906L15.4945 0.754143C15.4325 0.754379 9.2433 0.795059 5.10815 1.09306L5.05352 1.09874C5.00952 1.10465 4.96104 1.11009 4.9083 1.11624C4.23614 1.19382 2.83741 1.35535 1.58675 2.73114C0.55911 3.84795 0.262053 6.01983 0.231544 6.26391L0.227996 6.2956C0.218772 6.39943 0 8.87121 0 11.3527V13.6724C0 16.1539 0.218772 18.6256 0.227996 18.7297L0.229652 18.7453C0.255904 18.9908 0.517012 21.1696 1.591 22.2989C2.76362 23.5822 4.24631 23.752 5.04382 23.8433C5.16988 23.8577 5.27844 23.87 5.35246 23.883L5.42413 23.893C7.79041 24.1181 15.2095 24.2291 15.5241 24.2336L15.5335 24.2338L15.543 24.2336C15.6049 24.2333 21.794 24.1926 25.8922 23.8946L25.9464 23.889C25.9982 23.8821 26.0563 23.876 26.1202 23.8693C26.7886 23.7984 28.1797 23.651 29.4131 22.2939C30.4408 21.1769 30.7381 19.005 30.7683 18.7612L30.7719 18.7295C30.7811 18.6254 31.0001 16.1539 31.0001 13.6724V11.3527C30.9999 8.87121 30.7811 6.39967 30.7719 6.2956ZM29.1832 13.6724C29.1832 15.9691 28.9827 18.3345 28.9638 18.5516C28.8867 19.1497 28.5733 20.5239 28.0726 21.0681C27.3006 21.9174 26.5076 22.0016 25.9286 22.0629C25.8586 22.0702 25.7938 22.0773 25.7352 22.0846C21.7712 22.3713 15.8157 22.4153 15.5413 22.4169C15.2336 22.4124 7.9231 22.3006 5.62895 22.0875C5.5114 22.0683 5.38439 22.0536 5.25053 22.0385C4.57151 21.9607 3.64202 21.8543 2.92729 21.0681L2.9105 21.0501C2.41855 20.5376 2.11417 19.2526 2.03683 18.5587C2.0224 18.3946 1.81664 16.0013 1.81664 13.6724V11.3527C1.81664 9.05853 2.01672 6.69578 2.03612 6.47417C2.12812 5.7696 2.44741 4.47872 2.92729 3.95698C3.72291 3.08189 4.56181 2.98492 5.11666 2.92082C5.16964 2.91467 5.21907 2.909 5.26472 2.90308C9.28634 2.61501 15.2847 2.5722 15.4999 2.57055C15.7152 2.57197 21.7114 2.61501 25.6973 2.90308C25.7463 2.90923 25.7997 2.91538 25.8572 2.922C26.4279 2.98705 27.2905 3.08543 28.0821 3.92978L28.0894 3.93758C28.5813 4.4501 28.8857 5.75754 28.9631 6.46542C28.9768 6.62033 29.1832 9.01879 29.1832 11.3527V13.6724Z" fill="#BACFF8"/>
</svg>
